<svg xmlns="http://www.w3.org/2000/svg" width="181.934" height="39.804" viewBox="0 0 181.934 39.804"><defs><style>.cls-1{fill:#f4efed;}</style></defs><g id="Layer_2" data-name="Layer 2"><g id="Layer_1-2" data-name="Layer 1"><path class="cls-1" d="M90.947.005a19.641,19.641,0,0,1,19.926,19.937A19.692,19.692,0,0,1,90.963,39.8a19.9,19.9,0,0,1-.016-39.8Zm16.319,19.931A16.14,16.14,0,0,0,91.059,3.612,16.366,16.366,0,0,0,74.681,19.836,16.447,16.447,0,0,0,90.955,36.2C99.105,36.281,107.478,29.4,107.266,19.936Z"/><path class="cls-1" d="M82.011,23.116h4.867a1.5,1.5,0,0,1,.141.342,3.376,3.376,0,0,0,2.946,3.1c1.943.373,3.7.051,4.759-1.726a9.275,9.275,0,0,0,.26-9.3c-.844-1.7-2.686-2.264-4.905-1.817a3.549,3.549,0,0,0-3.008,3.329l1.187.1-3.765,3.616L80.86,17.11h1.2c.083-.3.151-.517.2-.739,1.213-5.027,5.245-7.683,10.386-6.84a9.8,9.8,0,0,1,8.388,9.266,11.385,11.385,0,0,1-2.4,8.56,10.207,10.207,0,0,1-11.794,2.668A8.212,8.212,0,0,1,82.011,23.116Z"/><path class="cls-1" d="M162.057.005a19.9,19.9,0,1,1-19.922,19.726A19.892,19.892,0,0,1,162.057.005Zm0,36.376a16.477,16.477,0,1,0-16.5-16.481A16.512,16.512,0,0,0,162.056,36.381Z"/><path class="cls-1" d="M165.064,32.736h-6.006v-9.47l-1.825-.132v-3.6c0-1.373-.015-2.746.006-4.119.02-1.33.444-1.752,1.746-1.757,2.11-.009,4.219,0,6.329,0,.883,0,1.465.424,1.48,1.289.047,2.705.018,5.41.018,8.2l-1.748.1Z"/><path class="cls-1" d="M159.178,9.892A2.857,2.857,0,1,1,162.01,12.8,2.836,2.836,0,0,1,159.178,9.892Z"/><path class="cls-1" d="M19.97.005a19.639,19.639,0,0,1,19.843,20,19.814,19.814,0,0,1-20,19.8A20.028,20.028,0,0,1,0,19.857C-.042,9.753,8.43-.244,19.97.005ZM36.206,20A16.234,16.234,0,0,0,20.077,3.593C10.1,3.439,3.555,12.207,3.6,19.834A16.539,16.539,0,0,0,19.831,36.153C27.757,36.2,36.317,29.936,36.206,20Z"/><path class="cls-1" d="M19.667,16.623l-2.488,1.292A8.753,8.753,0,0,0,15.827,16.7a2.2,2.2,0,0,0-3.28,1.2,10.5,10.5,0,0,0-.092,3.635,2.049,2.049,0,0,0,1.885,1.814,2.475,2.475,0,0,0,2.68-1.147c.085-.138.178-.27.309-.468l2.317,1.177c-.987,2.334-3.589,3.548-6.452,3.051-2.746-.477-4.426-2.5-4.587-5.514-.177-3.316,1.319-5.728,4.033-6.5A5.991,5.991,0,0,1,19.667,16.623Z"/><path class="cls-1" d="M28.83,21.742l2.34,1.189a5.884,5.884,0,0,1-6.821,2.986c-2.612-.572-4.215-2.765-4.247-5.811-.035-3.214,1.531-5.53,4.188-6.2a5.811,5.811,0,0,1,6.841,2.717L28.7,17.917a8.728,8.728,0,0,0-1.35-1.214A2.245,2.245,0,0,0,24,17.961a9.411,9.411,0,0,0-.145,3.353,2.221,2.221,0,0,0,1.927,2.037C27.076,23.57,27.808,23.2,28.83,21.742Z"/></g></g></svg>
