<svg xmlns="http://www.w3.org/2000/svg" width="290.41" height="33.82" viewBox="0 0 290.41 33.82"><defs><style>.cls-1{fill:#fff;}</style></defs><g id="Layer_2" data-name="Layer 2"><g id="Layer_1-2" data-name="Layer 1"><path class="cls-1" d="M30.78,33.46l7-33.1h3.83c4.5,0,6.66.9,7.52,3.42s0,6.62-1.35,13.15S45.37,27.51,43.57,30s-4.46,3.42-9,3.42Zm5.86-4.87c1.66,0,2.66-.18,3.51-1.8A28.8,28.8,0,0,0,42,20.49c.22-1,.45-2.25.76-3.6s.54-2.57.77-3.65A23.68,23.68,0,0,0,44.34,7c-.14-1.58-1-1.76-2.7-1.76ZM54.56.36H65.68l-1.08,5H58.34L56.5,14.05H61l-1.13,5.31h-4.5l-1.94,9.1h6.26l-1,5H47.54Zm20,8.87A10.28,10.28,0,0,0,74.87,6c-.14-.9-.5-1.53-1.26-1.53-1.26,0-1.94,1.35-2.34,3.29a6.16,6.16,0,0,0,.45,3.55c.49,1.26,1.08,2.57,1.75,4a33.05,33.05,0,0,1,2.07,5,10.07,10.07,0,0,1,.32,5.18,12.88,12.88,0,0,1-2.61,5.81,7.36,7.36,0,0,1-5.9,2.52c-3.11,0-4.64-1.17-5.22-3s-.32-4.15.18-6.67l4.86-.45a12.09,12.09,0,0,0-.41,3.83c.14,1.08.5,1.8,1.53,1.8,1.45,0,2.26-1.53,2.75-3.65a6.72,6.72,0,0,0-.49-3.65c-.14-.31-.27-.67-.41-1s-.27-.67-.4-1c-.32-.67-.68-1.39-1-2.16s-.72-1.53-1.08-2.38a15.53,15.53,0,0,1-1.31-5.14,7.74,7.74,0,0,1,.18-2.65,10.73,10.73,0,0,1,2.57-5.23A7.38,7.38,0,0,1,74.46,0c3,0,4.42,1.17,5,2.93a12.32,12.32,0,0,1,0,5.85Zm17.3,12.88-.95,4.55a12.4,12.4,0,0,1-1.58,3.6,9.68,9.68,0,0,1-2.47,2.43,6.62,6.62,0,0,1-4,1.13,4.94,4.94,0,0,1-3.55-1.13A4.22,4.22,0,0,1,78,30.26a7.34,7.34,0,0,1,0-3.6l4.14-19.5A11,11,0,0,1,83.6,3.6,9.69,9.69,0,0,1,86,1.13,7.19,7.19,0,0,1,90,0a5.1,5.1,0,0,1,3.52,1.13A4.44,4.44,0,0,1,95,3.6,7.6,7.6,0,0,1,95,7.16l-1,4.55H89.5l1-4.55a2.42,2.42,0,0,0-.31-2.07,1.29,1.29,0,0,0-1-.36,2.14,2.14,0,0,0-1.75,1.21,8.21,8.21,0,0,0-.45,1.22l-4.15,19.5a2.8,2.8,0,0,0,.32,2.07,1,1,0,0,0,.86.36,2,2,0,0,0,1.93-1.22,5.28,5.28,0,0,0,.45-1.21l1-4.55ZM91,33.46l12-33.1H109l-2,33.1h-4.73l.49-6.76H98.06l-2.3,6.76Zm13-22.34,0-.85h-.27l-.32.85-3.6,10.45h3.33Zm13.92,22.34.4-14H117l-2.93,14h-4.86l7-33.1h4.87c5.8,0,7.56,3.24,6.25,9.55-.72,3.28-2.2,6.26-4.32,7.52l-.27,16ZM118,15a3.67,3.67,0,0,0,2.43-.73,6.71,6.71,0,0,0,2.21-4.18c.49-2.34.18-3.56-.41-4.24a2.67,2.67,0,0,0-2.16-.67Zm19.77-2.75,1.08-5.09a2.73,2.73,0,0,0-.23-2.07,1.09,1.09,0,0,0-.9-.36A2,2,0,0,0,136,5.94a4.85,4.85,0,0,0-.4,1.22l-4.24,19.9a2.43,2.43,0,0,0,.23,2.07,1,1,0,0,0,.85.36,1.85,1.85,0,0,0,1.71-1.21,5.39,5.39,0,0,0,.45-1.22l1.27-6H134l.86-4.09h6.79l-3.46,16.48h-2.88L135,31.88a6.06,6.06,0,0,1-4.18,1.94,4.12,4.12,0,0,1-3.24-1.13,4.26,4.26,0,0,1-1.18-2.43,7.85,7.85,0,0,1,.23-3.6l4.14-19.5a11,11,0,0,1,1.53-3.56,9.69,9.69,0,0,1,2.44-2.47,7.19,7.19,0,0,1,4-1.13,5.08,5.08,0,0,1,3.51,1.13,4.4,4.4,0,0,1,1.4,2.47,7.6,7.6,0,0,1,.09,3.56l-1.08,5.09Zm2.56,21.21,12-33.1h5.94l-2,33.1h-4.72l.49-6.76h-4.68l-2.3,6.76Zm13-22.34.05-.85h-.27l-.32.85-3.6,10.45h3.33Zm13.92,22.34.4-14h-1.3l-2.93,14h-4.86l7-33.1h4.86c5.81,0,7.57,3.24,6.26,9.55-.72,3.28-2.2,6.26-4.32,7.52l-.27,16ZM167.32,15a3.67,3.67,0,0,0,2.43-.73,6.71,6.71,0,0,0,2.2-4.18c.5-2.34.19-3.56-.4-4.24a2.69,2.69,0,0,0-2.16-.67Zm14.41,18.46,7-33.1h3.83c4.5,0,6.66.9,7.52,3.42s0,6.62-1.35,13.15S196.32,27.51,194.51,30s-4.45,3.42-9,3.42Zm5.85-4.87c1.67,0,2.66-.18,3.51-1.8a28.8,28.8,0,0,0,1.85-6.3c.22-1,.45-2.25.76-3.6s.54-2.57.77-3.65A23.68,23.68,0,0,0,195.28,7c-.14-1.58-1-1.76-2.7-1.76Zm9.55,4.87,12-33.1h5.94l-2,33.1h-4.73l.49-6.76h-4.68l-2.3,6.76Zm13-22.34,0-.85h-.27l-.31.85L206,21.57h3.33Zm8.28-5.76,1.08-5h14l-1.08,5h-4.59l-6,28.1H217L223,5.36Zm24.09,21.3a12.66,12.66,0,0,1-1.57,3.6,9.73,9.73,0,0,1-2.48,2.43,6.61,6.61,0,0,1-4,1.13,5,5,0,0,1-3.56-1.13,4.28,4.28,0,0,1-1.35-2.43,7.34,7.34,0,0,1-.05-3.6l4.15-19.5a10.79,10.79,0,0,1,1.53-3.56,9.49,9.49,0,0,1,2.43-2.47,7.22,7.22,0,0,1,4-1.13,5.09,5.09,0,0,1,3.51,1.13,4.39,4.39,0,0,1,1.39,2.47,7.72,7.72,0,0,1,.1,3.56Zm-.72-19.5a2.78,2.78,0,0,0-.22-2.07,1.11,1.11,0,0,0-.9-.36,2,2,0,0,0-1.71,1.21,4.86,4.86,0,0,0-.41,1.22l-4.14,19.5a2.41,2.41,0,0,0,.22,2.07,1,1,0,0,0,.86.36,1.87,1.87,0,0,0,1.71-1.22,6.43,6.43,0,0,0,.45-1.21Zm15.76,2.07A10.28,10.28,0,0,0,257.83,6c-.14-.9-.5-1.53-1.26-1.53-1.26,0-1.94,1.35-2.35,3.29a6.25,6.25,0,0,0,.46,3.55c.49,1.26,1.08,2.57,1.75,4a33.05,33.05,0,0,1,2.07,5,10.07,10.07,0,0,1,.32,5.18,12.88,12.88,0,0,1-2.61,5.81,7.36,7.36,0,0,1-5.9,2.52c-3.11,0-4.64-1.17-5.23-3s-.31-4.15.18-6.67l4.87-.45a12.09,12.09,0,0,0-.41,3.83c.14,1.08.5,1.8,1.53,1.8,1.44,0,2.26-1.53,2.75-3.65a6.81,6.81,0,0,0-.49-3.65c-.14-.31-.28-.67-.41-1s-.27-.67-.41-1c-.31-.67-.67-1.39-1-2.16s-.72-1.53-1.08-2.38a15.53,15.53,0,0,1-1.31-5.14,7.74,7.74,0,0,1,.18-2.65A10.73,10.73,0,0,1,252,2.52,7.36,7.36,0,0,1,257.42,0c3,0,4.42,1.17,5,2.93a12.32,12.32,0,0,1,0,5.85Zm29.59,8.89a20.36,20.36,0,0,0,1.37-1.93,14.33,14.33,0,0,0,1.94-4.68,14.27,14.27,0,0,0-4.67,1.94,19.29,19.29,0,0,0-1.94,1.37,22.5,22.5,0,0,0-1.94-1.37,14.58,14.58,0,0,0-4.67-1.94,14.49,14.49,0,0,0,1.94,4.67,21,21,0,0,0,1.37,1.94,22.5,22.5,0,0,0-1.37,1.94,14.58,14.58,0,0,0-1.94,4.67,14.58,14.58,0,0,0,4.67-1.94,20.5,20.5,0,0,0,1.94-1.37,21.13,21.13,0,0,0,1.94,1.38,14.26,14.26,0,0,0,4.67,1.93,14.27,14.27,0,0,0-1.94-4.67A19.29,19.29,0,0,0,287.1,18.12Zm-277.19,0a20.36,20.36,0,0,0,1.37-1.93,14.33,14.33,0,0,0,1.94-4.68,14.27,14.27,0,0,0-4.67,1.94,19.29,19.29,0,0,0-1.94,1.37,22.5,22.5,0,0,0-1.94-1.37A14.58,14.58,0,0,0,0,11.51a14.49,14.49,0,0,0,1.94,4.67,19.29,19.29,0,0,0,1.37,1.94,20.5,20.5,0,0,0-1.37,1.94A14.58,14.58,0,0,0,0,24.73a14.58,14.58,0,0,0,4.67-1.94,20.5,20.5,0,0,0,1.94-1.37A21.13,21.13,0,0,0,8.55,22.8a14.26,14.26,0,0,0,4.67,1.93,14.27,14.27,0,0,0-1.94-4.67A19.29,19.29,0,0,0,9.91,18.12Z"/></g></g></svg>