<svg xmlns="http://www.w3.org/2000/svg" width="8.145" height="17.514" viewBox="0 0 8.145 17.514"><defs><style>.cls-1{fill:#fff;}</style></defs><g id="Layer_2" data-name="Layer 2"><g id="Layer_1-2" data-name="Layer 1"><path class="cls-1" d="M0,5.76V8.789H1.813v8.725H5.418V8.778c.736,0,1.426-.009,2.117,0,.243.005.324-.073.333-.316.013-.35.074-.7.11-1.047.056-.542.109-1.083.167-1.673H5.406c0-.478,0-.911,0-1.343,0-.153,0-.306.008-.457.052-.637.317-.89.964-.916.257-.011.515,0,.773,0,.323,0,.646,0,.967,0V.005c-.812,0-1.606-.014-2.4.005A8.043,8.043,0,0,0,4.5.132,2.951,2.951,0,0,0,1.879,2.949c-.073.8-.055,1.613-.077,2.42,0,.124,0,.248,0,.391Z"/></g></g></svg>