<svg xmlns="http://www.w3.org/2000/svg" xmlns:xlink="http://www.w3.org/1999/xlink" width="163.055" height="14.997" viewBox="0 0 163.055 14.997"><defs><style>.cls-1{fill:url(#linear-gradient);}</style><linearGradient id="linear-gradient" y1="7.498" x2="163.055" y2="7.498" gradientUnits="userSpaceOnUse"><stop offset="0" stop-color="#ff7f2c"/><stop offset="0.096" stop-color="#ff754c"/><stop offset="0.245" stop-color="#ff6878"/><stop offset="0.396" stop-color="#ff5d9c"/><stop offset="0.546" stop-color="#ff55b8"/><stop offset="0.697" stop-color="#ff4fcc"/><stop offset="0.848" stop-color="#ff4bd8"/><stop offset="1" stop-color="#ff4adc"/></linearGradient></defs><g id="Layer_2" data-name="Layer 2"><g id="Layer_1-2" data-name="Layer 1"><path class="cls-1" d="M163.055,5.489h-9.694L159.373,0H147.2l-6.011,5.489h-3.854L143.348,0H131.175l-6.012,5.489H121.31L127.322,0H115.15l-6.012,5.489H21.826C21.583,2.794,20.4.77,16.719.77,12.493.77,0,6.72,0,6.72s12.493,5.95,16.719,5.95c3.683,0,4.864-2.024,5.107-4.719h87.047L115.81,15h11.518L120.39,7.951H124.9L131.835,15h11.518l-6.937-7.046h4.508L147.861,15h11.518l-6.938-7.046h10.614Z"/></g></g></svg>