<svg xmlns="http://www.w3.org/2000/svg" xmlns:xlink="http://www.w3.org/1999/xlink" width="163.055" height="14.997" viewBox="0 0 163.055 14.997"><defs><style>.cls-1{fill:url(#linear-gradient);}</style><linearGradient id="linear-gradient" y1="7.498" x2="163.055" y2="7.498" gradientUnits="userSpaceOnUse"><stop offset="0" stop-color="#ff7f2c"/><stop offset="0.096" stop-color="#ff754c"/><stop offset="0.245" stop-color="#ff6878"/><stop offset="0.396" stop-color="#ff5d9c"/><stop offset="0.546" stop-color="#ff55b8"/><stop offset="0.697" stop-color="#ff4fcc"/><stop offset="0.848" stop-color="#ff4bd8"/><stop offset="1" stop-color="#ff4adc"/></linearGradient></defs><g id="Layer_2" data-name="Layer 2"><g id="Layer_1-2" data-name="Layer 1"><path class="cls-1" d="M146.336.77c-3.683,0-4.864,2.024-5.107,4.719H53.917L47.906,0H35.733l6.012,5.489H37.892L31.88,0H19.708L25.72,5.489H21.867L15.855,0H3.682L9.694,5.489H0V7.951H10.614L3.676,15H15.194l6.937-7.046H26.64L19.7,15H31.22l6.937-7.046h4.508L35.727,15H47.245l6.937-7.046h87.047c.243,2.7,1.424,4.719,5.107,4.719,4.226,0,16.719-5.95,16.719-5.95S150.562.77,146.336.77Z"/></g></g></svg>