<svg xmlns="http://www.w3.org/2000/svg" xmlns:xlink="http://www.w3.org/1999/xlink" width="506.011" height="118.863" viewBox="0 0 506.011 118.863"><defs><style>.cls-1{fill:url(#linear-gradient);}</style><linearGradient id="linear-gradient" y1="59.431" x2="506.011" y2="59.431" gradientUnits="userSpaceOnUse"><stop offset="0" stop-color="#ff7f2c"/><stop offset="0.096" stop-color="#ff754c"/><stop offset="0.245" stop-color="#ff6878"/><stop offset="0.396" stop-color="#ff5d9c"/><stop offset="0.546" stop-color="#ff55b8"/><stop offset="0.697" stop-color="#ff4fcc"/><stop offset="0.848" stop-color="#ff4bd8"/><stop offset="1" stop-color="#ff4adc"/></linearGradient></defs><g id="Layer_2" data-name="Layer 2"><g id="Layer_1-2" data-name="Layer 1"><path class="cls-1" d="M490.156,37.336s3.883,34.267-5.219,35.29S474.3,64.443,473.79,54.981s-10.741-9.973-12.275-17.645,4.871-12.786,5.76-18.412S463.011,2.557,457.916,0c0,0,2.21,11.385,0,15.864s-9.249,8.745-10.1,15.357,3.412,22.115,8.745,34.307,2.133,24.349-.427,26.482-11.091-8.105-14.29-16.211c0,0-1.494,21.543-8.746,24.529s-14.29-.426-15.783-7.678,5.545-16.424,5.332-23.249S415.606,57.243,410.7,54.683s-21.116-13.011-23.676-21.969a30.838,30.838,0,0,1,0-16.637,13.66,13.66,0,0,0-8.318,11.091c-1.067,8.532.285,16.423,4.479,22.61s14.93,10.664,11.731,17.276-18.13-10.238-18.13-10.238,3.626,23.463,0,27.728S360.363,81.985,358.87,71.32s6.186-10.878,5.546-17.063S352.9,40.606,348.845,32.927s0-18.983,0-18.983-9.811,7.466-10.024,13.438,7.053,16.082,7.892,21.329,1.493,19.836-5.546,21.543-11.091-7.679-10.665-14.5c0,0-6.4,1.639-7.892,9.778s-4.479,19.656-17.063,14.964-13.416-13.569-10.238-18.77,8.958-12.584,7.892-21.969S291.875,26.38,285.5,19.917,282.085,4.825,283.791,0a13.392,13.392,0,0,0-7.964,12.03c-.339,9.135,13.7,20.3,13.872,26.559s-7.587,12.139-15.9,17.424a65.723,65.723,0,0,0-10.516,8.319c-1.611-4.718-7.961-22.146-15.457-27,0,0,3.883,34.267-5.219,35.29s-10.636-8.183-11.147-17.645-10.741-9.973-12.275-17.645,4.871-12.786,5.76-18.412S220.679,2.557,215.584,0c0,0,2.209,11.385,0,15.864s-9.249,8.745-10.1,15.357,3.412,22.115,8.745,34.307,2.133,24.349-.427,26.482S202.709,83.905,199.509,75.8c0,0-1.493,21.543-8.745,24.529s-14.29-.426-15.783-7.678,5.545-16.424,5.332-23.249-7.039-12.158-11.944-14.718-21.116-13.011-23.676-21.969a30.827,30.827,0,0,1,0-16.637,13.66,13.66,0,0,0-8.318,11.091c-1.067,8.532.285,16.423,4.479,22.61s14.93,10.664,11.731,17.276-18.13-10.238-18.13-10.238,3.626,23.463,0,27.728-16.424-2.559-17.917-13.224,6.186-10.878,5.546-17.063-11.518-13.651-15.571-21.33,0-18.983,0-18.983S96.7,21.41,96.489,27.382s7.052,16.082,7.892,21.329,1.493,19.836-5.546,21.543S87.744,62.575,88.17,55.75c0,0-6.4,1.639-7.892,9.778S75.8,85.184,63.215,80.492,49.8,66.923,52.977,61.722s8.958-12.584,7.892-21.969S49.543,26.38,43.165,19.917,39.753,4.825,41.459,0a13.392,13.392,0,0,0-7.964,12.03c-.339,9.135,13.7,20.3,13.871,26.559s-7.586,12.139-15.9,17.424c-27.028,17.178-34.2,49.349-30.6,62.85H506.011V65.528S498.851,42.962,490.156,37.336Z"/></g></g></svg>