<svg xmlns="http://www.w3.org/2000/svg" xmlns:xlink="http://www.w3.org/1999/xlink" width="378.13" height="237.817" viewBox="0 0 378.13 237.817"><defs><style>.cls-1{fill:#fff;}.cls-2{fill:url(#linear-gradient);}.cls-3{fill:#191919;}</style><linearGradient id="linear-gradient" x1="3.703" y1="164.653" x2="368.919" y2="164.653" gradientUnits="userSpaceOnUse"><stop offset="0" stop-color="#ff7f2c"/><stop offset="0.096" stop-color="#ff754c"/><stop offset="0.245" stop-color="#ff6878"/><stop offset="0.396" stop-color="#ff5d9c"/><stop offset="0.546" stop-color="#ff55b8"/><stop offset="0.697" stop-color="#ff4fcc"/><stop offset="0.848" stop-color="#ff4bd8"/><stop offset="1" stop-color="#ff4adc"/></linearGradient></defs><g id="Layer_2" data-name="Layer 2"><g id="Layer_1-2" data-name="Layer 1"><path d="M35.442,84.955l3.352-53.4.231-3.583h-.693L26.311,84.955H14.752L32.783,0H48.041l-.925,38.837-.346,4.508H47l1.5-4.508L64.223,0H79.48L61.449,84.955H49.891l12.02-56.983h-.693l-1.156,3.583-19.3,53.4Z"/><path d="M67.23,84.955,98.092,0h15.257l-5.2,84.955H96.011l1.271-17.338H85.262l-5.9,17.338Zm33.289-57.33.115-2.2H99.94l-.808,2.2L89.885,54.44h8.553Z"/><path d="M131.959,0h12.483c5.433,0,10.519,1.271,13.87,5.316s4.855,10.4,2.66,20.113-6.243,15.951-11.212,20a25.241,25.241,0,0,1-16.183,5.548l-7.166,33.982H113.928Zm4.277,38.259c3.815,0,6.473-.694,8.206-2.658,1.85-1.85,2.775-4.971,3.815-9.71s1.387-7.975.463-10.171c-.925-1.965-3.238-3.006-7.051-3.006Z"/><path d="M151.147,84.955,182.009,0h15.257l-5.2,84.955H179.928L181.2,67.617h-12.02l-5.9,17.338Zm33.289-57.33.115-2.2h-.694l-.808,2.2L173.8,54.44h8.553Z"/><path d="M254.627,84.955,272.658,0h9.825c11.559,0,17.107,2.312,19.3,8.784,1.85,6.473.115,16.991-3.468,33.751-3.583,16.645-6.241,27.163-10.865,33.636-4.738,6.473-11.442,8.784-23,8.784Zm15.026-12.483c4.277,0,6.82-.462,9.016-4.623,1.965-3.815,3.583-10.634,4.739-16.183.578-2.658,1.155-5.778,1.965-9.246.693-3.468,1.387-6.589,1.965-9.362,1.156-5.433,2.543-11.906,2.081-16.067-.348-4.046-2.659-4.508-6.936-4.508Z"/><path d="M315.657,0h28.55l-2.773,12.83H325.367l-4.739,22.308h11.559L329.3,48.777H317.738l-4.97,23.348h16.066l-2.658,12.83h-28.55Z"/><path d="M40.76,236.423l5.055-80.534.349-5.405H45.118L26.989,236.423H9.558L36.751,108.3h23.01l-1.4,58.57-.522,6.8h.347l2.267-6.8L84.165,108.3h23.01L79.981,236.423H62.55l18.129-85.939H79.633l-1.743,5.405L48.779,236.423Z"/><path d="M121.116,108.3h43.056l-4.184,19.348H135.759l-7.148,33.644h17.432l-4.357,20.568H124.254l-7.5,35.213h24.23l-4.009,19.349H93.923Z"/><path d="M147.436,236.423,174.629,108.3h14.816c17.432,0,25.8,3.486,29.112,13.248,2.789,9.762.173,25.624-5.23,50.9-5.4,25.1-9.413,40.964-16.386,50.726-7.146,9.762-17.257,13.248-34.689,13.248ZM170.1,217.6c6.45,0,10.284-.7,13.6-6.973,2.963-5.753,5.405-16.037,7.147-24.4.872-4.009,1.744-8.716,2.964-13.946,1.046-5.229,2.092-9.936,2.964-14.12,1.742-8.192,3.834-17.954,3.136-24.229-.522-6.1-4.008-6.8-10.459-6.8Z"/><path d="M239.471,108.3H258.3L231.1,236.423H212.277Z"/><path d="M299.607,210.1a48.319,48.319,0,0,1-6.1,13.945,37.9,37.9,0,0,1-9.588,9.412c-4.184,2.964-9.238,4.358-15.34,4.358s-10.633-1.394-13.77-4.358a16.511,16.511,0,0,1-5.23-9.412c-1.221-4.01-1.221-8.542-.174-13.945l16.037-75.48a42.267,42.267,0,0,1,5.926-13.77c2.615-3.487,5.4-6.973,9.414-9.588a28.105,28.105,0,0,1,15.514-4.358c6.275,0,10.633,1.742,13.6,4.358a17.248,17.248,0,0,1,5.4,9.588c1.221,3.834,1.221,8.367.35,13.77Zm-2.789-75.48c.7-3.486.348-6.1-.872-8.018a4.323,4.323,0,0,0-3.486-1.395c-3.312,0-5.4,2.44-6.624,4.707a18.616,18.616,0,0,0-1.568,4.706L268.23,210.1c-.872,3.311-.523,6.1.872,8.017a3.952,3.952,0,0,0,3.312,1.4c3.312,0,5.4-2.092,6.623-4.706a22.639,22.639,0,0,0,1.744-4.706Z"/><path d="M357.824,142.641c.872-4.184,1.744-8.891,1.221-12.551-.524-3.486-1.918-5.927-4.881-5.927-4.881.175-7.5,5.23-9.064,12.726-.871,4.357-.174,8.889,1.743,13.77s4.183,9.937,6.8,15.34a131.751,131.751,0,0,1,8.019,19.523c1.917,6.451,2.789,13.074,1.22,20.046-1.917,8.542-4.706,16.387-10.11,22.488s-12.377,9.761-22.836,9.761c-12.028,0-17.955-4.532-20.221-11.5-2.614-6.972-1.22-16.037.7-25.8l18.826-1.743c-1.219,5.4-2.091,10.807-1.568,14.817.523,4.183,1.918,6.973,5.927,6.973,5.578,0,8.716-5.928,10.634-14.121.871-4.183,0-9.064-1.918-14.12-.524-1.219-1.046-2.614-1.569-3.834s-1.047-2.615-1.569-3.836c-1.22-2.614-2.614-5.4-4.009-8.367s-2.789-5.926-4.184-9.238a59.659,59.659,0,0,1-5.055-19.872,29.6,29.6,0,0,1,.7-10.284c1.395-6.973,4.532-14.469,9.937-20.221a28.429,28.429,0,0,1,20.918-9.762c11.678-.175,17.082,4.532,19.348,11.33,2.092,6.973,1.4,15.514-.175,22.661Z"/><path class="cls-1" d="M73.49,230.217h-20.5L68.229,158l-26.1,72.216H31.458L36.1,156.272,20.5,230.217H0L27.83,99.094H53.591l-1.366,57.383L75.448,99.094H101.32Zm-16.8-3H71.061L97.617,102.094H77.47L54.143,159.727l-2.576,7.736h-3.05l.648-8.414,1.354-56.955H30.26L3.7,227.217H18.066L36.2,141.279h3.863l-.452,7-4.954,78.938H40.02l28.753-79.544,2.061-6.394h3.988Z"/><path class="cls-1" d="M130.5,230.217H84.365L112.2,99.094h46.131l-4.832,22.349H129.268l-6.51,30.643h17.431l-4.994,23.57H117.762l-6.856,32.211h24.219Zm-42.427-3h39.984l3.387-16.35H107.2l8.133-38.211h17.431l3.723-17.57H119.054l7.784-36.643h24.235l3.535-16.349H114.625Z"/><path class="cls-1" d="M154.547,230.217H137.878l27.83-131.123H181.74c18.489,0,27.049,4,30.531,14.266,2.842,9.942.482,25.2-5.183,51.7-5.053,23.469-9.2,40.884-16.632,51.285C183.142,226.33,173.077,230.217,154.547,230.217Zm-12.966-3h12.966c17.434,0,26.821-3.542,33.478-12.634,7.083-9.917,11.154-27.045,16.13-50.156,5.56-26.008,7.9-40.909,5.253-50.173-3-8.846-10.507-12.16-27.668-12.16h-13.6Zm20.81-15.826h-1.855l19.991-93.471h1.213c6.156,0,11.3.615,11.954,8.171.715,6.436-1.328,16.036-3.132,24.506l-.034.165c-.314,1.506-.652,3.087-1,4.735-.622,2.909-1.289,6.03-1.956,9.365-.775,3.326-1.416,6.464-1.981,9.233-.34,1.669-.664,3.251-.986,4.737-1.6,7.667-4.095,18.592-7.28,24.773C173.506,210.833,168.727,211.391,162.391,211.391Zm20.56-90.46-18.7,87.433c4.946-.159,7.786-1.175,10.41-6.146,2.258-4.384,4.552-12.241,7.006-24.01.322-1.488.643-3.058.981-4.713.569-2.789,1.214-5.949,1.989-9.267.659-3.3,1.329-6.437,1.953-9.358q.526-2.464,1-4.726l.036-.171c1.669-7.84,3.746-17.6,3.08-23.588C190.33,121.976,188.485,121.034,182.951,120.931Z"/><path class="cls-1" d="M224.612,230.217H202.72L230.55,99.094h21.892Zm-18.189-3h15.76l26.556-125.123h-15.76Z"/><path class="cls-1" d="M260.873,231.611c-6.563,0-11.4-1.559-14.8-4.766a17.931,17.931,0,0,1-5.656-10.139c-1.251-4.161-1.312-8.8-.191-14.6L256.267,126.6a43.782,43.782,0,0,1,6.147-14.292c2.69-3.589,5.621-7.259,9.841-10.011a29.764,29.764,0,0,1,16.334-4.6c6.12,0,11.029,1.593,14.589,4.734a18.827,18.827,0,0,1,5.866,10.337c1.214,3.873,1.332,8.447.374,14.385L293.35,202.781a49.657,49.657,0,0,1-6.294,14.378,39.756,39.756,0,0,1-10.023,9.851C272.678,230.1,267.376,231.611,260.873,231.611ZM288.589,100.7a26.775,26.775,0,0,0-14.695,4.115c-3.813,2.487-6.448,5.786-9.032,9.23a40.739,40.739,0,0,0-5.67,13.225l-16.027,75.437c-1.025,5.3-.982,9.5.142,13.2l.036.143a15.058,15.058,0,0,0,4.751,8.583c2.851,2.691,7.019,3.982,12.779,3.982,5.861,0,10.6-1.335,14.473-4.081a36.917,36.917,0,0,0,9.254-9.09,46.634,46.634,0,0,0,5.841-13.4L306.47,126.6c.874-5.424.78-9.58-.31-13l-.041-.161a15.82,15.82,0,0,0-4.926-8.755C298.2,102.039,293.957,100.7,288.589,100.7Zm-23.882,112.61a5.43,5.43,0,0,1-4.482-1.957c-1.724-2.369-2.118-5.665-1.152-9.339l16.02-75.409a20.264,20.264,0,0,1,1.695-5.066c1.957-3.635,4.7-5.535,7.966-5.535a5.777,5.777,0,0,1,4.658,1.958l.093.131c1.465,2.3,1.828,5.368,1.077,9.118l0,.018-16.037,75.478a24.272,24.272,0,0,1-1.868,5.065C271.014,211.329,268.178,213.309,264.707,213.309ZM284.754,119c-2.12,0-3.9,1.318-5.3,3.917a17.279,17.279,0,0,0-1.42,4.291l-16.04,75.495c-.75,2.856-.524,5.256.618,6.826a2.45,2.45,0,0,0,2.1.777c2.3,0,4.076-1.292,5.266-3.842a21.4,21.4,0,0,0,1.646-4.436l16.023-75.418c.582-2.916.374-5.215-.62-6.834A3.011,3.011,0,0,0,284.754,119Z"/><path class="cls-1" d="M322.229,231.611c-11.661,0-18.944-4.219-21.648-12.541-2.765-7.369-1.27-16.767.652-26.551l.217-1.1,22-2.036L323,191.4c-.928,4.107-2.1,10.056-1.546,14.292.59,4.72,2.136,5.667,4.44,5.667,4.131,0,7.132-4.24,9.172-12.961.742-3.562.119-8.03-1.859-13.246-.241-.558-.5-1.218-.769-1.878s-.517-1.294-.776-1.9-.529-1.276-.793-1.937-.517-1.293-.776-1.9c-.607-1.3-1.279-2.687-1.974-4.121-.658-1.359-1.336-2.759-2.014-4.2-1.378-2.928-2.8-5.956-4.209-9.3a60.73,60.73,0,0,1-5.163-20.278,31.272,31.272,0,0,1,.717-10.755,43.2,43.2,0,0,1,10.313-20.954A29.939,29.939,0,0,1,349.74,97.7c.22,0,.44,0,.657,0,10.784,0,17.374,4.048,20.145,12.362,2.523,8.406,1,18.3-.131,23.457l-.236,1.071-21.938,2.031.414-1.986c.838-4.026,1.692-8.609,1.2-12.033-.695-4.639-2.657-4.639-3.4-4.639-2.211.08-5.467,1.363-7.6,11.532-.772,3.859-.226,8.087,1.671,12.915,1.8,4.583,4.009,9.567,6.753,15.236a133.574,133.574,0,0,1,8.094,19.714c2.313,7.775,2.709,14.385,1.257,20.838-2.361,10.517-5.584,17.658-10.45,23.152C339.983,228.349,332.371,231.611,322.229,231.611ZM303.962,194.2c-1.728,8.945-2.962,17.45-.55,23.883,2.311,7.108,8.459,10.531,18.817,10.531,9.22,0,16.119-2.941,21.711-9.256,4.513-5.095,7.526-11.825,9.77-21.821,1.335-5.932.955-12.061-1.195-19.29a130.363,130.363,0,0,0-7.914-19.265c-2.792-5.77-5.031-10.823-6.86-15.477-2.115-5.381-2.709-10.161-1.818-14.614,1.229-5.871,3.649-13.687,10.482-13.93h0c2.464,0,5.523,1.251,6.415,7.2.474,3.32-.1,7.341-.833,11.094l15.717-1.455c1.025-5.08,2.131-13.656-.023-20.839-2.379-7.134-8.072-10.38-17.891-10.262a27.017,27.017,0,0,0-19.829,9.27,40.179,40.179,0,0,0-9.576,19.507,28.54,28.54,0,0,0-.687,9.756l.014.117a57.834,57.834,0,0,0,4.929,19.378c1.4,3.313,2.807,6.312,4.171,9.212.673,1.43,1.347,2.82,2,4.168.7,1.449,1.38,2.849,2.012,4.2.287.668.556,1.338.823,2.008.255.637.51,1.275.765,1.869.268.625.536,1.3.8,1.966.256.638.511,1.276.765,1.871,2.208,5.818,2.875,10.85,2.007,15.015-2.413,10.316-6.369,15.314-12.1,15.314s-6.971-4.73-7.415-8.288c-.42-3.216-.052-7.485,1.157-13.319Z"/><path class="cls-2" d="M97.617,102.094,71.061,227.217H56.693l18.129-85.938H70.835l-2.062,6.394L40.02,227.217H34.651l4.956-78.938.451-7H36.2L18.067,227.217H3.7L30.26,102.094H50.519l-1.354,56.955-.648,8.414h3.05l2.576-7.736L77.47,102.094Zm17.008,0L88.068,227.217h39.985l3.387-16.35H107.2l8.134-38.211h17.43l3.722-17.57H119.054l7.784-36.643h24.235l3.535-16.349Zm73.4,112.489c-6.657,9.092-16.043,12.634-33.48,12.634H141.58l26.557-125.123h13.6c17.161,0,24.666,3.314,27.669,12.16,2.647,9.261.307,24.163-5.254,50.173C199.179,187.537,195.109,204.663,188.025,214.583Zm-.458-49.721c.671-3.354,1.342-6.494,1.967-9.418q.524-2.445.993-4.683l.041-.192c1.8-8.46,3.838-18.048,3.124-24.478-.647-7.556-5.8-8.171-11.954-8.171h-1.213l-19.99,93.471h1.855c6.336,0,11.115-.558,14.929-7.787,3.192-6.193,5.685-17.111,7.28-24.772.325-1.5.65-3.087.993-4.766C186.156,171.306,186.8,168.176,187.567,164.862Zm45.413-62.768L206.423,227.217h15.76l26.556-125.123ZM275.346,224.53c-3.878,2.746-8.613,4.081-14.473,4.081-5.761,0-9.929-1.291-12.779-3.982a15.07,15.07,0,0,1-4.751-8.583l-.036-.143c-1.123-3.693-1.167-7.895-.143-13.2l16.028-75.437a40.739,40.739,0,0,1,5.67-13.225c2.583-3.444,5.218-6.743,9.032-9.23a26.78,26.78,0,0,1,14.695-4.115c5.368,0,9.608,1.34,12.6,3.984a15.814,15.814,0,0,1,4.926,8.755l.041.161c1.09,3.425,1.184,7.581.311,13l-16.029,75.441a46.69,46.69,0,0,1-5.842,13.4A36.917,36.917,0,0,1,275.346,224.53Zm15.232-97.3,0-.018c.75-3.75.388-6.818-1.076-9.118l-.094-.131A5.777,5.777,0,0,0,284.754,116c-3.262,0-6.01,1.9-7.966,5.535a20.263,20.263,0,0,0-1.694,5.066l-16.021,75.409c-.966,3.674-.572,6.97,1.152,9.339a5.432,5.432,0,0,0,4.482,1.957c3.472,0,6.307-1.98,7.967-5.538a24.269,24.269,0,0,0,1.867-5.065ZM349.792,100.7a27.017,27.017,0,0,0-19.829,9.27,40.188,40.188,0,0,0-9.576,19.507,28.54,28.54,0,0,0-.687,9.756l.014.117a57.834,57.834,0,0,0,4.929,19.378c1.4,3.313,2.806,6.312,4.172,9.212.672,1.43,1.345,2.82,2,4.168.7,1.449,1.379,2.849,2.012,4.2.287.668.556,1.338.824,2.008.254.637.509,1.275.764,1.869.268.625.536,1.3.805,1.966.255.638.51,1.276.764,1.871,2.209,5.818,2.875,10.85,2.007,15.015-2.413,10.316-6.369,15.314-12.1,15.314s-6.971-4.73-7.415-8.288c-.42-3.216-.052-7.485,1.158-13.319l-15.67,1.45c-1.729,8.945-2.962,17.45-.55,23.883,2.312,7.108,8.459,10.531,18.817,10.531,9.22,0,16.12-2.941,21.712-9.256,4.511-5.095,7.525-11.825,9.769-21.821,1.335-5.932.955-12.061-1.194-19.29a130.58,130.58,0,0,0-7.914-19.265c-2.793-5.77-5.033-10.823-6.862-15.477-2.114-5.381-2.709-10.161-1.817-14.614,1.228-5.871,3.649-13.687,10.481-13.93h0c2.464,0,5.524,1.251,6.415,7.2.474,3.32-.1,7.341-.833,11.094l15.716-1.455c1.027-5.08,2.132-13.656-.022-20.839C365.3,103.827,359.607,100.56,349.792,100.7Z"/><path class="cls-3" d="M237.709,42.843a42.656,42.656,0,0,0,2.86-4.039,29.98,29.98,0,0,0,4.039-9.752,29.98,29.98,0,0,0-9.752,4.039,42.372,42.372,0,0,0-4.048,2.868,42.782,42.782,0,0,0-4.04-2.858,30.289,30.289,0,0,0-9.742-4.049,30.289,30.289,0,0,0,4.049,9.742,42.676,42.676,0,0,0,2.866,4.049,42.676,42.676,0,0,0-2.866,4.049,30.289,30.289,0,0,0-4.049,9.742,30.289,30.289,0,0,0,9.742-4.049,42.782,42.782,0,0,0,4.04-2.858,42.551,42.551,0,0,0,4.048,2.868,29.98,29.98,0,0,0,9.752,4.039,29.98,29.98,0,0,0-4.039-9.752A42.656,42.656,0,0,0,237.709,42.843Z"/><path class="cls-3" d="M371.228,42.843a42.475,42.475,0,0,0,2.86-4.039,29.959,29.959,0,0,0,4.039-9.752,29.98,29.98,0,0,0-9.752,4.039,42.5,42.5,0,0,0-4.048,2.868,42.782,42.782,0,0,0-4.04-2.858,30.28,30.28,0,0,0-9.742-4.049,30.289,30.289,0,0,0,4.049,9.742,42.858,42.858,0,0,0,2.866,4.049,42.858,42.858,0,0,0-2.866,4.049,30.289,30.289,0,0,0-4.049,9.742,30.28,30.28,0,0,0,9.742-4.049,42.782,42.782,0,0,0,4.04-2.858,42.679,42.679,0,0,0,4.048,2.868,29.98,29.98,0,0,0,9.752,4.039,29.959,29.959,0,0,0-4.039-9.752A42.475,42.475,0,0,0,371.228,42.843Z"/></g></g></svg>