<svg xmlns="http://www.w3.org/2000/svg" width="19" height="19" viewBox="0 0 19 19">
  <defs>
    <style>
      .cls-1 {
        fill: #1e1e1e;
      }
    </style>
  </defs>
  <g id="Layer_2" data-name="Layer 2">
    <g id="Layer_1-2" data-name="Layer 1">
      <path class="cls-1" d="M13.9,19H5.1A5.1,5.1,0,0,1,0,13.9V5.1A5.1,5.1,0,0,1,5.1,0h8.8A5.1,5.1,0,0,1,19,5.1v8.8A5.1,5.1,0,0,1,13.9,19ZM5.1,1.5A3.6,3.6,0,0,0,1.5,5.1v8.8a3.6,3.6,0,0,0,3.6,3.6h8.8a3.6,3.6,0,0,0,3.6-3.6V5.1a3.6,3.6,0,0,0-3.6-3.6Zm4.4,14a5,5,0,0,1-4.9-5A4.9,4.9,0,0,1,9.5,5.6a5,5,0,0,1,5,4.9A5.1,5.1,0,0,1,9.5,15.5Zm0-8.4a3.4,3.4,0,0,0-3.4,3.4A3.5,3.5,0,0,0,9.5,14,3.5,3.5,0,0,0,13,10.5,3.5,3.5,0,0,0,9.5,7.1Zm6.1-2.3a1.3,1.3,0,1,0-1.3,1.3A1.3,1.3,0,0,0,15.6,4.8Z"/>
    </g>
  </g>
</svg>
