<svg xmlns="http://www.w3.org/2000/svg" xmlns:xlink="http://www.w3.org/1999/xlink" width="337.311" height="45.059" viewBox="0 0 337.311 45.059"><defs><style>.cls-1{fill:url(#linear-gradient);}</style><linearGradient id="linear-gradient" y1="22.53" x2="337.311" y2="22.53" gradientUnits="userSpaceOnUse"><stop offset="0" stop-color="#ff7f2c"/><stop offset="0.096" stop-color="#ff754c"/><stop offset="0.245" stop-color="#ff6878"/><stop offset="0.396" stop-color="#ff5d9c"/><stop offset="0.546" stop-color="#ff55b8"/><stop offset="0.697" stop-color="#ff4fcc"/><stop offset="0.848" stop-color="#ff4bd8"/><stop offset="1" stop-color="#ff4adc"/></linearGradient></defs><g id="Layer_2" data-name="Layer 2"><g id="Layer_1-2" data-name="Layer 1"><path class="cls-1" d="M0,44.58,16.02.481h7.919l-2.7,44.1h-6.3l.661-9H9.36l-3.06,9ZM17.279,14.821l.061-1.14h-.361l-.419,1.14-4.8,13.92H16.2Zm23.34,1.5,1.44-6.779a3.679,3.679,0,0,0-.3-2.761,1.487,1.487,0,0,0-1.2-.48,2.671,2.671,0,0,0-2.28,1.621,6.4,6.4,0,0,0-.54,1.62L32.1,36.06a3.233,3.233,0,0,0,.3,2.76,1.362,1.362,0,0,0,1.14.479,2.479,2.479,0,0,0,2.28-1.619,7.81,7.81,0,0,0,.6-1.62L38.1,28.081H35.52l1.139-5.46h9.06L41.1,44.58h-3.84l-.36-2.1a8.109,8.109,0,0,1-5.58,2.579A5.513,5.513,0,0,1,27,43.56a5.687,5.687,0,0,1-1.561-3.24,10.4,10.4,0,0,1,.3-4.8L31.26,9.542A14.552,14.552,0,0,1,33.3,4.8a12.957,12.957,0,0,1,3.239-3.3A9.669,9.669,0,0,1,41.879,0a6.807,6.807,0,0,1,4.68,1.5,5.931,5.931,0,0,1,1.86,3.3,10.292,10.292,0,0,1,.12,4.741L47.1,16.321Zm16.8,28.259.54-18.6h-1.74l-3.9,18.6H45.84L55.2.481h6.48c7.739,0,10.079,4.32,8.34,12.72-.96,4.38-2.941,8.34-5.76,10.019L63.9,44.58Zm.12-24.6a4.884,4.884,0,0,0,3.239-.96c1.141-.9,2.281-2.46,2.941-5.58s.24-4.74-.54-5.64a3.556,3.556,0,0,0-2.88-.9ZM65.7,44.58,81.718.481h7.92l-2.7,44.1h-6.3l.66-9H75.059L72,44.58Zm17.28-29.759.06-1.14h-.36l-.42,1.14-4.8,13.92H81.9Zm6.96,29.759L99.3.481h5.1c6,0,8.88,1.2,10.02,4.561.96,3.359.06,8.819-1.8,17.518-1.86,8.64-3.24,14.1-5.639,17.46-2.46,3.36-5.941,4.56-11.94,4.56Zm7.8-6.48c2.221,0,3.54-.24,4.681-2.4a38.9,38.9,0,0,0,2.459-8.4c.3-1.379.6-3,1.02-4.8.361-1.8.72-3.42,1.02-4.86.6-2.82,1.32-6.179,1.08-8.34-.18-2.1-1.38-2.339-3.6-2.339ZM121.617.481h14.82L135,7.141h-8.34L124.2,18.72h6l-1.5,7.08h-6l-2.58,12.12h8.34l-1.38,6.66H112.258Zm29.1,28.98-1.261,6.059a16.576,16.576,0,0,1-2.1,4.8,13.03,13.03,0,0,1-3.3,3.24,8.844,8.844,0,0,1-5.28,1.5,6.616,6.616,0,0,1-4.74-1.5,5.7,5.7,0,0,1-1.8-3.24,9.869,9.869,0,0,1-.06-4.8L137.7,9.542a14.552,14.552,0,0,1,2.04-4.741,12.978,12.978,0,0,1,3.24-3.3A9.663,9.663,0,0,1,148.316,0,6.8,6.8,0,0,1,153,1.5a5.925,5.925,0,0,1,1.86,3.3,10.3,10.3,0,0,1,.121,4.741L153.656,15.6H147.6l1.319-6.059a3.215,3.215,0,0,0-.42-2.761,1.731,1.731,0,0,0-1.38-.48,2.846,2.846,0,0,0-2.34,1.621,11.749,11.749,0,0,0-.6,1.62l-5.52,25.978a3.687,3.687,0,0,0,.42,2.76,1.359,1.359,0,0,0,1.14.48,2.717,2.717,0,0,0,2.58-1.62,7.76,7.76,0,0,0,.6-1.62l1.26-6.059ZM160.8.481h6.479l-9.359,44.1h-6.479Zm12.659,44.1L175.2,16.861l.12-1.86h-.359l-6.24,29.579h-6l9.359-44.1H180l-.48,20.159-.18,2.341h.12l.779-2.341L188.4.481h7.918l-9.359,44.1h-6L187.2,15h-.36l-.6,1.86L176.216,44.58ZM201.115.481h6.48l-9.36,44.1h-6.479Zm11.28,0h14.819l-1.441,6.66h-8.339L214.975,18.72h6l-1.5,7.08h-6L210.9,37.92h8.339l-1.38,6.66H203.035ZM233.154,21.6l-.12-2.039h-.36L227.4,44.58h-5.94l9.359-44.1h5.76l1.38,22.98.12,2.04h.36L243.773.481h5.941l-9.36,44.1h-5.76Zm17.64-14.459,1.439-6.66h18.72l-1.44,6.66h-6.12L255.474,44.58h-6.48l7.919-37.439Zm32.1,28.379a16.63,16.63,0,0,1-2.1,4.8,13.035,13.035,0,0,1-3.3,3.24,8.841,8.841,0,0,1-5.279,1.5,6.614,6.614,0,0,1-4.74-1.5,5.686,5.686,0,0,1-1.8-3.24,9.881,9.881,0,0,1-.061-4.8l5.521-25.978a14.552,14.552,0,0,1,2.04-4.741,12.957,12.957,0,0,1,3.239-3.3,9.669,9.669,0,0,1,5.34-1.5,6.807,6.807,0,0,1,4.68,1.5,5.931,5.931,0,0,1,1.86,3.3,10.292,10.292,0,0,1,.12,4.741Zm-.96-25.978a3.679,3.679,0,0,0-.3-2.761,1.488,1.488,0,0,0-1.2-.48,2.671,2.671,0,0,0-2.281,1.621,6.4,6.4,0,0,0-.54,1.62L272.094,35.52a3.222,3.222,0,0,0,.3,2.76,1.359,1.359,0,0,0,1.139.48,2.479,2.479,0,0,0,2.28-1.62,7.81,7.81,0,0,0,.6-1.62Zm21,2.759a13.766,13.766,0,0,0,.42-4.32c-.181-1.2-.661-2.04-1.681-2.04-1.68.061-2.579,1.8-3.119,4.38a8.34,8.34,0,0,0,.6,4.74c.66,1.68,1.441,3.42,2.34,5.279a45.234,45.234,0,0,1,2.76,6.72,13.406,13.406,0,0,1,.42,6.9,16.924,16.924,0,0,1-3.48,7.739,9.766,9.766,0,0,1-7.859,3.359c-4.14,0-6.18-1.559-6.96-3.959-.9-2.4-.42-5.52.24-8.88l6.48-.6a16.057,16.057,0,0,0-.54,5.1c.179,1.44.66,2.4,2.04,2.4,1.92,0,3-2.04,3.66-4.86a8.938,8.938,0,0,0-.66-4.86c-.181-.42-.361-.9-.54-1.319s-.361-.9-.54-1.321c-.42-.9-.9-1.859-1.38-2.88s-.96-2.04-1.441-3.179a20.562,20.562,0,0,1-1.739-6.84,10.186,10.186,0,0,1,.239-3.54,14.361,14.361,0,0,1,3.42-6.96A9.784,9.784,0,0,1,302.812,0c4.02-.06,5.88,1.559,6.66,3.9a16.338,16.338,0,0,1-.06,7.8ZM313.371,44.58l16.02-44.1h7.92l-2.7,44.1h-6.3l.66-9h-6.24l-3.06,9ZM330.65,14.821l.061-1.14h-.36l-.42,1.14-4.8,13.92h4.439Z"/></g></g></svg>