<svg xmlns="http://www.w3.org/2000/svg" width="151.722" height="33.195" viewBox="0 0 151.722 33.195"><defs><style>.cls-1{fill:#fff;}</style></defs><g id="Layer_2" data-name="Layer 2"><g id="Layer_1-2" data-name="Layer 1"><path class="cls-1" d="M75.844,0A16.381,16.381,0,0,1,92.462,16.63,16.424,16.424,0,0,1,75.858,33.2,16.6,16.6,0,0,1,75.844,0ZM89.453,16.625A13.46,13.46,0,0,0,75.938,3.012a13.65,13.65,0,0,0-13.659,13.53A13.715,13.715,0,0,0,75.851,30.184C82.647,30.256,89.63,24.515,89.453,16.625Z"/><path class="cls-1" d="M68.392,19.278h4.059a1.236,1.236,0,0,1,.118.284,2.815,2.815,0,0,0,2.456,2.583c1.62.312,3.086.043,3.969-1.439a7.736,7.736,0,0,0,.217-7.758c-.7-1.417-2.24-1.887-4.091-1.515a2.96,2.96,0,0,0-2.508,2.777l.99.082-3.14,3.016-3.03-3.039h1c.069-.249.126-.431.17-.616a7.193,7.193,0,0,1,8.662-5.7,8.175,8.175,0,0,1,7,7.728,9.5,9.5,0,0,1-2,7.138,8.513,8.513,0,0,1-9.837,2.225A6.85,6.85,0,0,1,68.392,19.278Z"/><path class="cls-1" d="M135.146,0a16.6,16.6,0,1,1-16.614,16.45A16.589,16.589,0,0,1,135.146,0Zm0,30.335A13.74,13.74,0,1,0,121.387,16.6,13.769,13.769,0,0,0,135.145,30.339Z"/><path class="cls-1" d="M137.653,27.3h-5.008V19.4l-1.522-.111c0-1.008,0-2,0-3,0-1.145-.012-2.291,0-3.435.017-1.11.37-1.461,1.456-1.466,1.759-.008,3.519,0,5.278,0,.736,0,1.222.354,1.234,1.075.04,2.256.015,4.512.015,6.837l-1.458.082Z"/><path class="cls-1" d="M132.745,8.25a2.382,2.382,0,1,1,2.362,2.427A2.364,2.364,0,0,1,132.745,8.25Z"/><path class="cls-1" d="M16.654,0A16.377,16.377,0,0,1,33.2,16.685,16.522,16.522,0,0,1,16.526,33.194,16.7,16.7,0,0,1,0,16.559C-.035,8.134,7.03-.2,16.654,0ZM30.194,16.68A13.539,13.539,0,0,0,16.743,3C8.422,2.868,2.965,10.18,3,16.54A13.792,13.792,0,0,0,16.538,30.149C23.148,30.189,30.286,24.965,30.194,16.68Z"/><path class="cls-1" d="M16.4,13.862,14.326,14.94A7.272,7.272,0,0,0,13.2,13.929a1.834,1.834,0,0,0-2.736,1,8.753,8.753,0,0,0-.076,3.031,1.71,1.71,0,0,0,1.572,1.513,2.064,2.064,0,0,0,2.235-.957c.071-.114.148-.225.258-.39l1.932.981A4.731,4.731,0,0,1,11,21.655a4.521,4.521,0,0,1-3.825-4.6c-.148-2.765,1.1-4.778,3.363-5.424A5,5,0,0,1,16.4,13.862Z"/><path class="cls-1" d="M24.042,18.132l1.952.991a4.906,4.906,0,0,1-5.688,2.49c-2.178-.477-3.515-2.306-3.542-4.846-.029-2.68,1.277-4.612,3.493-5.167a4.845,4.845,0,0,1,5.7,2.266L23.93,14.942A7.256,7.256,0,0,0,22.8,13.929a1.872,1.872,0,0,0-2.792,1.05,7.827,7.827,0,0,0-.121,2.8,1.854,1.854,0,0,0,1.607,1.7C22.58,19.656,23.19,19.347,24.042,18.132Z"/></g></g></svg>