<svg xmlns="http://www.w3.org/2000/svg" xmlns:xlink="http://www.w3.org/1999/xlink" width="36.245" height="42.842" viewBox="0 0 36.245 42.842"><defs><style>.cls-1{fill:url(#linear-gradient);}.cls-2{fill:url(#linear-gradient-2);}.cls-3{fill:url(#linear-gradient-3);}</style><linearGradient id="linear-gradient" x1="23.28" y1="30.203" x2="35.846" y2="27.04" gradientUnits="userSpaceOnUse"><stop offset="0" stop-color="#ff7f2c"/><stop offset="0.096" stop-color="#ff754c"/><stop offset="0.245" stop-color="#ff6878"/><stop offset="0.396" stop-color="#ff5d9c"/><stop offset="0.546" stop-color="#ff55b8"/><stop offset="0.697" stop-color="#ff4fcc"/><stop offset="0.848" stop-color="#ff4bd8"/><stop offset="1" stop-color="#ff4adc"/></linearGradient><linearGradient id="linear-gradient-2" x1="0.274" y1="39.334" x2="8.92" y2="37.158" xlink:href="#linear-gradient"/><linearGradient id="linear-gradient-3" x1="2.506" y1="10.424" x2="18.36" y2="6.434" xlink:href="#linear-gradient"/></defs><g id="Layer_2" data-name="Layer 2"><g id="Layer_1-2" data-name="Layer 1"><polygon class="cls-1" points="29.563 21.94 27.859 26.917 22.882 28.621 27.859 30.326 29.563 35.303 31.267 30.326 36.245 28.621 31.267 26.917 29.563 21.94"/><polygon class="cls-2" points="4.597 33.649 3.424 37.073 0 38.246 3.424 39.418 4.597 42.842 5.769 39.418 9.194 38.246 5.769 37.073 4.597 33.649"/><polygon class="cls-3" points="10.433 0 8.283 6.279 2.004 8.429 8.283 10.579 10.433 16.858 12.583 10.579 18.862 8.429 12.583 6.279 10.433 0"/></g></g></svg>