<svg xmlns="http://www.w3.org/2000/svg" xmlns:xlink="http://www.w3.org/1999/xlink" width="106.856" height="44.099" viewBox="0 0 106.856 44.099"><defs><style>.cls-1{fill:url(#linear-gradient);}</style><linearGradient id="linear-gradient" y1="22.049" x2="106.856" y2="22.049" gradientUnits="userSpaceOnUse"><stop offset="0" stop-color="#ff7f2c"/><stop offset="0.096" stop-color="#ff754c"/><stop offset="0.245" stop-color="#ff6878"/><stop offset="0.396" stop-color="#ff5d9c"/><stop offset="0.546" stop-color="#ff55b8"/><stop offset="0.697" stop-color="#ff4fcc"/><stop offset="0.848" stop-color="#ff4bd8"/><stop offset="1" stop-color="#ff4adc"/></linearGradient></defs><g id="Layer_2" data-name="Layer 2"><g id="Layer_1-2" data-name="Layer 1"><path class="cls-1" d="M9.359,0h6.48c2.82,0,5.461.66,7.2,2.761s2.521,5.4,1.38,10.439-3.24,8.279-5.82,10.379a13.092,13.092,0,0,1-8.4,2.88L6.479,44.1H0Zm2.22,19.859c1.981,0,3.36-.359,4.26-1.38.961-.959,1.44-2.58,1.98-5.04s.72-4.139.241-5.279C17.579,7.141,16.38,6.6,14.4,6.6ZM30.479,0H45.3L43.858,6.66H35.519L33.06,18.239h6l-1.5,7.08h-6L28.979,37.438h8.34L35.938,44.1H21.12ZM51.118,44.1l.541-18.6h-1.74l-3.9,18.6h-6.48L48.9,0h6.48c7.74,0,10.08,4.32,8.34,12.72-.959,4.38-2.94,8.34-5.76,10.019L57.6,44.1Zm.121-24.6a4.892,4.892,0,0,0,3.24-.96c1.139-.9,2.28-2.46,2.94-5.58s.239-4.74-.541-5.64A3.553,3.553,0,0,0,54,6.42Zm33.3-12.84H75.6l-2.46,11.579h6l-1.38,6.66h-6l-4.08,19.2H61.2L70.558,0h15.42ZM88.618,0H95.1l-9.36,44.1H79.259ZM99.9,0h6.48l-8.1,38.1h8.579l-1.259,6H90.538Z"/></g></g></svg>