<svg xmlns="http://www.w3.org/2000/svg" width="18.3" height="15" viewBox="0 0 18.3 15">
  <defs>
    <style>
      .cls-1 {
        fill: #1e1e1e;
      }
    </style>
  </defs>
  <g id="Layer_2" data-name="Layer 2">
    <g id="Layer_1-2" data-name="Layer 1">
      <path class="cls-1" d="M17.8.4l-2,.7a.7.7,0,0,1-.6-.1A3.6,3.6,0,0,0,10.9.5,3.6,3.6,0,0,0,9,4.4v.2A10.8,10.8,0,0,1,1.2.7a3.9,3.9,0,0,0,1.1,5h0L.7,5.3A4.1,4.1,0,0,0,3.6,9.1H2a3.8,3.8,0,0,0,3.5,2.6A7.2,7.2,0,0,1,0,13.3l.3.2a11.6,11.6,0,0,0,4.8,1.4A10.1,10.1,0,0,0,11,13.6c3.6-2.1,5.3-5.3,5.5-9.5,0-.3,0-.4.2-.6a8.7,8.7,0,0,0,1.6-1.7l-1,.4-1,.2A4.8,4.8,0,0,0,17.8.4Z"/>
    </g>
  </g>
</svg>
