<svg xmlns="http://www.w3.org/2000/svg" width="18.294" height="14.953" viewBox="0 0 18.294 14.953"><defs><style>.cls-1{fill:#fff;}</style></defs><g id="Layer_2" data-name="Layer 2"><g id="Layer_1-2" data-name="Layer 1"><path class="cls-1" d="M17.783.4c-.668.24-1.319.472-1.968.711a.555.555,0,0,1-.627-.147A3.765,3.765,0,0,0,8.959,4.351a2.185,2.185,0,0,1,0,.293A10.864,10.864,0,0,1,1.192.687,3.888,3.888,0,0,0,2.311,5.716l-.055.07L.664,5.342A4.017,4.017,0,0,0,3.6,9.09H2a3.893,3.893,0,0,0,3.521,2.627A7.751,7.751,0,0,1,0,13.289c.147.1.2.134.257.167A10.529,10.529,0,0,0,5.1,14.933a10.24,10.24,0,0,0,5.862-1.285,10.714,10.714,0,0,0,5.5-9.56.67.67,0,0,1,.28-.588,6.765,6.765,0,0,0,1.556-1.677c-.367.122-.679.241-1,.327s-.655.142-.982.211A4.359,4.359,0,0,0,17.783.4Z"/></g></g></svg>