<svg xmlns="http://www.w3.org/2000/svg" xmlns:xlink="http://www.w3.org/1999/xlink" width="232.944" height="40.408" viewBox="0 0 232.944 40.408"><defs><style>.cls-1{fill:url(#linear-gradient);}</style><linearGradient id="linear-gradient" y1="20.204" x2="232.944" y2="20.204" gradientUnits="userSpaceOnUse"><stop offset="0" stop-color="#ff7f2c"/><stop offset="0.096" stop-color="#ff754c"/><stop offset="0.245" stop-color="#ff6878"/><stop offset="0.396" stop-color="#ff5d9c"/><stop offset="0.546" stop-color="#ff55b8"/><stop offset="0.697" stop-color="#ff4fcc"/><stop offset="0.848" stop-color="#ff4bd8"/><stop offset="1" stop-color="#ff4adc"/></linearGradient></defs><g id="Layer_2" data-name="Layer 2"><g id="Layer_1-2" data-name="Layer 1"><path class="cls-1" d="M47.685,6.975H52.41L40.351,40.049h-4.86l1.98-33.074H42.2L40.756,25.154l-.135,1.395h.27l.5-1.395Zm6.93,0H65.729l-1.08,5H58.4L56.55,20.654h4.5l-1.125,5.31h-4.5l-1.935,9.09h6.255L58.71,40.049H47.6ZM70.1,40.049,70.5,26.1H69.194L66.269,40.049H61.41L68.43,6.975h4.86c5.8,0,7.56,3.24,6.254,9.539-.72,3.285-2.2,6.256-4.319,7.515l-.271,16.02Zm.09-18.449a3.658,3.658,0,0,0,2.429-.721,6.74,6.74,0,0,0,2.2-4.185c.495-2.34.18-3.554-.405-4.229a2.661,2.661,0,0,0-2.159-.676Zm29.428,7.109-.944,4.545a12.485,12.485,0,0,1-1.575,3.6,9.785,9.785,0,0,1-2.475,2.429,6.626,6.626,0,0,1-3.96,1.125A4.957,4.957,0,0,1,87.1,39.283a4.268,4.268,0,0,1-1.35-2.429,7.4,7.4,0,0,1-.045-3.6L89.85,13.77a10.894,10.894,0,0,1,1.529-3.555,9.716,9.716,0,0,1,2.43-2.475,7.249,7.249,0,0,1,4-1.125,5.1,5.1,0,0,1,3.51,1.125,4.442,4.442,0,0,1,1.4,2.475,7.743,7.743,0,0,1,.09,3.555l-.991,4.544H97.273l.991-4.544a2.418,2.418,0,0,0-.315-2.071,1.3,1.3,0,0,0-1.035-.359,2.133,2.133,0,0,0-1.755,1.215,8.778,8.778,0,0,0-.45,1.215l-4.14,19.484a2.772,2.772,0,0,0,.315,2.07,1.021,1.021,0,0,0,.855.36,2.037,2.037,0,0,0,1.935-1.215,5.88,5.88,0,0,0,.45-1.215l.945-4.545Zm9.226,11.34.405-13.949h-1.306l-2.924,13.949h-4.86l7.02-33.074h4.86c5.8,0,7.56,3.24,6.254,9.539-.72,3.285-2.2,6.256-4.319,7.515l-.271,16.02Zm.09-18.449a3.658,3.658,0,0,0,2.429-.721,6.74,6.74,0,0,0,2.2-4.185c.5-2.34.18-3.554-.405-4.229A2.661,2.661,0,0,0,111,11.789Zm14.49-14.625h11.114l-1.08,5H127.2l-1.845,8.684h4.5l-1.125,5.31h-4.5l-1.934,9.09h6.254l-1.034,4.995H116.4ZM135.343,0l-4.409,4.05h-3.51L130.618,0Zm-5.129,40.049,7.019-33.074h3.826c4.5,0,6.659.9,7.514,3.42.72,2.519.045,6.615-1.35,13.139-1.4,6.48-2.43,10.574-4.23,13.1-1.845,2.519-4.455,3.42-8.954,3.42Zm5.849-4.861c1.665,0,2.656-.179,3.51-1.8a29.113,29.113,0,0,0,1.845-6.3c.226-1.035.45-2.25.766-3.6.269-1.35.54-2.565.764-3.645a23.623,23.623,0,0,0,.81-6.254c-.135-1.575-1.034-1.756-2.7-1.756ZM153.974,6.975h4.859l-7.02,33.074h-4.86Zm5.669,5,1.08-5h14.039l-1.079,5h-4.59l-5.941,28.079h-4.859l5.939-28.079Zm24.074,21.284a12.511,12.511,0,0,1-1.574,3.6,9.806,9.806,0,0,1-2.476,2.429,6.626,6.626,0,0,1-3.96,1.125,4.961,4.961,0,0,1-3.555-1.125,4.26,4.26,0,0,1-1.349-2.429,7.379,7.379,0,0,1-.045-3.6L174.9,13.77a10.919,10.919,0,0,1,1.531-3.555,9.7,9.7,0,0,1,2.429-2.475,7.252,7.252,0,0,1,4-1.125,5.1,5.1,0,0,1,3.51,1.125,4.446,4.446,0,0,1,1.395,2.475,7.716,7.716,0,0,1,.09,3.555ZM183,13.77a2.76,2.76,0,0,0-.225-2.071,1.119,1.119,0,0,0-.9-.359,2,2,0,0,0-1.71,1.215,4.832,4.832,0,0,0-.405,1.215l-4.14,19.484a2.423,2.423,0,0,0,.226,2.07,1.017,1.017,0,0,0,.854.36,1.859,1.859,0,0,0,1.71-1.215,5.822,5.822,0,0,0,.45-1.215Zm15.749,2.07a10.251,10.251,0,0,0,.315-3.24c-.134-.9-.5-1.531-1.259-1.531-1.261.046-1.936,1.351-2.34,3.285a6.246,6.246,0,0,0,.449,3.555c.5,1.26,1.08,2.566,1.755,3.96a34.04,34.04,0,0,1,2.07,5.039,10.067,10.067,0,0,1,.316,5.176,12.714,12.714,0,0,1-2.611,5.805,7.325,7.325,0,0,1-5.894,2.519c-3.106,0-4.635-1.17-5.22-2.97-.675-1.8-.315-4.139.18-6.659l4.859-.451a12.077,12.077,0,0,0-.4,3.826c.135,1.079.5,1.8,1.529,1.8,1.441,0,2.25-1.529,2.745-3.644a6.694,6.694,0,0,0-.495-3.645c-.135-.315-.269-.676-.4-.99s-.271-.675-.405-.99c-.316-.675-.675-1.395-1.036-2.161s-.719-1.529-1.08-2.384a15.4,15.4,0,0,1-1.3-5.129,7.667,7.667,0,0,1,.179-2.656,10.753,10.753,0,0,1,2.566-5.219,7.336,7.336,0,0,1,5.4-2.52c3.015-.045,4.41,1.17,5,2.924a12.253,12.253,0,0,1-.045,5.85ZM17.476,25.308a25.77,25.77,0,0,0-9.644-8.046,7.427,7.427,0,0,0-4.848-.92C1.353,16.736-.039,18.475.5,20.064a4.416,4.416,0,0,0,2.382,2.209,30.931,30.931,0,0,0,5.907,2.311,17.328,17.328,0,0,0-6.542,1.53C1.072,26.731-.07,27.816,0,29.145c.088,1.6,1.86,2.564,3.449,2.8a11.941,11.941,0,0,0,7.3-1.47,22.23,22.23,0,0,0,5.82-4.795m198.894-1.324a25.763,25.763,0,0,0,9.644,8.047,7.427,7.427,0,0,0,4.848.92c1.631-.394,3.023-2.133,2.48-3.722a4.414,4.414,0,0,0-2.382-2.21,30.993,30.993,0,0,0-5.907-2.31,17.347,17.347,0,0,0,6.542-1.53c1.179-.618,2.321-1.7,2.248-3.031-.088-1.6-1.86-2.564-3.449-2.8a11.948,11.948,0,0,0-7.3,1.469,22.27,22.27,0,0,0-5.82,4.8"/></g></g></svg>