<svg xmlns="http://www.w3.org/2000/svg" xmlns:xlink="http://www.w3.org/1999/xlink" width="197.565" height="193.935" viewBox="0 0 197.565 193.935"><defs><style>.cls-1{fill:url(#linear-gradient);}.cls-2{fill:url(#linear-gradient-2);}.cls-3{fill:url(#linear-gradient-3);}.cls-4{fill:url(#linear-gradient-4);}.cls-5{fill:url(#linear-gradient-5);}.cls-6{fill:url(#linear-gradient-6);}.cls-7{fill:url(#linear-gradient-7);}.cls-8{fill:url(#linear-gradient-8);}.cls-9{fill:url(#linear-gradient-9);}.cls-10{fill:url(#linear-gradient-10);}.cls-11{fill:url(#linear-gradient-11);}.cls-12{fill:url(#linear-gradient-12);}.cls-13{fill:url(#linear-gradient-13);}.cls-14{fill:url(#linear-gradient-14);}.cls-15{fill:url(#linear-gradient-15);}.cls-16{fill:url(#linear-gradient-16);}.cls-17{fill:url(#linear-gradient-17);}.cls-18{fill:url(#linear-gradient-18);}.cls-19{fill:url(#linear-gradient-19);}.cls-20{fill:url(#linear-gradient-20);}.cls-21{fill:url(#linear-gradient-21);}.cls-22{fill:url(#linear-gradient-22);}.cls-23{fill:url(#linear-gradient-23);}.cls-24{fill:url(#linear-gradient-24);}.cls-25{fill:url(#linear-gradient-25);}.cls-26{fill:url(#linear-gradient-26);}.cls-27{fill:url(#linear-gradient-27);}.cls-28{fill:url(#linear-gradient-28);}.cls-29{fill:url(#linear-gradient-29);}.cls-30{fill:url(#linear-gradient-30);}.cls-31{fill:url(#linear-gradient-31);}.cls-32{fill:url(#linear-gradient-32);}.cls-33{fill:url(#linear-gradient-33);}.cls-34{fill:url(#linear-gradient-34);}.cls-35{fill:url(#linear-gradient-35);}.cls-36{fill:url(#linear-gradient-36);}.cls-37{fill:url(#linear-gradient-37);}.cls-38{fill:url(#linear-gradient-38);}.cls-39{fill:#fff;}.cls-40{fill:#1e1e1e;}.cls-41{fill:#ff4adc;}</style><linearGradient id="linear-gradient" x1="70.461" y1="110.461" x2="70.592" y2="110.592" gradientUnits="userSpaceOnUse"><stop offset="0" stop-color="#ff7f2c"/><stop offset="0.096" stop-color="#ff754c"/><stop offset="0.245" stop-color="#ff6878"/><stop offset="0.396" stop-color="#ff5d9c"/><stop offset="0.546" stop-color="#ff55b8"/><stop offset="0.697" stop-color="#ff4fcc"/><stop offset="0.848" stop-color="#ff4bd8"/><stop offset="1" stop-color="#ff4adc"/></linearGradient><linearGradient id="linear-gradient-2" x1="65.022" y1="103.126" x2="65.23" y2="103.334" xlink:href="#linear-gradient"/><linearGradient id="linear-gradient-3" x1="70.489" y1="110.365" x2="70.602" y2="110.478" xlink:href="#linear-gradient"/><linearGradient id="linear-gradient-4" x1="57.505" y1="65.064" x2="57.741" y2="65.301" xlink:href="#linear-gradient"/><linearGradient id="linear-gradient-5" x1="53.07" y1="82.314" x2="53.143" y2="82.388" xlink:href="#linear-gradient"/><linearGradient id="linear-gradient-6" x1="70.636" y1="102.115" x2="70.761" y2="102.239" xlink:href="#linear-gradient"/><linearGradient id="linear-gradient-7" x1="70.624" y1="103.881" x2="70.703" y2="103.96" xlink:href="#linear-gradient"/><linearGradient id="linear-gradient-8" x1="64.042" y1="75.742" x2="64.159" y2="75.86" xlink:href="#linear-gradient"/><linearGradient id="linear-gradient-9" x1="69.014" y1="83.114" x2="69.235" y2="83.336" xlink:href="#linear-gradient"/><linearGradient id="linear-gradient-10" x1="58.754" y1="67.307" x2="58.797" y2="67.349" xlink:href="#linear-gradient"/><linearGradient id="linear-gradient-11" x1="68.766" y1="82.791" x2="69.052" y2="83.076" xlink:href="#linear-gradient"/><linearGradient id="linear-gradient-12" x1="70.457" y1="112.383" x2="70.598" y2="112.524" xlink:href="#linear-gradient"/><linearGradient id="linear-gradient-13" x1="70.337" y1="109.08" x2="70.667" y2="109.41" xlink:href="#linear-gradient"/><linearGradient id="linear-gradient-14" x1="70.463" y1="86.702" x2="70.691" y2="86.93" xlink:href="#linear-gradient"/><linearGradient id="linear-gradient-15" x1="48.969" y1="24.73" x2="49.658" y2="25.419" xlink:href="#linear-gradient"/><linearGradient id="linear-gradient-16" x1="49.161" y1="26.198" x2="51.725" y2="28.762" xlink:href="#linear-gradient"/><linearGradient id="linear-gradient-17" x1="54.628" y1="33.977" x2="54.978" y2="34.327" xlink:href="#linear-gradient"/><linearGradient id="linear-gradient-18" x1="40.846" y1="35.773" x2="40.885" y2="35.812" xlink:href="#linear-gradient"/><linearGradient id="linear-gradient-19" x1="55.053" y1="34.643" x2="55.373" y2="34.963" xlink:href="#linear-gradient"/><linearGradient id="linear-gradient-20" x1="26.206" y1="61.121" x2="26.443" y2="61.359" xlink:href="#linear-gradient"/><linearGradient id="linear-gradient-21" x1="54.855" y1="34.343" x2="55.104" y2="34.592" xlink:href="#linear-gradient"/><linearGradient id="linear-gradient-22" x1="73.669" y1="149.595" x2="73.936" y2="149.862" xlink:href="#linear-gradient"/><linearGradient id="linear-gradient-23" x1="8.672" y1="123.223" x2="8.921" y2="123.472" xlink:href="#linear-gradient"/><linearGradient id="linear-gradient-24" x1="70.801" y1="154.795" x2="70.924" y2="154.918" xlink:href="#linear-gradient"/><linearGradient id="linear-gradient-25" x1="5.854" y1="66.637" x2="90.877" y2="151.66" xlink:href="#linear-gradient"/><linearGradient id="linear-gradient-26" x1="7.044" y1="120.543" x2="7.229" y2="120.728" xlink:href="#linear-gradient"/><linearGradient id="linear-gradient-27" x1="69.925" y1="60.702" x2="70.055" y2="60.833" xlink:href="#linear-gradient"/><linearGradient id="linear-gradient-28" x1="66.076" y1="54.094" x2="66.725" y2="54.744" xlink:href="#linear-gradient"/><linearGradient id="linear-gradient-29" x1="63.933" y1="50.141" x2="64.026" y2="50.234" xlink:href="#linear-gradient"/><linearGradient id="linear-gradient-30" x1="87.628" y1="124.447" x2="87.743" y2="124.562" xlink:href="#linear-gradient"/><linearGradient id="linear-gradient-31" x1="93.522" y1="101.697" x2="94.099" y2="102.273" xlink:href="#linear-gradient"/><linearGradient id="linear-gradient-32" x1="74.228" y1="148.97" x2="74.261" y2="149.003" xlink:href="#linear-gradient"/><linearGradient id="linear-gradient-33" x1="93.935" y1="102.436" x2="94.733" y2="103.234" xlink:href="#linear-gradient"/><linearGradient id="linear-gradient-34" x1="52.451" y1="29.987" x2="52.653" y2="30.189" xlink:href="#linear-gradient"/><linearGradient id="linear-gradient-35" x1="52.265" y1="29.772" x2="52.465" y2="29.973" xlink:href="#linear-gradient"/><linearGradient id="linear-gradient-36" x1="51.895" y1="29.299" x2="52.316" y2="29.721" xlink:href="#linear-gradient"/><linearGradient id="linear-gradient-37" x1="55.977" y1="36.575" x2="57.369" y2="37.967" xlink:href="#linear-gradient"/><linearGradient id="linear-gradient-38" x1="87.652" y1="91.263" x2="88.394" y2="92.005" xlink:href="#linear-gradient"/></defs><g id="Layer_2" data-name="Layer 2"><g id="Layer_1-2" data-name="Layer 1"><path class="cls-1" d="M70.473,110.449a.461.461,0,0,0,.087.176l-.035-.165Z"/><path class="cls-2" d="M65.122,103.025a.8.8,0,0,1-.136.267C65.131,103.144,65.453,103.552,65.122,103.025Z"/><path class="cls-3" d="M70.511,110.343l.014.117a.11.11,0,0,0,.106-.012C70.56,110.427,70.525,110.4,70.511,110.343Z"/><path class="cls-4" d="M57.647,65.4a.8.8,0,0,0,.009-.369.248.248,0,0,0-.095-.019Z"/><polygon class="cls-5" points="53.106 82.302 53.045 82.339 53.145 82.386 53.106 82.302"/><path class="cls-6" d="M70.749,102l-.1.35A2,2,0,0,0,70.749,102Z"/><path class="cls-7" d="M70.6,103.9a.448.448,0,0,0,.12.038l0,0Z"/><path class="cls-8" d="M64.159,75.86a.3.3,0,0,0-.048-.057C63.977,75.682,64.054,75.772,64.159,75.86Z"/><path class="cls-9" d="M69.274,83.3a1.762,1.762,0,0,1-.261-.183C69.075,83.264,69.133,83.374,69.274,83.3Z"/><polygon class="cls-10" points="58.788 67.355 58.793 67.353 58.762 67.3 58.788 67.355"/><path class="cls-11" d="M69.013,83.115a.971.971,0,0,0-.207-.364A.627.627,0,0,0,69.013,83.115Z"/><path class="cls-12" d="M70.563,112.559l-.068-.214C70.493,112.418,70.483,112.509,70.563,112.559Z"/><path class="cls-13" d="M70.479,109.6c-.151-.12.247-.561.075-.735-.024.182-.219.456-.156.711Z"/><polygon class="cls-14" points="70.564 86.6 70.415 86.858 70.653 86.968 70.564 86.6"/><path class="cls-15" d="M49.687,25.39l-.51-.7c-.175-.131-.287.065.025.527Z"/><path class="cls-16" d="M50.736,28.159c.04.215-.135.086-.212.075.467.486,1.09,1,1.14.479-.6-.4-.564-.6-1.241-1.018-.313-.463-.4-.894-.243-.874-.173-.128-.371-.785-.7-.94A4.836,4.836,0,0,0,50.736,28.159Z"/><path class="cls-17" d="M54.978,34.327a2.615,2.615,0,0,0-.321-.38l.261.38A.3.3,0,0,1,54.978,34.327Z"/><path class="cls-18" d="M40.83,35.8c.013.018.03.013.044.024C40.882,35.752,40.875,35.725,40.83,35.8Z"/><path class="cls-19" d="M55.094,34.6l.237.4A3.576,3.576,0,0,0,55.094,34.6Z"/><path class="cls-20" d="M26.054,61.566A1.469,1.469,0,0,1,26.5,61.3C26.251,61.333,26.909,60.054,26.054,61.566Z"/><path class="cls-21" d="M54.844,34.411a.385.385,0,0,1,.25.19l-.176-.274C54.868,34.324,54.83,34.338,54.844,34.411Z"/><path class="cls-22" d="M74.2,149.062l-.8,1.333C73.64,150.03,73.93,149.545,74.2,149.062Z"/><path class="cls-23" d="M8.7,123.2a1.014,1.014,0,0,0,.2.294Z"/><path class="cls-24" d="M71.177,154.429a4.122,4.122,0,0,0-.6.667.736.736,0,0,0-.025.193Z"/><path class="cls-25" d="M96.52,108.147c.194-.34.37-.677.53-1a22.043,22.043,0,0,1-1.617-2.56l.593.715-1.219-1.961.532,1.2c-.791-.982-.341.352-1.073-1.118a15.674,15.674,0,0,1-.746-1.734l0,0a6.642,6.642,0,0,1-1.207-1.782c-.016-.265.452-.042.444-.215-.571-.364-1.521-2.453-2.191-2.945.195.18.371.094.364,0l-.472-.309c-.216-.534-.224-.626-.042-.624-.821-1.509-.137.709-.982-1.156.1.128.093.043.293.312-.934-1.824-2.121-3.339-2.956-5.029.047-.668.9,1.375.859.667-1.418-2.311-3.2-4.63-4.442-6.944l.209.444c-.641-.049-.752-1.822-1.634-2.844.2.261.468.22.373.174-.827-1.6-1.954-3.112-3.463-5.383l.287.223c-.426-.977-1.337-2.447-1.857-3.468-.288-.225-.6-.8-.569-.359-1.1-3.44-3.732-5.611-4.741-8.641.189.322.55.711.4.454l-1.444-2.243c-.095.3.054.372.179.947a5.708,5.708,0,0,1-1.088-1.392c.733.96.316-.2.168-.708-.018.111-.174,0-.215.071-.342-1.411-.519.031-1.232-1.752l.155.026a15.065,15.065,0,0,1-1.232-1.752c.072-.409.487.593.7.524-.553-.924-1.5-1.585-1.762-2.562.294.358.625.927.918,1.286a5.905,5.905,0,0,0-.744-1.85l.033.071-.792-1.65.16.445c-1.279-.817-1.487-2.312-2.793-3.654,1.259,1.31.363.127.693.092-.16-.443-.432-1.1-.257-.97-.642-.619-.552-1.336-1.469-2.2.057-.095-.452-.8-.143-.754-.626-.927-.015.313-.167.293-1.151-1.321-1.678-3.7-3.314-5.612-1.134-1.612-1.639-1.9-2.595-3.208l-.279-.48c-.032-.349.606.424.606.424a11.06,11.06,0,0,0-1.452-2.517c.177.136.133-.084.072-.407-.431-.692-.58-.293-1-1.3a2.956,2.956,0,0,1,.747.508c-.559-.786-1.192-1.515-1.767-2.332.015-.313.524.39.8.638a11.959,11.959,0,0,0-1.992-2.593l.277.669c-.216-.346.1-.3.288-.062.663.723.612,1.242.554,1.338l-.409-.581c-.13.916,1.506,2.415,2.192,3.666l-.536-.249-5.1-8.8c.077-.3.091-.478-.01-.38-.032.053-.074.111-.112.168l-.164-.282-.013-.094-.019.04-.044-.076-.073.126c-.274-.4-.408-1.041-1.734.64l-.544,1.506-.45.325.653-1.154a2.984,2.984,0,0,0-.794,1.578,1.212,1.212,0,0,0-.546.446l-.391,1.562c-.252.071.035-.782-.572.066-.185.731.7-.4.217.709-.561.547-.6.27-.887,1.126-.166.047-.138-.153-.008-.483a13.994,13.994,0,0,0-.982,2.309c-.62.549-1.274,2.335-1.616,2.047a9.014,9.014,0,0,1-.743,2.008c.206-1.407-1.385,2.328-1.7,1.742-.08,1.084-1.589,3.162-2.23,4.793a.94.94,0,0,1,.143-.426,12.094,12.094,0,0,1-1.18,1.495c.276.3-.408,1.663-.609,2.493-.927.844-.035-.859-.537-.717.3.108-.767,1.956-.334,1.737-.661.674-.493.625-1.01.869.343.384-.355.778-.475,1.585-.872,1.023-.568.064-1.167,1.4-.477.523.021-.682.021-.682-.749,1.276-.036.782-.01,1.16-.794,1.581-.645.571-1.109,1-.469,1-.6,1.9-1.024,2.609-.083.023-.183.15-.155-.05-.33,1.156-1.722,3-2.084,4.361a.417.417,0,0,1-.169.108.47.47,0,0,1,.544.074c-.327.577-.415,1.182-.75,1.276a1.028,1.028,0,0,0,.173-.628l-.258.653c-.613.368.372-.881.15-1.009a28.272,28.272,0,0,1-1.731,3.589c-.4.017,1.119-2.159.163-1.111l.918-1.325c-1.079.793.522-.826-.54-.137-1.145,1.78-1.036,2.133-2.179,3.908-.075.506.32,0,.245.51-1.21,2.764-1.922,1.614-2.636,3.748a2.963,2.963,0,0,1-.813,2.258l-.064-.656c-1.059,1.752-.108,1.288-1.407,3.014.061-.406.7-1.456.5-1.211-.959,1.05-.3.959-.839,1.883l-.405.021c-1.047,1.912-2.038,4.113-3.195,6.233-.021-.166.1-.578-.278-.141a79.569,79.569,0,0,1-4.942,8.042L8.852,91.41c-.133.224-.357.352-.265.079-.67.935.132.145-.044.679-.309.574-.578.66-.447.258a36.648,36.648,0,0,1-3.76,6.93l.133-.4c-.934,1.374-.417,1.919-1.425,3.112l.1-.281c-.5.8-.99,1.63-1.472,2.464L0,107.149l.845,1.531.549,1.06a20.31,20.31,0,0,1,.872,1.977c.625.247,1.584,3.194,2.211,3.106A30.4,30.4,0,0,0,6.1,118.91c.355.686.886.823,1.408,1.624l-.257.172.919.971.017.782.509.741c-.16-.32-.252-.728-.148-.725a8.389,8.389,0,0,1,1.367,3.185l1.852,2.755c-.144,0-.453-.465-.737-.808,1.142,1.385-.125.439.921,1.708-.046-.223.217.012.29.013a18.95,18.95,0,0,0,1.87,3.542l-.313-.123c1.158,2.165,2.63,4.459,3.979,6.862-.4-.91.034-.893.461-.207l-.125.442c.432.355-.307-.8.433.016.473.915.017.785-.365.322l.713,1.035c-.049.112-.238-.119-.383-.125.428.348.776,2.043,1.445,2.516l-.049.109c1.35,2.4,2.061,3.434,3.177,5.381.266-.1.643.695,1.169,1.166.731,1.48,1.437,3.183,2.434,4.9.807,1.148.407.238.861.7-.173.215.822,1.932.157,1.125,1.207,2.057,1.54,2.628,3.2,5.154-.07-.337-.211-.68-.041-.557.305.456.518,1.138.372,1.13l-.094-.113c2,2.76,3.186,7.173,4.974,9.259l-.1-.119,1.615,2.3c.593,1.142-.547-.578-.218.329,1.853,2.417,2.286,4.181,3.753,6.2.285,2.046,3.395,5.916,4.249,8.413l.081-.218a1.246,1.246,0,0,1,.361.622l.055.277a.982.982,0,0,0,.046.16l.137.294c-.033-.339-.291-.841-.011-.542l1.243,2.122,1.27,2.226q.755-1.323,1.515-2.659l1.3-2.226q.951-1.551,1.908-3.115c1.287-2.075,2.592-4.146,3.832-6.21,1.087-1.832-.209-1.5,1.48-3.636l-.087.826c1.766-3.939,4.328-7.65,6.1-11.481-.057.256.026.311-.177.668a7.361,7.361,0,0,0,1.461-2.966c.341-.56.229-.046.513-.348.562-.708.832-2.1,1.273-2.4.073-.051-.055.257-.119.408.184-.563,1.355-2.344.84-2,.891-1.311,1.376-2.692,2.137-3.709.134-.868,1.458-2.282,1.2-2.724.339.32,1.678-2.233,1.983-3.208-.045.359.549-.687.522-.253.554-1,.994-1.946.694-1.887,1.5-1.564,1.692-3.89,2.877-4.58,1.45-3.068,2.845-5.878,4.247-8.582.339.317-1.613,2.954-1.136,3.073a62.963,62.963,0,0,1,3.238-6.692c.418-.616-.036.463-.092.719,1.255-2.6,2.775-4.841,3.822-7.2a1.5,1.5,0,0,1-.161.536c.236-.448.635-.993.429-1.044l-.194.457c-.656.558.445-2.056.353-2.212.09,1.037,1.374-2.137,1.351-.584.129-.309.25-.721.093-.722.277-.411.424-.508.314,0a27.881,27.881,0,0,1,1.1-2.608c.084.054-.045.361-.027.566a9.4,9.4,0,0,1,1.236-2.81c.011.1.158,0-.047.36,1.144-2.091,1.546-3.792,2.993-5.979,0,.884.56-.7.953-.642l.3-.645.5-1ZM52.709,62.011l.026.054-.274-1c.046-.46.191.277.351-.063-.423-1.081.069-1.7-.212-2.594a1.478,1.478,0,0,0,.217-.277.533.533,0,0,0,.1-.056c.038-.031.023-.068,0-.137-.046-.108-.123-.456.114-.048l-.174-.332c-.17-.392.1.14.14.222-.135-.3-.157-.293-.251-.53a1.5,1.5,0,0,1-.035-.547c.011-.049.029-.074.051-.071.046.1.1.263.151.394a2.957,2.957,0,0,1,.244,1.11,2.151,2.151,0,0,1,.19-.446c.1-.2.237-.227.171.082a1.053,1.053,0,0,0-.255.219.139.139,0,0,1,.124-.014c.014.01.01-.009.039.028l.087.119.167.241c.217.326.412.667.6,1.007A9.993,9.993,0,0,0,55.576,61.3c-.111-.039-.2.009-.271-.118-.046.4.585,1.021.757.927.1.214-.126.137-.139.312.039.347.67.537.549.8-.019.044-.112-.038-.158-.08.206.121.465.852.6.54.172.555.653.872.739,1.344.416.1.361.911.786.771-.411.193.186,1.04.55,1.241-.178-.034.035.34-.2.314.212.349.473.63.638.451-.088.922,1.139,1.084.754,1.8a34.02,34.02,0,0,1,2.174,2.7c-.409.194-.648-1.018-1.033-.739.683.8,1.319,1.119,1.743,2.059.081.261-.245-.031-.357-.069.683.8.975,1.745,1.651,2.415-.037.019-.127-.044-.2-.107.1.149.156.4.322.276l-.137-.124c.111-.4.9.307,1.052.255-.662.032.332.859-.556.812.094.084.253.164.358.071.055.173.014.262-.211.186.424.5.5.194.789.7-.087.048-.18-.035-.312-.029a1.4,1.4,0,0,1,.815.791c-.067.005-.1.094-.179-.035.458.722,1.181,1,1.492,1.9-.512-.021.039.346-.259.578l.351.378.054-.266c.218.384.649.583.735.972l-.3-.2.479.678-.114-.476c.391.288.383-.28.59.28-.093-.084.219.383.145.692h0a.936.936,0,0,1,.519.587c-.06.133-.391.15-.432.237.378.029.6.848,1.022.916a.327.327,0,0,0-.3.1l.311.027c.033.218.014.263-.137.314.259.534.335-.365.477.282-.04-.028-.066,0-.141-.05a2.472,2.472,0,0,1,.169.8,3.38,3.38,0,0,1,.048,1c-.368.2-.113-.571-.422-.342A16.12,16.12,0,0,1,70.8,90.1l.039-.176c.534.124-.257.7,0,1.175-.039-.116-.3-.149-.235-.119a8.444,8.444,0,0,0,.306,2.286l-.137-.119a10.663,10.663,0,0,0-.126,1.408c.137.12.116.355.313.211-.771,1.267.426,2.406-.216,3.529,0-.134-.12-.319-.12-.213l.129.954c.231-.076.14-.126.319-.327a.922.922,0,0,1,.245.626c-.155-.428-.371.005-.5.19.071-.031.149.033.221.017-.409.5.465.083.191.764l-.121-.036a2.06,2.06,0,0,1,.189.764c-.268.114-.124-.271-.344-.289.014.386.5.761.235,1.11-.073-.163-.074-.4-.147-.563a.942.942,0,0,0-.287.707l.007-.028-.144.653.085-.166c.695.483.124.983.577,1.634-.429-.633-.249-.105-.552-.154-.084.166-.18.418-.265.346.243.307-.194.512.161.947-.1.019-.011.328-.255.258.075.4.17-.094.292-.06.33.617-.41,1.446.043,2.334.17.7.46.886.631,1.463,0,.066,0,.132,0,.2-.147.113-.31-.242-.31-.242a1.463,1.463,0,0,0-.01,1.04c-.084-.074-.157,0-.267.111.025.292.355.2.209.582a1.337,1.337,0,0,1-.39-.294c.087.344.271.686.352,1.041-.172.093-.254-.216-.364-.342.071.4.138,1.034.405,1.162l.1-.255c.011.145-.232.071-.279-.037a.315.315,0,0,1,.2-.51l.058.254c.579-.255-.079-1.019-.046-1.529l.339.175c0,.266,0,.532,0,.8,0,.749-.019,1.5-.035,2.247-.049-.052-.1-.105-.142-.162a.954.954,0,0,0-.123-.344c.074-.072.16,0,.22.018a.71.71,0,0,0-.622-.385c-.13-.242-.3-.463-.047-.593a1.554,1.554,0,0,1-.7-.468c.7.142-.463-.853.089-1.031-.587-.062-.821-.985-1.362-1.388.05.011.15.032.157.091a1.9,1.9,0,0,1-.106-.72c-.361.159-.713-.265-1.07-.4.11-.56.529-.008.774-.307-.263.179-.649-.482-.8-.223.036-.4-.045-.3.151-.61-.452.2-.226-.221-.623-.3-.031-.53.335-.337-.057-.711,0-.289.388.023.388.023-.261-.462-.438-.032-.677-.022-.411-.493.086-.39.141-.672-.284-.291-.73-.381-.866-.643.041-.049.031-.11.131-.091-.464-.211-.639-1.062-1.2-1.3a.22.22,0,0,1,.047-.1,1.018,1.018,0,0,1-.4.321c-.125-.2-.424-.263-.26-.462.067.13.157.091.257.112l-.216-.162c.186-.369.275.232.5.1-.343-.362-.877-.7-.98-1.076.254-.239.538.693.548.112l.178.562c.241-.65.145.321.435-.317-.3-.7-.577-.644-.873-1.346-.249-.052-.213.19-.462.138-.835-.755.31-1.161-.479-1.614-.3-.062-.709.087-.8-.513l.428-.029c-.337-.652-.688-.082-.853-.875.2.041.4.433.385.314.01-.582-.366-.194-.559-.524l.253-.24c-.44-.647-1.087-1.265-1.577-1.98.111-.009.278.065.265-.162a10.33,10.33,0,0,1-1.5-3.04l-.456-.2c-.045-.082.026-.216.127-.158-.111-.41-.172.076-.371-.036-.135-.191-.01-.351.141-.268A4.839,4.839,0,0,1,57.1,89.631l.151.084c-.2-.572-.858-.274-.9-.887l.1.065c-.54-1.176-1.492-2.269-1.606-3.341-.459.052-.481-1.2-1.032-.969a4.7,4.7,0,0,0-.276-1.647c-.116-.252-.526-.17-.752-.434l.262-.163a.985.985,0,0,0-.463-.151,1.163,1.163,0,0,1,.314-.2.237.237,0,0,1-.082-.092.32.32,0,0,1-.222.147c-.071-.057-.029-.387.053-.627s.2-.416.282-.424c-.1-.369-.2-.742-.293-1.148.125.026.17.225.251.383-.323-.636.323-.116.027-.7-.069.078-.184-.042-.246-.055a2.53,2.53,0,0,0,.09-1.443l.214.091c.047-.882-.11-1.85-.111-2.837-.1.355-.466.277-.5-.012l.325-.119c-.2-.184-.121.3-.369-.077.036-.369.369-.251.476-.041l-.115-.446c.1-.028.149.077.273.1-.2-.182.324-.775-.029-1.037l.1-.026c0-.985-.115-1.431-.135-2.233-.281-.015-.22-.329-.448-.567a10.037,10.037,0,0,0,.278-1.956c-.142-.5-.238-.146-.406-.37.256-.037.229-.747.414-.379a12.224,12.224,0,0,0-.256-2.169c-.106.117-.152.249-.239.181-.041-.2.109-.446.232-.418l.027.052C52.1,64.558,53.239,62.977,52.709,62.011Zm18.345,51.353a.489.489,0,0,0-.338-.215.374.374,0,0,0-.006-.166,1.069,1.069,0,0,0,.345.34A.277.277,0,0,1,71.054,113.364Zm.22.974a.4.4,0,0,1-.05-.036.99.99,0,0,1,.054-.209C71.276,114.175,71.276,114.256,71.274,114.338Zm.085-17.451v.343c-.1-.021-.192-.1-.25-.33A.785.785,0,0,1,71.359,96.887Zm-.023,10.752a.581.581,0,0,1-.236-.276l.237-.141C71.337,107.361,71.336,107.5,71.336,107.639Zm-.012,2.868-.267-.409a.294.294,0,0,1,.269-.086C71.325,110.177,71.325,110.342,71.324,110.507Zm-.042,3.358a.557.557,0,0,0-.139-.1.155.155,0,0,1,.141-.063C71.283,113.753,71.283,113.809,71.282,113.865ZM60.575,96.074l-.148-.209.005,0ZM59.9,94.969c.054.115.132.252.218.4-.065.081-.171.1-.22,0C59.981,95.384,59.905,95.144,59.9,94.969ZM73.425,67.381a.308.308,0,0,1-.189.15l-.486-.839C72.869,66.7,73.07,66.878,73.425,67.381ZM58.774,42.1l-.007.461-.583-1.007A2.105,2.105,0,0,1,58.774,42.1Zm-3.8-6.626c.038.2.017.381-.1.37l-.705-1.218ZM14.8,81.813l-.339.628-.005,0Zm-1.15,2.059c.135-.039.166.106.015.356.024-.17-.368.4-.656.728Z"/><polygon class="cls-26" points="7.19 120.745 7.25 120.706 7.072 120.515 7.19 120.745"/><path class="cls-27" d="M70.012,60.876a.486.486,0,0,0-.043-.217A.6.6,0,0,0,70.012,60.876Z"/><path class="cls-28" d="M66.6,54.867l-.4-.9C66.362,54.366,66.492,54.646,66.6,54.867Z"/><path class="cls-29" d="M64.059,50.2a.291.291,0,0,0-.156-.03l0,.01Z"/><path class="cls-30" d="M87.776,124.3c-.034.063-.065.126-.09.185C87.5,124.929,87.639,124.634,87.776,124.3Z"/><path class="cls-31" d="M93.523,101.7c.178.2.353.407.52.632C93.838,101.93,93.668,101.627,93.523,101.7Z"/><path class="cls-32" d="M74.29,148.916l0,0-.085.151Z"/><path class="cls-33" d="M94.043,102.328a7.509,7.509,0,0,0,.582,1.014A4.822,4.822,0,0,0,94.043,102.328Z"/><path class="cls-34" d="M52.507,29.989c-.014.013-.034.007-.054,0l.173.231Z"/><path class="cls-35" d="M52.282,29.756a.636.636,0,0,0,.171.229Z"/><path class="cls-36" d="M51.92,29.274l.362.482A1.369,1.369,0,0,0,51.92,29.274Z"/><path class="cls-37" d="M56.271,36.4l-.1-.017c.3.213.576,1.483.968,1.816A12.823,12.823,0,0,0,56.271,36.4Z"/><polygon class="cls-38" points="88.05 91.421 87.675 91.241 88.274 92.125 88.05 91.421"/><path class="cls-39" d="M102.906,8.572l3.222.245-3.222.246a5.807,5.807,0,0,0-5.35,5.349l-.245,3.223-.245-3.223a5.807,5.807,0,0,0-5.349-5.349l-3.223-.246,3.223-.245a5.807,5.807,0,0,0,5.349-5.349L97.311,0l.245,3.223A5.807,5.807,0,0,0,102.906,8.572Z"/><path class="cls-39" d="M139.1,19.668l4.079.311-4.079.31a7.351,7.351,0,0,0-6.772,6.771l-.31,4.08-.31-4.08a7.351,7.351,0,0,0-6.772-6.771l-4.079-.31,4.079-.311a7.351,7.351,0,0,0,6.772-6.771l.31-4.08.31,4.08A7.351,7.351,0,0,0,139.1,19.668Z"/><path class="cls-39" d="M117.665,53.7l6.724.512-6.724.511A12.115,12.115,0,0,0,106.5,65.885l-.512,6.724-.511-6.724A12.116,12.116,0,0,0,94.319,54.723L87.6,54.212l6.724-.512a12.116,12.116,0,0,0,11.162-11.161l.511-6.724.512,6.724A12.115,12.115,0,0,0,117.665,53.7Z"/><path class="cls-40" d="M197.194,136.313l.371-.282-.485-.377a.592.592,0,0,1-.292-.131,5.913,5.913,0,0,0-1.179-.857,4.218,4.218,0,0,1-.838-.521,1.183,1.183,0,0,1-.383-.432c-.086-.061-.24-.164-.51-.34a1.548,1.548,0,0,1-.491-.5c-.48-.328-.9-.653-1.268-.931-.273-.209-.517-.395-.732-.543l.011-.018h0l-.064.076-.212-.147c-.1-.071-.19-.13-.26-.181a1.071,1.071,0,0,1-.677-.191c-.238-.175-.51-.342-.772-.506-.623-.387-.868-.551-.97-.746l-.134-.255a1.5,1.5,0,0,0-.291-.12,4.856,4.856,0,0,1-1.219-.6l-.417-.254c-.14-.055-.287-.128-.438-.2-.335-.215-.561-.346-.738-.44l-.187-.041a5.037,5.037,0,0,1-1.059-.5l-.6-.355c-.225-.131-.459-.287-.7-.448a8.981,8.981,0,0,0-1.469-.848,1.007,1.007,0,0,1-.445-.42l-.014-.009c-.209-.091-.385-.175-.541-.256l-.063.13-.212-.085-.147-.059-.057.073a8.3,8.3,0,0,0-1.389-.747,14.134,14.134,0,0,1-1.274-.644l-.372-.218.127-.183c-.64-.334-1.254-.6-1.947-.9-.479-.206-1-.432-1.583-.7l-.025,0a5.536,5.536,0,0,1-1.1-.429c-.3-.135-.616-.279-.886-.383l-.854-.327.215-.106c-.107-.037-.242-.093-.421-.167a7.326,7.326,0,0,0-1.034-.38l-.158.042-.072-.09-.853-.49a10.071,10.071,0,0,0-1.755-.6,11.393,11.393,0,0,1-1.725-.569l.039-.125-.219-.126a6.938,6.938,0,0,0-.718-.258,8.961,8.961,0,0,1-1.179-.443l-.091-.014a3.9,3.9,0,0,1-.837-.216l-.1-.049-.106-.025c-.095-.024-.2-.051-.253-.058v-.012l-.04.078a31.365,31.365,0,0,0-3.469-1.3c-.976-.326-1.9-.634-2.52-.908l-4.512-1.223-.1-.009a5.992,5.992,0,0,1-1.5-.32c-.176-.067-.414-.159-.492-.344-.162-.034-.329-.066-.478-.095a12.721,12.721,0,0,1-1.861-.458l.009-.031c-.4-.1-.871-.188-1.406-.282-.572-.1-1.222-.214-1.9-.379l-.173-.042c-1.02-.076-2.634-.3-4.106-.517l-.1-.016a5.388,5.388,0,0,1-.6-.067l-.16-.044-3.045-.446,1.347-.075c-.187-.021-.366-.043-.525-.069l-.713-.115c-.368-.022-.647-.028-.92-.034-.429-.009-.839-.018-1.536-.083l-.316.012a3.747,3.747,0,0,1-1.122-.091,3.253,3.253,0,0,0-.863-.09h-.121l-.317-.194c-.1,0-.219-.011-.349-.019-.336-.02-.753-.045-1.2-.031-.709.011-1.48.02-2.127.012l0-.06c-.627.017-1.338.009-2.124-.022l-.83-.031.134-.154c-.6-.048-1.557-.074-2.206-.091-.782-.021-1.458-.039-1.826-.078-1.245.108-2.583.139-3.733.16l-1.986.035-1.486.149a.91.91,0,0,1-.551.178l.091.1-.754.1a7.194,7.194,0,0,1-1.057.1l-2.031.071a.688.688,0,0,1-.395-.112l-.733.157a11,11,0,0,1-1.946.273,9.5,9.5,0,0,0-1.9.284l-.015-.055c-.236.044-.5.091-.779.14a19.842,19.842,0,0,0-3.39.778l-.135.036a1.076,1.076,0,0,1-.387-.024c-.967.224-2,.5-3,.76l-4.372,1.127a4.482,4.482,0,0,1-.859.249l-.323.059a14.006,14.006,0,0,1-1.517.48l-.024-.073a19.207,19.207,0,0,0-2.385.782l-.576.238c-.647.27-1.3.541-2.062.819l-.4.145-.038-.125c-.572.108-1.958.538-2.459.694l-.377.117c-1.125.429-2.1.854-3.046,1.266l-.806.354c-.865.38-1.758.772-2.713,1.241-.873.276-2.287.879-3.548,1.425-.658.292-1.338.614-2,.929-.622.3-1.231.585-1.8.836l.253-.042-.5.254a4,4,0,0,1-.5.3,7.172,7.172,0,0,0-.84.438c-.465.268-.706.409-.938.331-.411.171-1,.485-1.5.752l-.357.189-.054.294-.209.08a32.612,32.612,0,0,0-4.661,2.526,23.817,23.817,0,0,1-2.65,1.492c-.186.13-.388.266-.594.405-.364.245-.741.5-1.051.74l-.469.366-.049-.177c-1.172.723-1.962,1.232-3.582,2.384l-.043-.05a5.918,5.918,0,0,0-.669.663,6.5,6.5,0,0,1-.96.91l-.075.057-.376.073-1.622,1.2,1.831,1.424a19.321,19.321,0,0,0,1.8,1.226l1.233.741h-.35c.512.359.982.673,1.277.848l.221-.511.364.8a27.589,27.589,0,0,0,2.72,1.611l.876.471c.253.125.561.291,1.073.583a.991.991,0,0,1,.3.263c.152.088.262.138.385.2a8.075,8.075,0,0,1,1.056.581l-.031.063a4.063,4.063,0,0,0,.675.315l.314.122a11.971,11.971,0,0,1,1.967,1.241,5.912,5.912,0,0,1,1.311.582l.108.092.089.109c.59.321,1.08.553,1.523.762a15.791,15.791,0,0,1,1.612.841l.153.094.023.135c.5.214.917.409,1.252.589a1.7,1.7,0,0,1,.2.155c.151.073.3.134.434.189l.138.071c.184.1.332.181.5.265l.039-.095a7.513,7.513,0,0,1,1.461.649l2.631.465-1.2.087c.258.154.544.316.809.466a9.041,9.041,0,0,1,.942.569c.334.131.687.279,1.048.431.537.225,1.092.459,1.633.654a19.042,19.042,0,0,0,2.3.715,2.112,2.112,0,0,1,.749.367c.026.019.05.039.081.058l.067.04.272.1a14.607,14.607,0,0,0,1.789.6l.117-.024.065.049a1.613,1.613,0,0,1,.6.326l.344.113-.014.058a34.152,34.152,0,0,0,4,1.3l.2.055c.406.115.817.221,1.239.329.4.1.8.205,1.211.32l-.025-.021.48.15c.3.089.615.185.936.292l.937.293c.907.285,1.845.58,2.789.814l6.67,1.489c1.229.217,2.31.43,3.287.645a7.692,7.692,0,0,0,1.551.2c.153.007.319.013.53.029l.1.008.245.162c.122.007.242.015.364.024.271.018.543.037.817.039a17.42,17.42,0,0,1,2.36.315l.06.011-.142-.055,4.587.469c.2.022.386.034.532.044a2.589,2.589,0,0,1,.375.042,1.882,1.882,0,0,1,.613,0l.24.054,1.779-.029c.569.036.893.067,1.054.263a10.308,10.308,0,0,0,1.047.076c.216,0,.474,0,.731-.013l-.107-.268,1.411-.038h.129c3.369,0,6.845-.174,10.331-.516a4.011,4.011,0,0,0,.777-.069l.4-.052a3.642,3.642,0,0,1,.391-.01l.115,0,.636-.105.026.106c.694-.052,1.244-.141,1.7-.215a6.941,6.941,0,0,1,1.014-.119c.287-.058.469-.1.583-.126l.021-.114.281-.043q.606-.093,1.207-.193l.053-.008.471.048.144-.119.111-.017a5.262,5.262,0,0,1,.54-.064l.045-.07.78-.139c.407-.055.836-.129,1.236-.2.445-.077.766-.131,1.006-.161a3.352,3.352,0,0,1,.467-.158l.126-.037.123.045a3.408,3.408,0,0,0,.761-.175,8.427,8.427,0,0,1,1.289-.3l.863-.112c.155-.028.317-.055.479-.082.326-.053.662-.109.933-.175a4.655,4.655,0,0,1,1.186-.373c.583-.145,1.308-.325,1.926-.544l1.654-.587-.246.247.521-.136c.647-.17,1.331-.35,1.823-.471a7.518,7.518,0,0,1,1.182-.452c.381-.127.794-.264,1.146-.407l.606-.245-.014.152c.162-.07.364-.149.627-.248l1.761-.659-.173.17c.392-.149.8-.3,1.239-.444l.089-.264,1.833-.673-.031.076.3-.112.008.035.971-.283c.083-.041.17-.077.25-.111.57-.227.774-.293.962-.245.028-.007.065-.019.116-.035a4.88,4.88,0,0,1,.449-.206c.065-.027.153-.064.23-.1l-.018-.077.319-.125a1.717,1.717,0,0,1,.571-.138c1.092-.476,1.586-.709,1.808-.822l-.037-.084.088-.044c.88-.454,1.835-.851,2.759-1.236,1-.414,2.026-.843,2.943-1.336l.4-.215.015.041c.283-.146.575-.293.865-.439.725-.365,1.41-.71,1.852-.993a2.472,2.472,0,0,1,.833-.314l.322-.187a15.742,15.742,0,0,1,1.642-.852l.042.076a10.849,10.849,0,0,0,1.524-.865l.123.157-.021-.133a4.756,4.756,0,0,0,.514-.253l-.038-.071c.541-.324,1.026-.59,1.517-.859l1.636-.9-.19.257c.443-.276.856-.556,1.249-.831.479-.33,1.018-.691,1.6-1.026a.712.712,0,0,1,.147-.184l.064-.048c.612-.374,1.271-.7,1.751-.945.277-.138.493-.245.6-.313a6.093,6.093,0,0,0,1.2-.869,7.631,7.631,0,0,1,.927-.735c.079-.248.394-.5.852-.853.661-.451,1.06-.669,1.323-.582l.108-.073-.024-.034c.083-.058.158-.111.229-.159C196.268,137.02,196.619,136.752,197.194,136.313Zm-6.732.06c-.168.1-.331.2-.46.259a4.605,4.605,0,0,1-.586.292,49.474,49.474,0,0,1-4.36,2.7q-.578.33-1.182.679a.774.774,0,0,1-.373.36l.118.06-.616.373a5.787,5.787,0,0,1-.845.474c-.547.262-1.1.522-1.669.766a.624.624,0,0,1-.411.029.907.907,0,0,1-.153.026.622.622,0,0,0-.183.055,1.232,1.232,0,0,1-.23.2l.055.106a7.729,7.729,0,0,1-1.663.844,8.209,8.209,0,0,0-1.47.715l-.033-.052c-.173.092-.366.193-.57.3-.967.506-2.293,1.2-2.819,1.571l-.121.058a.933.933,0,0,1-.36.046c-.605.285-1.24.605-1.856.918-.339.171-.678.343-1.013.509-1.061.5-2.163,1.009-3.041,1.318l-.233.083a3.911,3.911,0,0,1-.806.355l-.3.09a11.716,11.716,0,0,1-1.3.552l-.034-.076c-.892.329-1.584.658-2.255.977a22.121,22.121,0,0,1-2.184.94l-.385.138-.041-.124c-.517.1-1.731.475-2.17.612l-.749.233-5.786,2c-.788.1-2.174.438-3.293.716l-2.052.508c-.578.13-1.14.226-1.658.313-.024.019-.05.038-.078.056l.282.046-.733.138c-.065.019-.134.037-.206.055a7.172,7.172,0,0,0-.758.172c-.535.14-.81.211-1.013.063-.335.036-.8.13-1.2.21-.2.04-.393.079-.582.115l-.13.268-.245,0a28.628,28.628,0,0,0-3.839.48,15.37,15.37,0,0,1-3.642.375c-.272.048-.572.089-.871.129s-.621.083-.9.134l-.57.107.032-.176-1.508.119c-.36.028-.734.041-1.166.056-.342.011-.719.024-1.154.047l-.009-.065a4.585,4.585,0,0,0-.776.168,4.806,4.806,0,0,1-1.232.213l-.1,0-.308-.156a28.555,28.555,0,0,1-2.871-.036,27,27,0,0,0-2.816-.032l-1.333.078.284-.211-.645-.03c-.172,0-.349-.006-.507-.01l-.184-.006.055.677-.721-.664c-.38-.083-1.935-.128-2.618-.147l-1.634-.047.006,0c-.156-.007-.337-.017-.554-.03a.925.925,0,0,1-.365-.106c-.115-.009-.2-.011-.291-.014a6.064,6.064,0,0,1-1.182-.144l-.586-.112h-.064l-.3,0a9.975,9.975,0,0,1-2.065-.418,5.118,5.118,0,0,1-1.3-.1l-.148-.063-.117-.081c-.5-.1-.916-.161-1.3-.22a13.012,13.012,0,0,1-1.8-.364l-.189-.056-.048-.123c-.42-.063-.832-.138-1.191-.229a1.437,1.437,0,0,1-.2-.087l-.129-.03c-.1-.017-.2-.03-.29-.041l-.636-.166-.019.1a6.156,6.156,0,0,1-1.394-.3l-2.566.171,1.238-.418c-.265-.11-.568-.225-.847-.33l-.078-.03-.529-.131.173,0a3.761,3.761,0,0,1-.485-.214c-.658-.14-1.386-.338-2.091-.53a16.992,16.992,0,0,0-2.539-.578,1.822,1.822,0,0,1-.739-.3.482.482,0,0,0-.067-.043l-.053-.028c-.283-.078-.576-.163-.852-.244a5.694,5.694,0,0,0-1.031-.278l-.129.033-.072-.058a1.464,1.464,0,0,1-.547-.312l-.291-.1.014-.057c-1.153-.473-2.191-.79-3.2-1.1-.894-.272-1.805-.55-2.805-.939l.127.143-1.739-.808c-1.146-.533-2.328-1.044-3.517-1.559a67.7,67.7,0,0,1-7.574-3.652,6.21,6.21,0,0,0-1.2-.55c-.154-.054-.316-.11-.528-.2l-.105-.044-.156-.219-.988-.391a12.6,12.6,0,0,1-1.918-1.12l.139.145-2.553-1.466A15.914,15.914,0,0,1,56.2,139.54a1.57,1.57,0,0,1-.486-.273l-.186-.152,0-.008c-.466-.244-.928-.493-1.385-.751-.387-.262-.673-.456-.714-.722a8.937,8.937,0,0,0-.749-.517c-.159-.1-.354-.211-.554-.322l-.065.275-.938-.561-.062.015-.148-.1.014-.031-.015-.009-.839-.177.321-.217h0l.685-.462h0c1.373-.922,3.537-2.325,6.326-3.967l-.177.05,2.84-1.6-.032.039.615-.343.1.15a13.7,13.7,0,0,0,1.21-.688,4.231,4.231,0,0,1,.987-.511c.215-.125.35-.208.435-.262l0-.033.255-.265.9-.447.543-.125.062-.1.11-.053a4.264,4.264,0,0,1,.444-.195.8.8,0,0,1,.191-.2l.1-.055c.35-.132.8-.357,1.225-.574.449-.226.769-.384,1.012-.48a3.131,3.131,0,0,1,.38-.229l.123-.068.14.025a3.222,3.222,0,0,0,.6-.29,6.884,6.884,0,0,1,1.088-.515l.745-.255c.178-.072.363-.142.546-.21.23-.087.455-.172.649-.256a5.849,5.849,0,0,1,1.4-.7c.411-.177.866-.373,1.273-.567l1.371-.654-.136.194,2.037-.724a7.766,7.766,0,0,1,1.44-.677c.216-.089.433-.178.629-.262l.562-.243v.133c.151-.071.327-.143.542-.224l1.556-.579-.125.136c.332-.129.676-.259,1.047-.384l-.029-.085.37-.3,1.252-.419,0,.078.514-.161.006.032,2.449-.6-.379.2.025,0a4.261,4.261,0,0,1,.418-.156c.052-.017.119-.039.181-.061l-.011-.081.327-.1a1.5,1.5,0,0,1,.543-.078c.22-.085.587-.2.944-.316.248-.079.563-.179.752-.246l-.025-.092.081-.027c1.019-.33,2.1-.574,3.151-.811.784-.177,1.595-.36,2.346-.572l.432-.122.008.057c.274-.064.557-.127.836-.19.71-.158,1.38-.307,1.83-.451a2.214,2.214,0,0,1,.826-.055l.346-.088a11.106,11.106,0,0,1,1.612-.307l.017.084.152-.017a9.045,9.045,0,0,0,1.4-.26l.077.226.038-.171a3.507,3.507,0,0,0,.493-.042l-.009-.08c.569-.1,1.072-.167,1.58-.235l1.676-.222-.246.168c.236-.038.467-.078.7-.118a21.893,21.893,0,0,1,2.294-.313.7.7,0,0,1,.2-.1l.087-.017a17.666,17.666,0,0,1,1.808-.017c.269.007.476.015.586,0a7.377,7.377,0,0,0,1.229-.147,6.515,6.515,0,0,1,1.143-.136,2.058,2.058,0,0,1,1.094-.249c.711-.016,1.154.033,1.323.265a3.462,3.462,0,0,1,.373.023l0-.058c.422,0,.782-.008,1.135-.021.474-.017.928-.033,1.473-.009a.537.537,0,0,1,.292-.054,4.786,4.786,0,0,0,1.288.015,3.351,3.351,0,0,1,.907-.056,1.132,1.132,0,0,1,.534.149h.232l-.609-.218,4.013.549.251.034a1.008,1.008,0,0,1,.637-.144h.041l.04.008c.187.035.453.055.716.075.657.051.98.084,1.17.249l.166.146a1.67,1.67,0,0,0,.253-.022,3.964,3.964,0,0,1,1.242,0l.452.042a4.035,4.035,0,0,1,.437.01c.128.026.239.047.339.064l.5.048.077-.014a4.2,4.2,0,0,1,1.068.066l.653.114c.256.041.519.1.789.164a9.182,9.182,0,0,0,1.425.25.948.948,0,0,1,.526.246c.2.022.372.048.525.076l.024-.143.208.017.158.014.036-.082a5.908,5.908,0,0,0,1.274.275,8.858,8.858,0,0,1,1.381.277l.4.121-.072.207c.525.124,1.036.207,1.656.3.559.095,1.114.213,1.708.362l.025,0a3.862,3.862,0,0,1,1.1.211c.277.075.569.154.817.2l.85.164-.184.146c.1.018.216.045.364.08a6.218,6.218,0,0,0,.953.175l.166-.081.094.1.812.354a9.189,9.189,0,0,0,1.585.378,10.1,10.1,0,0,1,1.632.385l3.227,1.038.019-.044c.089.048.184.095.285.142l.231.074-.091-.009c.676.3,1.546.6,2.273.842a18.169,18.169,0,0,1,2.655,1.117c.232.081.538.192.85.305.823.3,1.675.607,2.353.911l.6.268c.064.015.122.026.182.036a4.368,4.368,0,0,1,1.345.487c.143.088.357.223.4.417l.29.112a8.432,8.432,0,0,1,1.677.785l.174.118c.282.132.613.263.974.407.488.194,1.041.413,1.6.687l.228.11c.746.263,1.765.741,2.679,1.169l.749.35a4.853,4.853,0,0,1,.508.217l.089.058,2.689,1.244-1.508-.336c.216.1.422.2.592.3l.667.4c.211.1.389.174.564.249a12.816,12.816,0,0,1,1.332.645l.255.1a3.062,3.062,0,0,1,.911.489,2.594,2.594,0,0,0,.671.381l.116.049.223.315c.634.326,1.952,1,2.89,1.543l-.026.054c.483.258,1.027.581,1.652.979l.66.421-.183.072.095.069,1.608,1.117Z"/><path class="cls-40" d="M99.385,156.6a.277.277,0,0,0,.088.088v-.006h-.006l.014-.067Z"/><polygon class="cls-40" points="84.857 119.166 84.855 119.171 84.858 119.17 84.857 119.166"/><path class="cls-40" d="M104.881,114.8a.388.388,0,0,0,0-.076l-.281.054.013.038C104.681,114.815,104.77,114.81,104.881,114.8Z"/><polygon class="cls-40" points="157.639 119.514 157.639 119.517 157.641 119.514 157.639 119.514"/><path class="cls-40" d="M132.486,162.294h0c.084,0,.181-.008.3-.007l-.064-.36A.394.394,0,0,0,132.486,162.294Z"/><path class="cls-40" d="M193.644,138.833l.121.213c.029-.029.06-.06.1-.1a.269.269,0,0,1,0-.069A.328.328,0,0,0,193.644,138.833Z"/><path class="cls-40" d="M64.611,148.524l.017.009-.014-.016Z"/><path class="cls-40" d="M182.689,146.032l-.235.144.025.031c.062-.025.14-.061.236-.109A.451.451,0,0,0,182.689,146.032Z"/><path class="cls-40" d="M64.679,148.629a.318.318,0,0,0-.042-.085l-.028.056Z"/><path class="cls-39" d="M190.462,136.373c-.168.1-.331.2-.46.259a4.605,4.605,0,0,1-.586.292,49.474,49.474,0,0,1-4.36,2.7q-.578.33-1.182.679a.774.774,0,0,1-.373.36l.118.06-.616.373a5.787,5.787,0,0,1-.845.474c-.547.262-1.1.522-1.669.766a.624.624,0,0,1-.411.029.907.907,0,0,1-.153.026.622.622,0,0,0-.183.055,1.232,1.232,0,0,1-.23.2l.055.106a7.729,7.729,0,0,1-1.663.844,8.209,8.209,0,0,0-1.47.715l-.033-.052c-.173.092-.366.193-.57.3-.967.506-2.293,1.2-2.819,1.571l-.121.058a.933.933,0,0,1-.36.046c-.605.285-1.24.605-1.856.918-.339.171-.678.343-1.013.509-1.061.5-2.163,1.009-3.041,1.318l-.233.083a3.911,3.911,0,0,1-.806.355l-.3.09a11.716,11.716,0,0,1-1.3.552l-.034-.076c-.892.329-1.584.658-2.255.977a22.121,22.121,0,0,1-2.184.94l-.385.138-.041-.124c-.517.1-1.731.475-2.17.612l-.749.233-5.786,2c-.788.1-2.174.438-3.293.716l-2.052.508c-.578.13-1.14.226-1.658.313-.024.019-.05.038-.078.056l.282.046-.733.138c-.065.019-.134.037-.206.055a7.172,7.172,0,0,0-.758.172c-.535.14-.81.211-1.013.063-.335.036-.8.13-1.2.21-.2.04-.393.079-.582.115l-.13.268-.245,0a28.628,28.628,0,0,0-3.839.48,15.37,15.37,0,0,1-3.642.375c-.272.048-.572.089-.871.129s-.621.083-.9.134l-.57.107.032-.176-1.508.119c-.36.028-.734.041-1.166.056-.342.011-.719.024-1.154.047l-.009-.065a4.585,4.585,0,0,0-.776.168,4.806,4.806,0,0,1-1.232.213l-.1,0-.308-.156a28.555,28.555,0,0,1-2.871-.036,27,27,0,0,0-2.816-.032l-1.333.078.284-.211-.645-.03c-.172,0-.349-.006-.507-.01l-.184-.006.055.677-.721-.664c-.38-.083-1.935-.128-2.618-.147l-1.634-.047.006,0c-.156-.007-.337-.017-.554-.03a.925.925,0,0,1-.365-.106c-.115-.009-.2-.011-.291-.014a6.064,6.064,0,0,1-1.182-.144l-.586-.112h-.064l-.3,0a9.975,9.975,0,0,1-2.065-.418,5.118,5.118,0,0,1-1.3-.1l-.148-.063-.117-.081c-.5-.1-.916-.161-1.3-.22a13.012,13.012,0,0,1-1.8-.364l-.189-.056-.048-.123c-.42-.063-.832-.138-1.191-.229a1.437,1.437,0,0,1-.2-.087l-.129-.03c-.1-.017-.2-.03-.29-.041l-.636-.166-.019.1a6.156,6.156,0,0,1-1.394-.3l-2.566.171,1.238-.418c-.265-.11-.568-.225-.847-.33l-.078-.03-.529-.131.173,0a3.761,3.761,0,0,1-.485-.214c-.658-.14-1.386-.338-2.091-.53a16.992,16.992,0,0,0-2.539-.578,1.822,1.822,0,0,1-.739-.3.482.482,0,0,0-.067-.043l-.053-.028c-.283-.078-.576-.163-.852-.244a5.694,5.694,0,0,0-1.031-.278l-.129.033-.072-.058a1.464,1.464,0,0,1-.547-.312l-.291-.1.014-.057c-1.153-.473-2.191-.79-3.2-1.1-.894-.272-1.805-.55-2.805-.939l.127.143-1.739-.808c-1.146-.533-2.328-1.044-3.517-1.559a67.7,67.7,0,0,1-7.574-3.652,6.21,6.21,0,0,0-1.2-.55c-.154-.054-.316-.11-.528-.2l-.105-.044-.156-.219-.988-.391a12.6,12.6,0,0,1-1.918-1.12l.139.145-2.553-1.466A15.914,15.914,0,0,1,56.2,139.54a1.57,1.57,0,0,1-.486-.273l-.186-.152,0-.008c-.466-.244-.928-.493-1.385-.751-.387-.262-.673-.456-.714-.722a8.937,8.937,0,0,0-.749-.517c-.159-.1-.354-.211-.554-.322l-.065.275-.938-.561-.062.015-.148-.1.014-.031-.015-.009-.839-.177.321-.217h0l.685-.462h0c1.373-.922,3.537-2.325,6.326-3.967l-.177.05,2.84-1.6-.032.039.615-.343.1.15a13.7,13.7,0,0,0,1.21-.688,4.231,4.231,0,0,1,.987-.511c.215-.125.35-.208.435-.262l0-.033.255-.265.9-.447.543-.125.062-.1.11-.053a4.264,4.264,0,0,1,.444-.195.8.8,0,0,1,.191-.2l.1-.055c.35-.132.8-.357,1.225-.574.449-.226.769-.384,1.012-.48a3.131,3.131,0,0,1,.38-.229l.123-.068.14.025a3.222,3.222,0,0,0,.6-.29,6.884,6.884,0,0,1,1.088-.515l.745-.255c.178-.072.363-.142.546-.21.23-.087.455-.172.649-.256a5.849,5.849,0,0,1,1.4-.7c.411-.177.866-.373,1.273-.567l1.371-.654-.136.194,2.037-.724a7.766,7.766,0,0,1,1.44-.677c.216-.089.433-.178.629-.262l.562-.243v.133c.151-.071.327-.143.542-.224l1.556-.579-.125.136c.332-.129.676-.259,1.047-.384l-.029-.085.37-.3,1.252-.419,0,.078.514-.161.006.032,2.449-.6-.379.2.025,0a4.261,4.261,0,0,1,.418-.156c.052-.017.119-.039.181-.061l-.011-.081.327-.1a1.5,1.5,0,0,1,.543-.078c.22-.085.587-.2.944-.316.248-.079.563-.179.752-.246l-.025-.092.081-.027c1.019-.33,2.1-.574,3.151-.811.784-.177,1.595-.36,2.346-.572l.432-.122.008.057c.274-.064.557-.127.836-.19.71-.158,1.38-.307,1.83-.451a2.214,2.214,0,0,1,.826-.055l.346-.088a11.106,11.106,0,0,1,1.612-.307l.017.084.152-.017a9.045,9.045,0,0,0,1.4-.26l.077.226.038-.171a3.507,3.507,0,0,0,.493-.042l-.009-.08c.569-.1,1.072-.167,1.58-.235l1.676-.222-.246.168c.236-.038.467-.078.7-.118a21.893,21.893,0,0,1,2.294-.313.7.7,0,0,1,.2-.1l.087-.017a17.666,17.666,0,0,1,1.808-.017c.269.007.476.015.586,0a7.377,7.377,0,0,0,1.229-.147,6.515,6.515,0,0,1,1.143-.136,2.058,2.058,0,0,1,1.094-.249c.711-.016,1.154.033,1.323.265a3.462,3.462,0,0,1,.373.023l0-.058c.422,0,.782-.008,1.135-.021.474-.017.928-.033,1.473-.009a.537.537,0,0,1,.292-.054,4.786,4.786,0,0,0,1.288.015,3.351,3.351,0,0,1,.907-.056,1.132,1.132,0,0,1,.534.149h.232l-.609-.218,4.013.549.251.034a1.008,1.008,0,0,1,.637-.144h.041l.04.008c.187.035.453.055.716.075.657.051.98.084,1.17.249l.166.146a1.67,1.67,0,0,0,.253-.022,3.964,3.964,0,0,1,1.242,0l.452.042a4.035,4.035,0,0,1,.437.01c.128.026.239.047.339.064l.5.048.077-.014a4.2,4.2,0,0,1,1.068.066l.653.114c.256.041.519.1.789.164a9.182,9.182,0,0,0,1.425.25.948.948,0,0,1,.526.246c.2.022.372.048.525.076l.024-.143.208.017.158.014.036-.082a5.908,5.908,0,0,0,1.274.275,8.858,8.858,0,0,1,1.381.277l.4.121-.072.207c.525.124,1.036.207,1.656.3.559.095,1.114.213,1.708.362l.025,0a3.862,3.862,0,0,1,1.1.211c.277.075.569.154.817.2l.85.164-.184.146c.1.018.216.045.364.08a6.218,6.218,0,0,0,.953.175l.166-.081.094.1.812.354a9.189,9.189,0,0,0,1.585.378,10.1,10.1,0,0,1,1.632.385l3.227,1.038.019-.044c.089.048.184.095.285.142l.231.074-.091-.009c.676.3,1.546.6,2.273.842a18.169,18.169,0,0,1,2.655,1.117c.232.081.538.192.85.305.823.3,1.675.607,2.353.911l.6.268c.064.015.122.026.182.036a4.368,4.368,0,0,1,1.345.487c.143.088.357.223.4.417l.29.112a8.432,8.432,0,0,1,1.677.785l.174.118c.282.132.613.263.974.407.488.194,1.041.413,1.6.687l.228.11c.746.263,1.765.741,2.679,1.169l.749.35a4.853,4.853,0,0,1,.508.217l.089.058,2.689,1.244-1.508-.336c.216.1.422.2.592.3l.667.4c.211.1.389.174.564.249a12.816,12.816,0,0,1,1.332.645l.255.1a3.062,3.062,0,0,1,.911.489,2.594,2.594,0,0,0,.671.381l.116.049.223.315c.634.326,1.952,1,2.89,1.543l-.026.054c.483.258,1.027.581,1.652.979l.66.421-.183.072.095.069,1.608,1.117Z"/><path class="cls-40" d="M122.76,110.932c-.1,0-.179.008-.157.02C122.709,110.954,122.754,110.944,122.76,110.932Z"/><path class="cls-40" d="M135.471,115.6l-.273-.255C135.153,115.368,135.332,115.488,135.471,115.6Z"/><path class="cls-40" d="M140.049,119.638l.076.084a.605.605,0,0,0,.1.035Z"/><path class="cls-40" d="M142.547,123.384a.448.448,0,0,1,.187.159c.019-.009.034-.034.044-.081C142.726,123.369,142.61,123.394,142.547,123.384Z"/><path class="cls-40" d="M145.871,136.032l0,.075a.183.183,0,0,0,.062.016Z"/><path class="cls-40" d="M115.869,111.087h.02C116,111.056,115.936,111.068,115.869,111.087Z"/><path class="cls-40" d="M96.147,141.4c-.015-.46.309.686.248,0C96.368,141.473,96.07,140.837,96.147,141.4Z"/><path class="cls-40" d="M106.649,115.052a.3.3,0,0,0,.11-.021C106.749,115.024,106.723,115.026,106.649,115.052Z"/><path class="cls-40" d="M103.728,117.62a.993.993,0,0,0-.207.177.237.237,0,0,0,.04-.019A.5.5,0,0,1,103.728,117.62Z"/><path class="cls-40" d="M101.013,120.6l.063-.046.071-.106Z"/><path class="cls-40" d="M146.012,136.046c-.012.167-.061.426-.125.437l-.014-.376-.032-.017c0-.019,0-.039,0-.058a25.046,25.046,0,0,0-.394-4.394l.018.019-.026-.065c-.037-.206-.07-.413-.112-.617.025.014.053.053.081.16,0-.427-.142-.347-.136-.715,0-.042.016-.026.031.008l-.149-.385c.053.07.1-.094.136.156-.091-.738-.415-1.115-.363-1.418l.025.057c-.255-.69-.215-.421-.317-.468-.053-.164-.109-.325-.165-.487l.067-.361-.149-.053c-.032-.1-.095-.3-.036-.279-.207-.328-.039.054-.169-.094l-.02-.05a3.76,3.76,0,0,0-.27-.815c-.132-.268-.233-.5-.17-.588-.162-.125.145.464-.148.006.123-.227-.3-.546-.416-1,.158.079.3.5.182.039-.276-.172-.356-.832-.608-1.142-.136.057-.494-.7-.875-1.23a11.7,11.7,0,0,0-.971-1.571h.03c-.2,0-.52-.544-.861-.855.078-.042.165-.008.355.158-.089-.113-.192-.215-.287-.323a1.475,1.475,0,0,1-.415-.325l.156.008c-.4-.415-.856-.787-1.337-1.349-.068.031.054.284-.044.306-.09-.09-.184-.175-.275-.263.034-.009.082,0,.158.054a1.285,1.285,0,0,1-.29-.233l.294.142c-.22-.256-.184-.062-.376-.249.058-.053-.108-.174-.037-.194.056.041.151.181.248.228a2.88,2.88,0,0,1-.5-.622c-.011.052-.071.079-.242-.062-.429-.382-.084-.2-.306-.461-.131-.06-.391-.322-.474-.236a.393.393,0,0,1-.157-.226c-.271-.138-1.124-.822-.928-.52l.056.052-.042-.024c-.817-.523-1.657-1.15-2.5-1.629l.02-.033a10.73,10.73,0,0,0-1.563-.658c-.152-.074-.331-.24-.246-.251a9.863,9.863,0,0,1-1.036-.44c.442.089-.121-.11.446.11a4.121,4.121,0,0,0-1.243-.444c.232-.023-.365-.269-.632-.334l.356.206c-.294-.091-.542-.192-.8-.293l.179-.077a5.5,5.5,0,0,0-1.576-.375,4.978,4.978,0,0,1-1.364-.351c-.325.044.621.161.324.225a12.735,12.735,0,0,1-1.225-.4c-.729-.175-.71.065-1.474-.056.095.052.174.182-.4.2-.534-.045-.65-.232-.306-.253.13,0,.192.021.185.037.176-.008.408-.017.2-.079l-.074.044c-.265-.062-1.012-.095-.833-.164-.413.025-.178.069.124.109a10.454,10.454,0,0,0-1.8-.082c.114.02.22.071.107.076-1.05-.006-.459.113-1.164.169-.407-.051.132-.179-.578-.082-.441-.027-.1-.121.068-.168a14.562,14.562,0,0,1-1.6.118l.338-.09a4.684,4.684,0,0,1-.541.105l.209.064c-.2.014-.373.04-.375,0-.2.093.182.132-.212.278-.273,0-.8.161-.913.078.842-.113-.119-.117.588-.252a3.078,3.078,0,0,1-.507.078c-.033-.006.022-.034.076-.047-.817.08-.335.228-1.15.432.086-.095-.223-.081-.353-.032.331-.084.187.074-.1.2a4.074,4.074,0,0,0-.83.25l.319-.056a4.3,4.3,0,0,1-.69.308c-.047-.042.307-.153.174-.13-.349.26-.924.2-1.442.48-.27.047-.073-.115-.307-.064a13,13,0,0,0-1.286.545c.219,0,.239-.035-.156.258l.988-.55-.6.44a8.554,8.554,0,0,1,.815-.425c-.29.194-.259.176-.085.173-.474.069-.79.472-1.311.616l-.089-.218a4.068,4.068,0,0,0-1.028.525,8.408,8.408,0,0,1-1.116.734l.31-.14c-.072.153-.546.347-.815.555-.016-.082-.214,0-.364.04.047.038-.621.457-.6.641l-.437.2c-.7.479-.649.735-1.255,1.268.125-.229-.185-.023.179-.436-.2.182-.393.336-.36.38-.151.07-.486.585-.721.7a.8.8,0,0,1-.26.386c-.036.011-.026-.028-.026-.028.018.021-.3.374-.053.243a5.7,5.7,0,0,0-1.132,1.082l-.549.609a2.82,2.82,0,0,1-.465.48l-1.047,1.514c0-.043-.032-.024.028-.106-.447.593-.047.512-.551,1.184-.332.3.173-.417-.007-.214-.273-.027-.521.874-.9,1.311l.046-.131a17.723,17.723,0,0,0-.7,1.63s-.006-.041-.034-.02c-.122.478-.359,1.366-.566,2.01-.023-.232.056-.308-.086-.221-.091.291.187-.027.006.55-.117.168-.326.561-.432.59.043-.187.122-.363.182-.546-.251.229-.233.708-.324,1l-.05-.055c-.2.864-.053.912-.3,1.825l.07-.085c.035.531-.162.408-.135.936l-.179.128c-.014.343-.049,1.206-.073,1.809a8.272,8.272,0,0,1-.036-1.521,6.464,6.464,0,0,0-.111,1.326,1.666,1.666,0,0,1,.037-.441,10.2,10.2,0,0,1,.055,1.641c-.3-.134-.187,1.747-.34,2.242a16.8,16.8,0,0,1,.122,1.811c.069.615.131,1.26.246,1.951.159-.533.069.4.3.27a3.33,3.33,0,0,1,.1.463l-.007-.067.006.07h0l.1.984c-.01.244-.129-.287-.175-.245.16.7-.025.317.031.794.06-.117.182.208.253.613l-.036-.588c.36.93.061.885.511,1.8l-.182-.275a7.756,7.756,0,0,0,1.086,2.162c.014.094.006.231-.108.034a12.368,12.368,0,0,0,.947,1.712,10.209,10.209,0,0,1,.915,1.489l-.1-.048a3.091,3.091,0,0,1,.419.548c-.03,0-.105-.041-.044.047a4.026,4.026,0,0,1,.605.693l-.21-.169a7.326,7.326,0,0,0,.945,1.167c.331.293.665.547,1.015.905-.123.107.445.876.784,1.209l-.029.006a18.183,18.183,0,0,0,1.443,1.213c.464.353.979.618,1.51.986a4.869,4.869,0,0,0,.574.547c.244.2.555.375.867.577.636.387,1.3.838,1.881,1.14-.164-.115.091-.108.306-.025.258.164.805.253.7.379l-.1-.05a2.6,2.6,0,0,0,1.18.649l.153-.168a7,7,0,0,0,2.073.823,5.751,5.751,0,0,1,1.728.516,7.056,7.056,0,0,0,1,.085l-.036.109a16.14,16.14,0,0,0,2.312.331l-.223.069c.6.038.777-.286,1.32-.266l.157.177a11.355,11.355,0,0,0,3.1-.066c-.015.025-.041.075-.209.091.492.026,1.894-.111,1.685-.307.033.142,1.064-.136,1.595-.308l-.062.13a3.4,3.4,0,0,1,1.058-.5c.154-.024.154.052-.053.076.517-.072.363-.2.986-.3l-.207.127a1.291,1.291,0,0,0,.72-.321,2.266,2.266,0,0,1,1.065-.252,1.157,1.157,0,0,1,.595-.34c.054.021-.045.082-.095.112.879-.212,1.157-.655,1.762-.8a.125.125,0,0,0,.122.014c-.64.306-1.157.548-1.112.517.04.095.567-.139.21.19a8.364,8.364,0,0,1,1.551-.966.29.29,0,0,1,.083,0l-.047.036a1.32,1.32,0,0,0,.31-.17c.161-.078.264-.126.412-.214.1.039.588-.3.835-.449-.079-.084.25-.262-.1-.159.043-.017-.039.039-.2.142a1.135,1.135,0,0,0-.1.073l.012-.019-.6.375a1.665,1.665,0,0,1,.642-.44c.088-.137.186-.283.244-.36.418-.062,1.1-.392,1.232-.394.652-.59,1.659-1.235,1.9-1.8.165-.186.25-.145.34-.182a2.911,2.911,0,0,0-.257.3c.331-.373,1.073-1,1.057-1.188.5-.377-.151.346.439-.274l-.046.118a8.031,8.031,0,0,0,1.459-1.7,8.5,8.5,0,0,1,1.419-1.9c-.093.094-.139.14-.175.147a28.774,28.774,0,0,0,3.046-5.7,2.457,2.457,0,0,0,.236-1l.159-.085c.019-.212.018-.428.028-.641a4.416,4.416,0,0,1,.39-1.172,5.793,5.793,0,0,0,.228-.616,3.252,3.252,0,0,0,.07-.762l-.1.128c.076-.394.144-1.26.226-1.181a.37.37,0,0,1,0-.29l.065,0a6.272,6.272,0,0,0-.014-.988c.084-.759.244.139.313-.98C146.183,136.657,146.062,135.89,146.012,136.046Zm-12.229,21.805.013-.024a.2.2,0,0,1-.036.088c-.155.113-.221.127-.255.121Z"/><path class="cls-40" d="M133.977,157.611l.063-.048-.11.037-.039.065Z"/><path class="cls-40" d="M135.577,115.7a.2.2,0,0,1,.033.045c-.011-.015-.008-.018-.014-.028Z"/><path class="cls-40" d="M144.376,126.885c-.2-.92-.018.213-.347-.693.088.228.152.467.23.7C144.255,126.755,144.25,126.574,144.376,126.885Z"/><path class="cls-40" d="M143.178,124.08c-.153-.2-.195-.25-.084.027C143.284,124.454,143.147,124.073,143.178,124.08Z"/><path class="cls-40" d="M131.192,113.069l.077-.076C130.987,112.874,131.251,113.028,131.192,113.069Z"/><polygon class="cls-40" points="126.608 111.314 126.102 111.223 126.474 111.295 126.608 111.314"/><path class="cls-40" d="M101.367,119.958l.156.009C101.646,119.8,101.563,119.673,101.367,119.958Z"/><path class="cls-40" d="M96.3,130.749a1,1,0,0,0-.164.657C96.187,131.14,96.276,130.883,96.3,130.749Z"/><polygon class="cls-40" points="111.908 159.798 112.352 159.923 112.152 159.842 111.908 159.798"/><circle class="cls-39" cx="120.936" cy="136.032" r="5.895"/><path class="cls-40" d="M156.572,135.219l.017.061C156.609,135.271,156.584,135.246,156.572,135.219Z"/><path class="cls-40" d="M156,134.405l-.009-.016h-.031Z"/><polygon class="cls-40" points="155.089 131.66 155.102 131.66 155.111 131.63 155.089 131.66"/><path class="cls-40" d="M163.658,139.34c-.025.085-.1-.095-.117.028C163.559,139.351,163.654,139.438,163.658,139.34Z"/><path class="cls-40" d="M160.563,139.144l0-.009c-.011,0-.022,0-.033-.018C160.54,139.13,160.54,139.139,160.563,139.144Z"/><polygon class="cls-40" points="161.095 139.446 161.09 139.43 161.07 139.423 161.095 139.446"/><path class="cls-40" d="M163.894,140.307a2.154,2.154,0,0,1-.118-.468,2.6,2.6,0,0,0-.079-.383c-.09.112-.023-.063-.135-.013-.023-.048-.027-.067-.021-.074h0l.018-.175c.021-.048.042.039.066.026-.029-.114.034-.063.039-.148-.036.03-.073-.017-.081-.086l-.02.107c-.117-.13.049-.169-.072-.3l.055.035c-.051-.071-.117-.292-.241-.328.007-.019.029-.051.053-.02-.067-.194-.283-.363-.3-.528h.033c-.025-.029-.08-.032-.075-.088.012,0,.034,0,.027-.016s-.092-.064-.1-.115l.05.021c-.059-.192-.216-.224-.315-.354.077-.043.024-.191,0-.264l.012,0a2.049,2.049,0,0,0-.414-.445c.006-.162-.219-.386-.3-.585.007.035-.057.036-.087.012-.016-.05-.131-.07-.062-.113l.009.014c.007-.012,0-.023,0-.034a.13.13,0,0,0,.041-.063c-.057,0-.051.008-.041-.082l-.024.048c-.019-.026-.04-.051-.058-.075a.1.1,0,0,1,.051-.054l.092.073c.122-.073.092-.222.215-.343l-.049.032c-.024-.045.056-.088.072-.145.029.027.061.007.094,0-.025-.014.074-.1.017-.159l.086-.034c.094-.1-.007-.192.075-.3.015.057.071.021.048.112.025-.036.052-.066.03-.082.034-.008.021-.131.073-.146,0-.025-.037-.052-.009-.092.01,0,.017.01.017.01-.017-.01.017-.08-.043-.066.176-.053.182-.329.331-.381.034-.09.078-.2.115-.277.008.01.017.009.006.022.088-.09-.066-.117.031-.22.088-.035,0,.08.039.051.126.041.058-.156.165-.207l0,.024c.071-.046.027-.179.083-.28,0,0,.008.01.017.008a.83.83,0,0,1,.03-.353c.035.05.007.056.062.055.012-.049-.082-.017-.06-.113.038-.02.085-.079.14-.069l-.03.089c.083-.02.04-.115.068-.157l.027.016c.039-.14-.035-.167.018-.312l-.027.008c-.05-.1.062-.054.031-.151l.083,0a1.97,1.97,0,0,1,0-.335c.05.048.03.234.048.3.009-.03.059-.234.026-.271a.158.158,0,0,1-.01.1.477.477,0,0,1-.017-.312c.112-.046.135-.214.184-.385-.076.011-.139.011-.147-.029a2.126,2.126,0,0,1-.468.118,2.607,2.607,0,0,0-.382.079c.112.09-.063.023-.014.136-.047.022-.067.026-.074.02h0l-.174-.018c-.048-.021.039-.042.026-.066-.115.029-.064-.034-.148-.039.029.036-.018.073-.087.081l.108.02c-.131.117-.169-.049-.3.072l.035-.055c-.072.051-.293.117-.329.241-.019-.007-.05-.029-.02-.053-.193.067-.362.283-.527.3v-.034c-.03.025-.033.08-.088.075,0-.012,0-.034-.017-.027s-.063.092-.115.1l.022-.05c-.192.059-.224.216-.354.315-.044-.077-.191-.024-.265.005l0-.012a2.149,2.149,0,0,0-.445.414c-.162-.006-.386.219-.585.3.036-.007.037.057.013.087-.05.016-.071.131-.114.062l.015-.009h0l.013,0c-.083-.016-.235-.027-.293-.1a.056.056,0,0,1,0-.022h.011a.083.083,0,0,0-.051-.027.287.287,0,0,0-.052-.057c.017-.041-.073-.082-.11-.111-.029.048-.073.006-.054.077,0-.008.011,0,.037.015a.06.06,0,0,0,.02.007l-.006,0,.1.065c-.046,0-.092,0-.115-.057l-.105.036c-.006-.1-.082-.2-.069-.254-.134-.055-.289-.17-.421-.129-.041-.01-.023-.05-.027-.072.026,0,.048.019.067.013-.083-.02-.208-.119-.263-.065-.07-.08.084-.028-.042-.09l.028-.009c-.179-.243-.476-.061-.671-.334.014.018.022.026.02.039-.278-.221-.663-.259-.94-.481-.084-.056-.11-.017-.178,0v-.064l-.119.031c-.151,0-.189-.223-.393-.184l.01.046c-.059-.028-.205-.034-.181-.077-.009,0-.032.035-.051.008l.006-.031-.169.012c-.115-.052.05-.118-.127-.166-.07,0-.209.047-.188.074.026.007.064.034.059.065l-.063,0-.007.017-.009,0,0,.015c-.031.077-.067.153.047.237l.015,0c.021.087.045.172.068.256h0c.018.064.033.132.052.194l-.024,0,.029.022c.007.025.012.053.02.078a.032.032,0,0,1-.035-.015c-.019.077.045.048.021.118,0,.008-.01.006-.015,0l.045.055c-.021-.007-.052.029-.054-.013-.007.129.122.161.078.225l-.008-.008c.067.117.07.048.123.06l.022.058-.082.1.063-.007c0,.016.012.049-.013.053.062.043.021-.02.071,0-.02.1.111.2.03.254.054.008,0-.086.065-.019-.085.065.058.085.045.173-.058,0-.062-.076-.075.013.1,0,.045.141.088.192.02-.009.036,0,.05.017a.058.058,0,0,1-.05-.017.1.1,0,0,0-.032.024c.005.017.057,0,.083-.007.033.037.058.119.107.178-.025,0,.057.2.082.3l-.012,0c.073-.018.111.077.161.135a.083.083,0,0,1-.1-.01l.035.061a.116.116,0,0,1,.08.051l-.056.012c.05.079.149.13.18.251.033-.014.057-.079.1-.09l.029.052a.042.042,0,0,1-.047,0c.009.008.04.021.041.046l-.066-.019c.011.057.048,0,.067.044-.034.02-.007.042-.037.053-.009-.008-.006-.041-.028-.047a.214.214,0,0,1,.018.141.044.044,0,0,1,.068,0c.053.078-.022.053-.01.11.036,0,.045.069.095.038.014.023-.006.043-.013.06.048.026.132.183.153.1l0-.012.006,0c.137.1.16.288.273.4l-.016.011c.073.062.135.159.209.186.017.022.011.074-.014.079.026.023.045.033.062.048-.068.082-.059.173-.147.212a.041.041,0,0,0-.037-.006,1.215,1.215,0,0,1,.129-.153c-.041-.031-.106.037-.115-.065-.017.083-.027.235-.1.293a.051.051,0,0,1-.021,0v-.011a.084.084,0,0,0-.028.052.256.256,0,0,0-.057.051c-.041-.017-.081.073-.11.11.048.03,0,.074.076.054-.007,0,0-.011.016-.037a.06.06,0,0,0,.007-.02l0,.006.064-.1c0,.047,0,.092-.056.115l.036.1c-.1.006-.205.082-.254.069-.055.134-.17.29-.13.421-.01.041-.05.023-.072.027,0-.026.02-.048.014-.067-.021.083-.119.208-.065.263-.081.07-.029-.084-.09.042l-.01-.028c-.242.179-.06.476-.334.671.018-.014.027-.021.04-.02-.221.278-.26.663-.482.941-.055.083-.016.109,0,.177h-.063l.03.119c0,.151-.222.189-.184.393l.046-.01c-.028.06-.034.2-.076.181,0,.009.035.032.007.051l-.031-.006.012.169c-.051.115-.118-.05-.165.127,0,.07.047.209.073.188.008-.026.035-.063.066-.059l0,.063.017.007,0,.009.015,0c.078.031.153.067.238-.046l0-.016c.087-.021.171-.044.256-.068h0c.065-.018.132-.032.195-.052l0,.024.022-.029c.025-.007.052-.012.077-.02a.031.031,0,0,1-.015.035c.078.019.049-.045.118-.021.009,0,.007.01,0,.015l.056-.045c-.007.021.029.052-.014.054.13.007.162-.122.225-.078l-.007.008c.116-.067.048-.07.06-.123l.058-.022.1.082-.007-.063c.017,0,.05-.012.053.013.044-.062-.02-.021,0-.071.1.02.2-.111.253-.029.009-.055-.086,0-.019-.066.065.085.086-.058.173-.045,0,.059-.075.062.014.075,0-.1.141-.045.192-.088a.041.041,0,0,1,.016-.05.06.06,0,0,1-.016.05.1.1,0,0,0,.024.032c.016,0,0-.057-.007-.083.037-.033.119-.058.177-.107,0,.025.2-.057.3-.082l0,.012c-.018-.073.078-.111.135-.161a.082.082,0,0,1-.01.1l.061-.035a.116.116,0,0,1,.051-.08l.012.056c.08-.049.13-.149.252-.18-.014-.033-.08-.057-.09-.1.016-.011.034-.02.052-.03a.042.042,0,0,1,0,.047c.007-.009.021-.04.046-.041l-.019.066c.057-.011,0-.048.043-.067.02.034.042.007.054.037-.008.009-.041.006-.047.028a.214.214,0,0,1,.141-.018.043.043,0,0,1,0-.068c.077-.053.053.023.109.01,0-.035.07-.044.039-.094.023-.015.042,0,.06.012.026-.048.183-.132.1-.153l-.013,0,0-.006c.1-.137.289-.16.4-.273l.012.016c.062-.073.159-.135.186-.209a.06.06,0,0,1,.051,0s-.007.007,0,.013c.112.03.06.11.172.148,0-.057-.008-.051.082-.04l-.159-.083,0,0,.132.018c-.043-.034-.11-.048-.131-.075.052,0,.056,0,.057-.02l.01,0c.026.08.138.05.175.136l-.073.092c.073.121.222.091.343.214l-.032-.048c.045-.025.088.056.145.071-.027.03-.007.061,0,.095.014-.026.1.073.159.016l.034.086c.1.094.192-.007.295.075-.057.015-.021.071-.112.049.036.024.067.051.082.029.009.035.131.021.146.074.025,0,.052-.038.092-.009,0,.009-.01.016-.01.016.011-.016.08.017.066-.042.053.176.329.182.381.33.09.035.2.078.277.115-.01.008-.009.018-.022.006.091.089.117-.066.221.031.034.088-.081,0-.052.04-.041.125.156.057.207.164l-.023,0c.045.071.178.028.279.083a.021.021,0,0,0-.008.018.834.834,0,0,1,.354.029c-.051.035-.057.007-.056.063.049.011.017-.083.113-.06.02.037.079.084.069.139l-.089-.029c.02.083.115.039.157.068l-.016.027c.14.038.167-.036.312.017l-.008-.027c.1-.049.054.062.151.032l0,.083a1.851,1.851,0,0,1,.335,0c-.048.05-.234.03-.3.048.03.009.234.06.271.026a.158.158,0,0,1-.1-.009.471.471,0,0,1,.312-.018c.046.113.214.135.385.184C163.854,140.377,163.854,140.314,163.894,140.307Zm-7.222-3.969,0,.007a.063.063,0,0,1-.015-.026c.011-.03.026-.032.038-.029Zm2.544-2.852c.027.02.045.036.067.053l-.036.028a.12.12,0,0,1-.037-.045A.039.039,0,0,0,159.216,133.486Zm-.224-.226-.007,0a.092.092,0,0,1,.026-.016c.03.012.032.027.029.038Zm-3.668-.673c0-.006.008,0,.011,0l.009.024C155.337,132.6,155.33,132.6,155.324,132.587Zm.674,7.419c-.006,0,0-.008,0-.011l.025-.009C156.011,139.993,156.009,140,156,140.006Zm3.394-1.76,0-.014,0,.009Z"/><path class="cls-40" d="M158.923,133.275l-.013,0,.008.021.019-.008Z"/><polygon class="cls-40" points="156.565 135.195 156.567 135.184 156.564 135.191 156.565 135.195"/><path class="cls-40" d="M155.486,133.263l-.031-.116c-.012.027-.029.064-.055.015C155.4,133.327,155.433,133.115,155.486,133.263Z"/><path class="cls-40" d="M155.569,133.632c.035.028.044.035.04-.017C155.573,133.561,155.581,133.629,155.569,133.632Z"/><path class="cls-40" d="M157.02,135.893l-.045.027C157.012,135.954,156.991,135.908,157.02,135.893Z"/><path class="cls-40" d="M160.969,139.432l.017-.062C160.952,139.364,160.911,139.422,160.969,139.432Z"/><path class="cls-40" d="M162.885,140.219c-.041-.017-.076-.053-.1-.052A.079.079,0,0,0,162.885,140.219Z"/><path class="cls-40" d="M158.631,138.758l.061-.017C158.683,138.721,158.658,138.746,158.631,138.758Z"/><path class="cls-40" d="M157.816,139.33l-.016.009v.031Z"/><polygon class="cls-40" points="155.072 140.241 155.072 140.228 155.042 140.219 155.072 140.241"/><path class="cls-40" d="M162.751,131.672c.086.025-.095.1.028.117C162.762,131.771,162.85,131.676,162.751,131.672Z"/><path class="cls-40" d="M162.556,134.767l-.01,0c0,.011,0,.022-.017.033C162.541,134.79,162.551,134.79,162.556,134.767Z"/><polygon class="cls-40" points="162.857 134.235 162.842 134.24 162.835 134.26 162.857 134.235"/><path class="cls-40" d="M156.687,136.407l0,.013.021-.008-.008-.019Z"/><polygon class="cls-40" points="158.607 138.765 158.595 138.763 158.603 138.766 158.607 138.765"/><path class="cls-40" d="M156.558,139.876c.028.011.064.028.016.054.164,0-.047-.033.1-.086Z"/><path class="cls-40" d="M157.043,139.762c.029-.036.036-.045-.016-.041C156.973,139.758,157.041,139.749,157.043,139.762Z"/><path class="cls-40" d="M162.844,134.361l-.062-.017C162.775,134.378,162.833,134.419,162.844,134.361Z"/><path class="cls-40" d="M163.631,132.445c-.018.041-.054.076-.053.1A.079.079,0,0,0,163.631,132.445Z"/><path class="cls-40" d="M78.012,135.544l.017.061C78.05,135.6,78.025,135.571,78.012,135.544Z"/><path class="cls-40" d="M77.441,134.73l-.009-.016H77.4Z"/><polygon class="cls-40" points="76.53 131.986 76.542 131.985 76.551 131.955 76.53 131.986"/><path class="cls-40" d="M85.1,139.665c-.026.086-.1-.095-.117.028C85,139.676,85.1,139.763,85.1,139.665Z"/><path class="cls-40" d="M82,139.469l0-.009c-.011,0-.022,0-.033-.018C81.98,139.455,81.981,139.464,82,139.469Z"/><polygon class="cls-40" points="82.535 139.771 82.53 139.755 82.511 139.748 82.535 139.771"/><path class="cls-40" d="M85.217,140.164a2.633,2.633,0,0,0-.08-.383c-.09.112-.023-.063-.135-.013-.023-.048-.027-.067-.021-.074h0l.018-.175c.022-.048.042.04.066.026-.028-.114.034-.063.039-.148-.036.03-.073-.017-.08-.086l-.021.108c-.117-.131.049-.169-.072-.3l.055.035c-.051-.071-.117-.292-.24-.328.006-.019.029-.051.052-.02-.067-.193-.283-.362-.3-.528h.034c-.025-.029-.08-.032-.075-.087.012,0,.033,0,.027-.017s-.093-.064-.1-.115l.05.021c-.059-.191-.216-.224-.315-.354.076-.043.023-.19,0-.264l.012,0a2.1,2.1,0,0,0-.415-.445c.006-.162-.219-.386-.3-.585.006.035-.058.037-.088.012-.015-.049-.13-.07-.062-.113l.01.015c.006-.013,0-.023,0-.035a.125.125,0,0,0,.041-.063c-.057,0-.051.008-.04-.082l-.025.048c-.019-.026-.04-.051-.058-.075a.1.1,0,0,1,.052-.054l.092.074c.121-.074.092-.223.214-.344l-.048.033c-.025-.046.056-.089.072-.145.029.026.06.006.094,0-.026-.014.073-.1.017-.158l.085-.034c.094-.1-.007-.193.076-.3.014.057.07.022.048.113.025-.037.052-.067.029-.082.035-.009.021-.132.074-.147,0-.025-.037-.052-.009-.092.009,0,.016.01.016.01-.016-.01.017-.08-.042-.065.176-.053.182-.33.33-.381.035-.091.078-.2.116-.278.007.01.017.009.006.022.088-.09-.067-.117.03-.22.088-.035,0,.08.04.052.125.04.057-.156.164-.208l0,.024c.072-.046.028-.178.083-.28a.024.024,0,0,0,.018.009.832.832,0,0,1,.029-.354c.035.05.007.056.063.055.011-.048-.083-.016-.06-.113.037-.02.084-.079.139-.069l-.029.089c.083-.02.039-.115.068-.157l.027.016c.038-.14-.036-.167.017-.311l-.027.008c-.049-.1.062-.055.032-.152l.083,0a1.937,1.937,0,0,1,0-.334c.051.047.03.233.048.3.01-.031.06-.235.026-.271a.156.156,0,0,1-.009.1.47.47,0,0,1-.017-.312c.112-.046.134-.214.183-.385-.076.011-.139.011-.146-.029a2.154,2.154,0,0,1-.468.118,2.625,2.625,0,0,0-.383.079c.112.09-.063.023-.013.136-.048.022-.067.026-.074.02h0l-.175-.018c-.048-.021.039-.041.026-.066-.114.029-.063-.033-.148-.038.03.035-.017.073-.086.08l.107.021c-.13.117-.169-.049-.3.072l.035-.055c-.071.05-.292.116-.328.24-.019-.007-.051-.029-.02-.052-.194.067-.362.282-.528.3v-.034c-.029.025-.032.08-.087.075,0-.012,0-.033-.017-.027s-.064.092-.115.1l.021-.05c-.191.059-.224.216-.354.315-.043-.076-.19-.023-.264,0l0-.012a2.124,2.124,0,0,0-.445.414c-.162-.006-.386.22-.585.3.035-.007.036.058.012.087-.05.016-.07.131-.113.063l.014-.01h0a.039.039,0,0,1,.013,0c-.083-.016-.236-.027-.294-.1a.076.076,0,0,1,0-.021h.011a.088.088,0,0,0-.051-.027.256.256,0,0,0-.051-.057c.016-.041-.074-.081-.11-.11-.03.048-.074.005-.055.076,0-.008.011,0,.038.015a.049.049,0,0,0,.019.007l0,0,.095.065c-.046,0-.091,0-.114-.057l-.1.036c-.006-.1-.083-.2-.069-.254-.135-.055-.29-.17-.422-.129-.041-.01-.022-.05-.026-.072.025,0,.048.02.066.014-.082-.021-.208-.12-.263-.066-.069-.08.084-.028-.041-.089l.027-.01c-.178-.242-.475-.061-.671-.334.015.018.022.027.02.039-.277-.221-.662-.259-.94-.481-.083-.056-.11-.016-.178,0V132.2l-.119.031c-.15,0-.188-.222-.393-.184l.011.046c-.06-.028-.2-.034-.182-.077-.008.006-.032.035-.051.008l.007-.031-.169.012c-.116-.052.049-.118-.128-.166-.07,0-.208.048-.188.074.027.007.064.034.059.066l-.063,0-.006.017-.009,0,0,.015c-.031.078-.068.153.046.237l.015,0c.022.086.045.171.068.255h0c.017.064.032.132.051.2l-.023,0,.028.022c.008.025.013.053.021.078a.032.032,0,0,1-.035-.015c-.019.077.045.048.02.118,0,.008-.009.007-.014,0l.045.055c-.021-.007-.052.029-.054-.013-.008.129.121.162.078.225l-.008-.008c.066.117.069.048.123.06l.022.058-.082.1.062-.007c.005.016.013.05-.012.053.062.043.02-.02.07,0-.02.1.111.2.03.254.054.008,0-.086.066-.019-.085.065.057.085.045.173-.059,0-.062-.076-.075.013.1,0,.044.142.088.192.02-.009.035,0,.05.017a.056.056,0,0,1-.05-.017.123.123,0,0,0-.033.024c.006.017.058,0,.083-.007.033.037.059.12.108.178-.025,0,.056.2.082.295l-.012,0c.073-.018.11.078.16.135a.08.08,0,0,1-.1-.01l.035.061a.12.12,0,0,1,.08.051l-.057.012c.05.079.15.13.181.252.032-.015.056-.08.1-.091l.03.052a.041.041,0,0,1-.047,0c.008.008.039.021.04.046l-.065-.019c.01.058.047.005.067.044-.034.02-.007.042-.037.053-.009-.007-.007-.041-.028-.047a.213.213,0,0,1,.017.141.045.045,0,0,1,.069,0c.052.077-.023.052-.01.109.035,0,.044.069.094.038.015.023-.005.043-.013.06.048.027.132.184.154.1l0-.012.007,0c.136.1.159.288.273.4l-.016.011c.073.062.134.16.209.187.017.021.011.073-.015.078.027.023.045.033.062.049-.068.082-.059.173-.146.212a.042.042,0,0,0-.037-.007,1.169,1.169,0,0,1,.128-.153c-.04-.031-.1.037-.115-.065-.016.083-.027.235-.1.294a.085.085,0,0,1-.022,0V136.5a.078.078,0,0,0-.027.051.256.256,0,0,0-.057.051c-.041-.016-.082.074-.11.11.047.03,0,.074.076.054-.008,0,0-.011.015-.037a.064.064,0,0,0,.007-.019l0,0,.065-.095c0,.046,0,.091-.057.114l.036.105c-.1.006-.2.082-.254.069-.055.135-.17.29-.129.421-.01.042-.05.023-.072.027,0-.025.019-.048.014-.067-.021.083-.12.208-.066.263-.08.07-.028-.084-.09.042l-.009-.028c-.242.179-.061.476-.334.671.018-.014.026-.021.039-.019-.221.277-.259.662-.481.94-.056.083-.017.11,0,.178l-.064,0,.031.119c0,.151-.222.189-.184.393l.046-.01c-.028.06-.034.205-.077.182.006.008.035.032.008.05l-.031-.006.012.169c-.052.115-.118-.05-.166.127,0,.07.048.209.074.188.007-.026.034-.063.065-.059l0,.064.017.006,0,.009.015,0c.077.031.153.067.237-.046l0-.016c.086-.021.171-.044.255-.068h0c.064-.018.132-.032.195-.051l0,.023.022-.028c.025-.008.053-.013.078-.021a.032.032,0,0,1-.015.035c.077.019.048-.045.118-.021.008,0,.007.01,0,.015l.055-.045c-.007.021.029.052-.013.054.129.007.162-.122.225-.078l-.008.008c.117-.067.048-.069.06-.123l.058-.022.1.082L77.9,140.2c.016,0,.05-.012.053.013.043-.062-.02-.021,0-.071.1.02.2-.11.254-.029.008-.055-.086,0-.019-.066.065.085.085-.058.173-.045,0,.059-.076.062.013.075,0-.1.141-.045.192-.088-.009-.02,0-.036.017-.05a.058.058,0,0,1-.017.05.117.117,0,0,0,.024.033c.017-.006,0-.058-.007-.083.037-.034.119-.059.178-.108,0,.025.2-.057.3-.082l0,.012c-.018-.073.078-.11.135-.16a.08.08,0,0,1-.01.1l.061-.035a.116.116,0,0,1,.051-.08l.012.057c.079-.05.13-.15.252-.181-.015-.033-.08-.056-.091-.1l.052-.03a.041.041,0,0,1,0,.047c.008-.009.021-.04.046-.041l-.019.066c.058-.011,0-.048.044-.067.02.034.042.007.053.037-.008.009-.041.007-.047.028a.207.207,0,0,1,.141-.017.045.045,0,0,1,0-.069c.078-.052.053.023.11.01,0-.035.069-.044.038-.094.023-.015.043,0,.06.013.027-.048.183-.133.1-.154l-.012,0,0-.007c.1-.136.288-.159.4-.273l.011.016c.062-.073.16-.135.186-.209a.06.06,0,0,1,.051-.005s-.006.007,0,.013c.112.03.06.11.172.148,0-.057-.008-.051.083-.04l-.159-.082,0,0,.133.017c-.044-.034-.11-.048-.131-.075.052,0,.056,0,.057-.019l.01,0c.026.081.138.051.175.136l-.074.092c.074.122.223.092.344.214l-.033-.048c.046-.025.089.056.145.072-.027.029-.007.06,0,.094.014-.025.1.073.158.017l.034.085c.1.094.192-.007.3.076-.056.014-.021.07-.112.048.037.025.067.052.082.029.009.035.132.021.147.074.025,0,.051-.037.092-.009a.024.024,0,0,1-.01.016c.01-.016.079.017.065-.042.053.176.329.182.381.33.091.035.2.079.278.116-.011.008-.01.017-.022.006.09.088.117-.067.22.03.034.088-.08,0-.052.04-.04.125.156.057.208.164l-.024,0c.046.071.178.027.279.082a.024.024,0,0,0-.008.018.851.851,0,0,1,.354.029c-.05.035-.057.007-.056.063.049.011.017-.083.114-.06.02.038.079.084.069.139l-.09-.029c.021.083.116.039.158.068l-.017.027c.141.038.167-.035.312.017l-.008-.027c.1-.049.055.063.152.032l0,.083a1.937,1.937,0,0,1,.334,0c-.047.051-.233.03-.3.048.031.01.235.06.271.026a.156.156,0,0,1-.1-.009.47.47,0,0,1,.312-.017c.046.112.214.134.384.183-.01-.076-.011-.139.03-.146A2.1,2.1,0,0,1,85.217,140.164Zm-7.105-3.5,0,.007a.08.08,0,0,1-.016-.026c.012-.03.027-.032.039-.028Zm2.545-2.852.066.053-.036.028a.124.124,0,0,1-.037-.044A.042.042,0,0,0,80.657,133.811Zm-.225-.226-.007,0a.1.1,0,0,1,.027-.016c.03.012.032.027.028.039Zm-3.668-.673c0-.006.008,0,.011,0l.009.024C76.778,132.925,76.771,132.923,76.764,132.912Zm.675,7.419c-.006,0,0-.007,0-.01l.024-.01C77.451,140.318,77.449,140.325,77.439,140.331Zm3.394-1.76,0-.013,0,.008Z"/><path class="cls-40" d="M80.364,133.6l-.013,0,.008.021.019-.008Z"/><polygon class="cls-40" points="78.006 135.52 78.008 135.509 78.005 135.516 78.006 135.52"/><path class="cls-40" d="M76.926,133.588l-.031-.116c-.012.027-.028.064-.054.015C76.84,133.652,76.874,133.44,76.926,133.588Z"/><path class="cls-40" d="M77.009,133.957c.035.029.044.035.041-.016C77.013,133.887,77.022,133.955,77.009,133.957Z"/><path class="cls-40" d="M78.46,136.219l-.044.026C78.452,136.279,78.432,136.233,78.46,136.219Z"/><path class="cls-40" d="M82.409,139.758l.018-.063C82.392,139.689,82.351,139.747,82.409,139.758Z"/><path class="cls-40" d="M84.325,140.544c-.041-.017-.075-.053-.1-.052A.078.078,0,0,0,84.325,140.544Z"/><path class="cls-40" d="M80.071,139.083l.061-.017C80.124,139.046,80.1,139.071,80.071,139.083Z"/><path class="cls-40" d="M79.257,139.655l-.016.009v.031Z"/><polygon class="cls-40" points="76.513 140.566 76.512 140.554 76.482 140.545 76.513 140.566"/><path class="cls-40" d="M84.192,132c.086.025-.095.1.028.117C84.2,132.1,84.29,132,84.192,132Z"/><path class="cls-40" d="M84,135.092l-.009,0c0,.011,0,.022-.018.033C83.982,135.116,83.991,135.115,84,135.092Z"/><polygon class="cls-40" points="84.298 134.56 84.282 134.566 84.275 134.585 84.298 134.56"/><path class="cls-40" d="M78.127,136.732l0,.013.021-.008-.008-.019Z"/><polygon class="cls-40" points="80.047 139.09 80.036 139.088 80.043 139.091 80.047 139.09"/><path class="cls-40" d="M78,140.2c.027.012.064.028.015.054.165,0-.047-.033.1-.086Z"/><path class="cls-40" d="M78.484,140.087c.029-.036.035-.044-.016-.041C78.414,140.083,78.482,140.074,78.484,140.087Z"/><path class="cls-40" d="M84.285,134.686l-.063-.017C84.216,134.7,84.274,134.745,84.285,134.686Z"/><path class="cls-40" d="M85.071,132.77c-.017.041-.053.076-.052.1A.078.078,0,0,0,85.071,132.77Z"/><path class="cls-41" d="M164.084,71.255h0a9.563,9.563,0,0,0,5.949,5.948h0a9.563,9.563,0,0,0-5.949,5.948h0a9.559,9.559,0,0,0-5.948-5.948h0a9.559,9.559,0,0,0,5.948-5.948Z"/><rect class="cls-39" x="163.58" y="51.933" width="1" height="16.852"/><rect class="cls-39" x="163.58" y="85.622" width="1" height="16.852"/><rect class="cls-39" x="172.499" y="76.703" width="16.852" height="1"/><rect class="cls-39" x="138.809" y="76.703" width="16.852" height="1"/><rect class="cls-39" x="172.512" y="81.922" width="1" height="8.426" transform="translate(-10.232 147.566) rotate(-45)"/><rect class="cls-39" x="154.648" y="64.058" width="1" height="8.426" transform="translate(-2.833 129.702) rotate(-45)"/><rect class="cls-39" x="168.799" y="67.771" width="8.426" height="1" transform="translate(2.399 142.334) rotate(-45)"/><rect class="cls-39" x="150.935" y="85.635" width="8.426" height="1" transform="translate(-15.465 134.934) rotate(-45)"/></g></g></svg>