<svg xmlns="http://www.w3.org/2000/svg" xmlns:xlink="http://www.w3.org/1999/xlink" width="388.13" height="45.058" viewBox="0 0 388.13 45.058"><defs><style>.cls-1{fill:url(#linear-gradient);}</style><linearGradient id="linear-gradient" x1="90.688" y1="-80.848" x2="297.442" y2="125.906" gradientUnits="userSpaceOnUse"><stop offset="0" stop-color="#ff7f2c"/><stop offset="0.096" stop-color="#ff754c"/><stop offset="0.245" stop-color="#ff6878"/><stop offset="0.396" stop-color="#ff5d9c"/><stop offset="0.546" stop-color="#ff55b8"/><stop offset="0.697" stop-color="#ff4fcc"/><stop offset="0.848" stop-color="#ff4bd8"/><stop offset="1" stop-color="#ff4adc"/></linearGradient></defs><g id="Layer_2" data-name="Layer 2"><g id="Layer_1-2" data-name="Layer 1"><path class="cls-1" d="M9.36.479h6.48c2.82,0,5.46.661,7.2,2.761s2.521,5.4,1.381,10.44-3.24,8.279-5.82,10.379a13.1,13.1,0,0,1-8.4,2.879L6.48,44.578H0Zm2.22,19.86c1.98,0,3.359-.36,4.26-1.38.96-.96,1.439-2.58,1.979-5.04s.721-4.14.241-5.279c-.48-1.02-1.68-1.56-3.66-1.56ZM32.7,44.578l.54-18.6H31.5l-3.9,18.6H21.119l9.36-44.1h6.48C44.7.479,47.039,4.8,45.3,13.2c-.96,4.38-2.941,8.34-5.76,10.02l-.36,21.359Zm.12-24.6a4.89,4.89,0,0,0,3.24-.959c1.14-.9,2.28-2.46,2.94-5.581s.24-4.74-.54-5.639a3.552,3.552,0,0,0-2.88-.9Zm28.74,15.54a16.636,16.636,0,0,1-2.1,4.8,13.038,13.038,0,0,1-3.3,3.241,8.848,8.848,0,0,1-5.279,1.5,6.619,6.619,0,0,1-4.74-1.5,5.688,5.688,0,0,1-1.8-3.241,9.877,9.877,0,0,1-.061-4.8L49.8,9.54A14.547,14.547,0,0,1,51.84,4.8a12.961,12.961,0,0,1,3.239-3.3A9.678,9.678,0,0,1,60.419,0,6.812,6.812,0,0,1,65.1,1.5a5.934,5.934,0,0,1,1.86,3.3,10.287,10.287,0,0,1,.12,4.74ZM60.6,9.54a3.68,3.68,0,0,0-.3-2.761A1.488,1.488,0,0,0,59.1,6.3a2.672,2.672,0,0,0-2.281,1.62,6.4,6.4,0,0,0-.54,1.62L50.76,35.519a3.22,3.22,0,0,0,.3,2.759,1.359,1.359,0,0,0,1.139.481,2.481,2.481,0,0,0,2.28-1.62,7.855,7.855,0,0,0,.6-1.62ZM78,14.579l.061.42h.12l.3-.42L84.718.479h6.36l-12,25.32-3.96,18.779H68.639L72.6,25.8,71.4.479h6.361ZM93.9.479h14.82L107.277,7.14H98.938L96.479,18.719h6l-1.5,7.08h-6L92.4,37.918h8.34l-1.38,6.66H84.539ZM123,29.459l-1.261,6.06a16.607,16.607,0,0,1-2.1,4.8,13.055,13.055,0,0,1-3.3,3.241,8.85,8.85,0,0,1-5.279,1.5,6.621,6.621,0,0,1-4.741-1.5,5.692,5.692,0,0,1-1.8-3.241,9.877,9.877,0,0,1-.061-4.8L109.978,9.54a14.526,14.526,0,0,1,2.04-4.74,12.961,12.961,0,0,1,3.239-3.3A9.678,9.678,0,0,1,120.6,0a6.807,6.807,0,0,1,4.679,1.5,5.935,5.935,0,0,1,1.861,3.3,10.287,10.287,0,0,1,.12,4.74l-1.32,6.06h-6.06l1.32-6.06a3.215,3.215,0,0,0-.421-2.761A1.729,1.729,0,0,0,119.4,6.3a2.844,2.844,0,0,0-2.339,1.62,11.836,11.836,0,0,0-.6,1.62l-5.519,25.979a3.681,3.681,0,0,0,.419,2.759,1.363,1.363,0,0,0,1.14.481,2.717,2.717,0,0,0,2.58-1.62,7.855,7.855,0,0,0,.6-1.62l1.26-6.06Zm6.36-22.319L130.8.479h18.72L148.076,7.14h-6.119l-7.92,37.438h-6.48l7.92-37.438Zm32.1,28.379a16.582,16.582,0,0,1-2.1,4.8,13.034,13.034,0,0,1-3.3,3.241,8.851,8.851,0,0,1-5.28,1.5,6.62,6.62,0,0,1-4.74-1.5,5.7,5.7,0,0,1-1.8-3.241,9.866,9.866,0,0,1-.06-4.8L149.7,9.54a14.547,14.547,0,0,1,2.04-4.74,12.982,12.982,0,0,1,3.24-3.3A9.672,9.672,0,0,1,160.316,0,6.808,6.808,0,0,1,165,1.5a5.928,5.928,0,0,1,1.86,3.3,10.3,10.3,0,0,1,.121,4.74ZM160.5,9.54a3.68,3.68,0,0,0-.3-2.761A1.487,1.487,0,0,0,159,6.3a2.67,2.67,0,0,0-2.279,1.62,6.4,6.4,0,0,0-.54,1.62l-5.52,25.979a3.227,3.227,0,0,0,.3,2.759,1.361,1.361,0,0,0,1.14.481,2.484,2.484,0,0,0,2.28-1.62,7.855,7.855,0,0,0,.6-1.62Zm12.66,35.038,9.36-44.1h5.1c6,0,8.88,1.2,10.02,4.561.96,3.359.059,8.819-1.8,17.519-1.86,8.639-3.24,14.1-5.64,17.46-2.46,3.359-5.94,4.559-11.939,4.559Zm7.8-6.479c2.221,0,3.54-.241,4.68-2.4a38.866,38.866,0,0,0,2.46-8.4c.3-1.38.6-3,1.02-4.8.36-1.8.72-3.42,1.02-4.859.6-2.821,1.32-6.18,1.08-8.34-.18-2.1-1.38-2.34-3.6-2.34ZM204.836.479h14.819l-1.44,6.661h-8.34l-2.459,11.579h6l-1.5,7.08h-6l-2.58,12.119h8.34l-1.38,6.66H195.477Zm34.678,15.84,1.439-6.779a3.68,3.68,0,0,0-.3-2.761,1.487,1.487,0,0,0-1.2-.479,2.67,2.67,0,0,0-2.279,1.62,6.4,6.4,0,0,0-.54,1.62l-5.64,26.519a3.227,3.227,0,0,0,.3,2.759,1.361,1.361,0,0,0,1.14.48,2.482,2.482,0,0,0,2.28-1.619,7.805,7.805,0,0,0,.6-1.62l1.681-7.98h-2.58l1.14-5.46h9.059l-4.62,21.959h-3.84l-.359-2.1a8.111,8.111,0,0,1-5.58,2.579,5.512,5.512,0,0,1-4.319-1.5,5.684,5.684,0,0,1-1.561-3.241,10.368,10.368,0,0,1,.3-4.8l5.52-25.979a14.547,14.547,0,0,1,2.04-4.74,12.982,12.982,0,0,1,3.24-3.3A9.672,9.672,0,0,1,240.773,0a6.808,6.808,0,0,1,4.68,1.5,5.928,5.928,0,0,1,1.86,3.3,10.3,10.3,0,0,1,.121,4.74l-1.441,6.779Zm16.8,28.259.541-18.6h-1.741l-3.9,18.6h-6.48l9.36-44.1h6.479c7.739,0,10.079,4.321,8.34,12.72-.96,4.38-2.94,8.34-5.76,10.02l-.36,21.359Zm.121-24.6a4.889,4.889,0,0,0,3.239-.959c1.14-.9,2.28-2.46,2.94-5.581s.241-4.74-.54-5.639a3.551,3.551,0,0,0-2.88-.9Zm8.159,24.6L280.612.479h7.92l-2.7,44.1h-6.3l.66-9h-6.239l-3.06,9Zm17.279-29.759.061-1.139h-.361l-.42,1.139-4.8,13.92h4.44Zm6.96,29.759,9.36-44.1h5.1c6,0,8.88,1.2,10.02,4.561.959,3.359.059,8.819-1.8,17.519-1.861,8.639-3.241,14.1-5.64,17.46-2.46,3.359-5.94,4.559-11.939,4.559Zm7.8-6.479c2.221,0,3.54-.241,4.68-2.4a38.812,38.812,0,0,0,2.459-8.4c.3-1.38.6-3,1.021-4.8.36-1.8.72-3.42,1.02-4.859.6-2.821,1.32-6.18,1.08-8.34-.18-2.1-1.38-2.34-3.6-2.34Zm33.3-2.58a16.636,16.636,0,0,1-2.1,4.8,13.038,13.038,0,0,1-3.3,3.241,8.846,8.846,0,0,1-5.279,1.5,6.619,6.619,0,0,1-4.74-1.5,5.688,5.688,0,0,1-1.8-3.241,9.877,9.877,0,0,1-.061-4.8L318.173,9.54a14.547,14.547,0,0,1,2.04-4.74,12.961,12.961,0,0,1,3.239-3.3,9.678,9.678,0,0,1,5.34-1.5,6.812,6.812,0,0,1,4.68,1.5,5.934,5.934,0,0,1,1.86,3.3,10.287,10.287,0,0,1,.12,4.74Zm-.96-25.979a3.68,3.68,0,0,0-.3-2.761,1.488,1.488,0,0,0-1.2-.479,2.672,2.672,0,0,0-2.281,1.62,6.4,6.4,0,0,0-.54,1.62l-5.519,25.979a3.22,3.22,0,0,0,.3,2.759,1.359,1.359,0,0,0,1.139.481,2.483,2.483,0,0,0,2.281-1.62,7.922,7.922,0,0,0,.6-1.62Zm12.659,35.038,9.36-44.1h5.1c6,0,8.88,1.2,10.019,4.561.96,3.359.06,8.819-1.8,17.519-1.861,8.639-3.241,14.1-5.64,17.46-2.46,3.359-5.941,4.559-11.94,4.559Zm7.8-6.479c2.22,0,3.54-.241,4.68-2.4a38.812,38.812,0,0,0,2.459-8.4c.3-1.38.6-3,1.021-4.8.36-1.8.72-3.42,1.019-4.859.6-2.821,1.321-6.18,1.08-8.34-.179-2.1-1.379-2.34-3.6-2.34ZM373.311.479H388.13L386.689,7.14H378.35l-2.459,11.579h6l-1.5,7.08h-6l-2.58,12.119h8.339l-1.379,6.66h-14.82Z"/></g></g></svg>