<svg xmlns="http://www.w3.org/2000/svg" xmlns:xlink="http://www.w3.org/1999/xlink" width="32.758" height="46.486" viewBox="0 0 32.758 46.486"><defs><style>.cls-1{fill:url(#linear-gradient);}</style><linearGradient id="linear-gradient" y1="23.243" x2="32.758" y2="23.243" gradientUnits="userSpaceOnUse"><stop offset="0" stop-color="#ff7f2c"/><stop offset="0.096" stop-color="#ff754c"/><stop offset="0.245" stop-color="#ff6878"/><stop offset="0.396" stop-color="#ff5d9c"/><stop offset="0.546" stop-color="#ff55b8"/><stop offset="0.697" stop-color="#ff4fcc"/><stop offset="0.848" stop-color="#ff4bd8"/><stop offset="1" stop-color="#ff4adc"/></linearGradient></defs><g id="Layer_2" data-name="Layer 2"><g id="Layer_1-2" data-name="Layer 1"><path class="cls-1" d="M27.875,34.526c-.167-.238-.342-.566-.546-.824l.5-.315,2.428-1.535c1.214-.768,2.628-1.59,2.5-3.236-.124-1.535-1.858-2.839-2.839-3.875-2.151-2.272-4.39-4.457-6.678-6.591.471-.375.931-.765,1.373-1.175.848-.787,1.957-1.714,2.095-2.941.278-2.471-3.072-3.754-4.761-4.8Q14.681,4.724,7.41.236c-1.335-.824-2.551.676-2.1,1.927Q3.755,1.2,2.2.236C.82-.616-.439,1.017.147,2.288a58.517,58.517,0,0,0,4.593,8.2q.625.928,1.288,1.832A13.659,13.659,0,0,0,7.107,13.83c-.313.109-.65.335-.917.457L3.707,15.422a1.515,1.515,0,0,0-.3,2.355l9.551,10.849-1.587.448a3.933,3.933,0,0,0-2.629,1.553,2.331,2.331,0,0,0,.558,2.8c.931,1,1.985,1.922,2.994,2.847a117.117,117.117,0,0,0,12.3,9.807,1.314,1.314,0,0,0,.358.232,1.209,1.209,0,0,0,1.11.069c1.135-.175,1.477-.962,1.417-1.972.772.563,1.542,1.127,2.326,1.672a1.313,1.313,0,0,0,.357.231,1.211,1.211,0,0,0,1.111.069c3.264-.5.045-6.022-.776-7.574A40.368,40.368,0,0,0,27.875,34.526Zm-3.737-5.649c-.334.218-.675.427-1.012.64L21.1,30.8c-1.043.66-2.337,1.38-2.309,2.8.025,1.234,1.251,2.371,1.895,3.345a40.289,40.289,0,0,1,2.206,3.767c.123.237.23.481.348.721q-3.492-2.589-6.777-5.442-2.205-1.924-4.308-3.963c.27-.1.537-.209.693-.253l3.2-.9a1.518,1.518,0,0,0,.662-2.507L6.916,17.237l1.465-.669a3.9,3.9,0,0,0,1.918-1.29c1-1.651-.795-3.261-1.681-4.471a56.841,56.841,0,0,1-3.341-5.14q3.311,2.046,6.619,4.1,2.7,1.672,5.393,3.347a10.291,10.291,0,0,1,1.108.67,12,12,0,0,1-.958.922,22.328,22.328,0,0,1-2.49,2.028,1.519,1.519,0,0,0-.3,2.355q3.42,3.123,6.652,6.442c1.021,1.051,2.094,2.095,3.04,3.218C24.271,28.788,24.206,28.836,24.138,28.877Z"/></g></g></svg>