<svg xmlns="http://www.w3.org/2000/svg" width="23.69" height="31.16" viewBox="0 0 23.69 31.16"><defs><style>.cls-1{isolation:isolate;}.cls-2{fill:#ff4adc;mix-blend-mode:multiply;}</style></defs><g class="cls-1"><g id="Layer_2" data-name="Layer 2"><g id="Layer_1-2" data-name="Layer 1"><path class="cls-2" d="M16.75,9.35h0a11.18,11.18,0,0,1-6.94,6.94h0a11.18,11.18,0,0,1,6.94,6.94h0a11.18,11.18,0,0,1,6.94-6.94h0a11.18,11.18,0,0,1-6.94-6.94Z"/><path class="cls-2" d="M4,23.23H4a6.35,6.35,0,0,1-4,4H0a6.36,6.36,0,0,1,4,4H4a6.37,6.37,0,0,1,4-4h0a6.37,6.37,0,0,1-4-4Z"/><path class="cls-2" d="M5.84,0h0a6.34,6.34,0,0,1-4,4h0a6.35,6.35,0,0,1,4,4h0a6.37,6.37,0,0,1,4-4h0a6.35,6.35,0,0,1-4-4Z"/></g></g></g></svg>