<svg xmlns="http://www.w3.org/2000/svg" xmlns:xlink="http://www.w3.org/1999/xlink" width="418.37" height="44.94" viewBox="0 0 418.37 44.94"><defs><style>.cls-1{fill:url(#linear-gradient);}</style><linearGradient id="linear-gradient" y1="22.47" x2="418.37" y2="22.47" gradientUnits="userSpaceOnUse"><stop offset="0" stop-color="#ff7f2c"/><stop offset="0.1" stop-color="#ff754c"/><stop offset="0.24" stop-color="#ff6878"/><stop offset="0.4" stop-color="#ff5d9c"/><stop offset="0.55" stop-color="#ff55b8"/><stop offset="0.7" stop-color="#ff4fcc"/><stop offset="0.85" stop-color="#ff4bd8"/><stop offset="1" stop-color="#ff4adc"/></linearGradient></defs><g id="Layer_2" data-name="Layer 2"><g id="Layer_1-2" data-name="Layer 1"><path class="cls-1" d="M9.34.48H15.8l-8.08,38h8.56l-1.26,6H0Zm27,35a16.29,16.29,0,0,1-2.09,4.79A13.14,13.14,0,0,1,31,43.45a8.81,8.81,0,0,1-5.27,1.49A6.6,6.6,0,0,1,21,43.45a5.73,5.73,0,0,1-1.79-3.23,9.83,9.83,0,0,1-.06-4.79L24.66,9.52a14.27,14.27,0,0,1,2-4.73A12.92,12.92,0,0,1,29.92,1.5,9.64,9.64,0,0,1,35.25,0a6.8,6.8,0,0,1,4.67,1.5,6,6,0,0,1,1.85,3.29,10.24,10.24,0,0,1,.12,4.73Zm-1-25.91a3.68,3.68,0,0,0-.3-2.76,1.48,1.48,0,0,0-1.2-.47A2.65,2.65,0,0,0,31.66,7.9a6.43,6.43,0,0,0-.54,1.62L25.61,35.43a3.21,3.21,0,0,0,.3,2.75,1.36,1.36,0,0,0,1.14.48,2.47,2.47,0,0,0,2.27-1.61,7.81,7.81,0,0,0,.6-1.62Zm20.94,2.75A13.65,13.65,0,0,0,56.79,8c-.18-1.2-.66-2-1.68-2C53.44,6,52.54,7.72,52,10.29A8.3,8.3,0,0,0,52.6,15c.66,1.68,1.44,3.41,2.33,5.27A45.13,45.13,0,0,1,57.69,27a13.44,13.44,0,0,1,.42,6.88,16.82,16.82,0,0,1-3.48,7.72,9.7,9.7,0,0,1-7.83,3.35c-4.13,0-6.17-1.55-6.95-3.94s-.42-5.51.24-8.86l6.47-.6A16,16,0,0,0,46,36.63c.18,1.43.66,2.39,2,2.39,1.92,0,3-2,3.65-4.85A8.87,8.87,0,0,0,51,29.33c-.17-.42-.35-.9-.53-1.32s-.36-.9-.54-1.32c-.42-.9-.9-1.85-1.38-2.87s-1-2-1.44-3.17a20.71,20.71,0,0,1-1.73-6.82,10.19,10.19,0,0,1,.24-3.54,14.3,14.3,0,0,1,3.41-6.94A9.77,9.77,0,0,1,56.25,0c4-.06,5.87,1.56,6.64,3.89a16.25,16.25,0,0,1-.06,7.78Zm22.92,32.2L81,16.82,81.14,15h-.36L74.56,44.47h-6l9.33-44h7.9l-.48,20.11-.18,2.33h.12l.78-2.33L94.19.48h7.9l-9.34,44h-6L93,15h-.36L92,16.82,82,44.47Zm27.58-44h14.79l-1.44,6.64H111.9l-2.45,11.55h6l-1.49,7.06h-6l-2.57,12.09h8.32l-1.38,6.65H97.54Zm9,44,9.33-44h5.09c6,0,8.86,1.2,10,4.55.95,3.35,0,8.8-1.8,17.47s-3.23,14.07-5.63,17.42S127,44.47,121,44.47ZM123.69,38c2.21,0,3.53-.24,4.67-2.39a39.46,39.46,0,0,0,2.45-8.38c.3-1.37.6-3,1-4.79s.71-3.41,1-4.84c.6-2.82,1.32-6.17,1.08-8.32s-1.38-2.34-3.59-2.34ZM147.5.48H154l-9.34,44h-6.46Zm20.65,35a16.57,16.57,0,0,1-2.1,4.79,13,13,0,0,1-3.29,3.23,8.78,8.78,0,0,1-5.26,1.49,6.59,6.59,0,0,1-4.73-1.49,5.69,5.69,0,0,1-1.8-3.23,10.08,10.08,0,0,1-.06-4.79l5.51-25.91a14.5,14.5,0,0,1,2-4.73,12.76,12.76,0,0,1,3.23-3.29A9.61,9.61,0,0,1,167,0a6.78,6.78,0,0,1,4.67,1.5,5.91,5.91,0,0,1,1.86,3.29,10.24,10.24,0,0,1,.12,4.73Zm-1-25.91a3.68,3.68,0,0,0-.3-2.76,1.48,1.48,0,0,0-1.19-.47,2.66,2.66,0,0,0-2.28,1.61,6.43,6.43,0,0,0-.54,1.62l-5.5,25.91a3.21,3.21,0,0,0,.3,2.75,1.35,1.35,0,0,0,1.13.48,2.49,2.49,0,0,0,2.28-1.61,7.81,7.81,0,0,0,.6-1.62Zm20.95,2.75A13.92,13.92,0,0,0,188.55,8c-.17-1.2-.65-2-1.67-2-1.68.06-2.57,1.79-3.11,4.36a8.3,8.3,0,0,0,.6,4.73c.65,1.68,1.43,3.41,2.33,5.27a45.06,45.06,0,0,1,2.75,6.7,13.33,13.33,0,0,1,.42,6.88,16.91,16.91,0,0,1-3.47,7.72,9.73,9.73,0,0,1-7.84,3.35c-4.13,0-6.16-1.55-6.94-3.94s-.42-5.51.24-8.86l6.46-.6a16,16,0,0,0-.54,5.09c.18,1.43.66,2.39,2,2.39,1.91,0,3-2,3.65-4.85a8.87,8.87,0,0,0-.66-4.84c-.18-.42-.36-.9-.54-1.32s-.36-.9-.54-1.32c-.42-.9-.9-1.85-1.37-2.87s-1-2-1.44-3.17a20.49,20.49,0,0,1-1.74-6.82,10.19,10.19,0,0,1,.24-3.54,14.39,14.39,0,0,1,3.41-6.94A9.79,9.79,0,0,1,188,0c4-.06,5.86,1.56,6.64,3.89a16.25,16.25,0,0,1-.06,7.78ZM209.68.48h14.78L223,7.12H214.7l-2.45,11.55h6l-1.49,7.06h-6l-2.57,12.09h8.32l-1.38,6.65H200.34Zm20.7,21.07-.12-2h-.36l-5.26,25h-5.93l9.34-44h5.74l1.38,22.92.12,2h.36L241,.48h5.93l-9.34,44h-5.74Zm41.17,7.84-1.26,6a16.29,16.29,0,0,1-2.09,4.79,13.31,13.31,0,0,1-3.29,3.23,8.81,8.81,0,0,1-5.27,1.49,6.6,6.6,0,0,1-4.73-1.49,5.73,5.73,0,0,1-1.79-3.23,9.83,9.83,0,0,1-.06-4.79l5.5-25.91a14.5,14.5,0,0,1,2-4.73,12.92,12.92,0,0,1,3.23-3.29A9.64,9.64,0,0,1,269.16,0a6.8,6.8,0,0,1,4.67,1.5,6,6,0,0,1,1.85,3.29,10.24,10.24,0,0,1,.12,4.73l-1.32,6h-6l1.32-6a3.21,3.21,0,0,0-.42-2.76A1.73,1.73,0,0,0,268,6.29a2.82,2.82,0,0,0-2.33,1.61,11.84,11.84,0,0,0-.6,1.62l-5.51,25.91a3.66,3.66,0,0,0,.42,2.75,1.36,1.36,0,0,0,1.14.48,2.72,2.72,0,0,0,2.57-1.61,7.81,7.81,0,0,0,.6-1.62l1.26-6Zm19.45,6a16.57,16.57,0,0,1-2.1,4.79,13,13,0,0,1-3.29,3.23,8.78,8.78,0,0,1-5.26,1.49,6.59,6.59,0,0,1-4.73-1.49,5.69,5.69,0,0,1-1.8-3.23,9.83,9.83,0,0,1-.06-4.79l5.51-25.91a14.7,14.7,0,0,1,2-4.73,13,13,0,0,1,3.24-3.29A9.61,9.61,0,0,1,289.86,0a6.78,6.78,0,0,1,4.67,1.5,5.89,5.89,0,0,1,1.85,3.29,10.24,10.24,0,0,1,.12,4.73ZM290,9.52a3.68,3.68,0,0,0-.3-2.76,1.48,1.48,0,0,0-1.2-.47,2.66,2.66,0,0,0-2.27,1.61,6.43,6.43,0,0,0-.54,1.62l-5.5,25.91a3.21,3.21,0,0,0,.3,2.75,1.33,1.33,0,0,0,1.13.48,2.49,2.49,0,0,0,2.28-1.61,7.81,7.81,0,0,0,.6-1.62Zm15.08,12-.12-2h-.36l-5.27,25h-5.92l9.34-44h5.74l1.38,22.92.12,2h.36l5.32-25h5.93l-9.34,44h-5.74Zm11.19,17a3.35,3.35,0,0,0,3.11-1.08,3.93,3.93,0,0,0,1-2.15L327.86.48h6.46l-7.66,35.85a10.88,10.88,0,0,1-3.41,6.22c-1.86,1.62-4.49,2.57-8.32,2.34ZM356,.48l-7.42,35a16.55,16.55,0,0,1-2.09,4.79,13.31,13.31,0,0,1-3.29,3.23,8.83,8.83,0,0,1-5.27,1.49,6.6,6.6,0,0,1-4.73-1.49,5.73,5.73,0,0,1-1.79-3.23,9.83,9.83,0,0,1-.06-4.79L338.75.48h6.46l-7.42,35a3.21,3.21,0,0,0,.3,2.75,1.36,1.36,0,0,0,1.14.48,2.48,2.48,0,0,0,2.27-1.61,7.81,7.81,0,0,0,.6-1.62L349.52.48ZM363,21.55l-.12-2h-.35l-5.27,25h-5.93l9.34-44h5.75l1.37,22.92.12,2h.36l5.33-25h5.92l-9.33,44h-5.75Zm17.6-14.43L382.07.48h18.67l-1.43,6.64H393.2l-7.9,37.35h-6.46l7.9-37.35Zm32,28.31a16.83,16.83,0,0,1-2.09,4.79,13.18,13.18,0,0,1-3.3,3.23A8.78,8.78,0,0,1,402,44.94a6.59,6.59,0,0,1-4.73-1.49,5.62,5.62,0,0,1-1.79-3.23,9.83,9.83,0,0,1-.06-4.79l5.5-25.91a14.5,14.5,0,0,1,2-4.73,12.76,12.76,0,0,1,3.23-3.29A9.61,9.61,0,0,1,411.51,0a6.78,6.78,0,0,1,4.67,1.5A5.91,5.91,0,0,1,418,4.79a10.24,10.24,0,0,1,.12,4.73Zm-1-25.91a3.68,3.68,0,0,0-.3-2.76,1.46,1.46,0,0,0-1.19-.47,2.66,2.66,0,0,0-2.28,1.61,6.43,6.43,0,0,0-.54,1.62l-5.5,25.91a3.21,3.21,0,0,0,.3,2.75,1.35,1.35,0,0,0,1.13.48,2.49,2.49,0,0,0,2.28-1.61,7.81,7.81,0,0,0,.6-1.62Z"/></g></g></svg>